G04 ================== begin FILE IDENTIFICATION RECORD ==================*
G04 Layout Name:  Templet_16x.brd*
G04 Film Name:    BOTTOM*
G04 File Format:  Gerber RS274X*
G04 File Origin:  Cadence Allegro 16.6-P004*
G04 Origin Date:  Wed Mar 09 21:36:10 2022*
G04 *
G04 Layer:  BOARD GEOMETRY/OUTLINE*
G04 Layer:  ETCH/BOTTOM*
G04 Layer:  PIN/BOTTOM*
G04 Layer:  VIA CLASS/BOTTOM*
G04 *
G04 Offset:    (0.00 0.00)*
G04 Mirror:    No*
G04 Mode:      Positive*
G04 Rotation:  0*
G04 FullContactRelief:  No*
G04 UndefLineWidth:     6.00*
G04 ================== end FILE IDENTIFICATION RECORD ====================*
%FSLAX25Y25*MOIN*%
%IR0*IPPOS*OFA0.00000B0.00000*MIA0B0*SFA1.00000B1.00000*%
%ADD11C,.024*%
%ADD14R,.01969X.01969*%
%ADD12R,.12598X.09842*%
%ADD15R,.069X.016*%
%ADD10R,.07087X.01181*%
%ADD13O,.03937X.05906*%
%ADD16C,.012*%
%ADD17C,.006*%
%ADD18C,.008*%
G75*
%LPD*%
G75*
G36*
G01X125000Y102999D02*
G02X126999Y101000I0J-1999D01*
G01Y3000D01*
G02X125000Y1001I-1999J0D01*
G01X3000D01*
G02X1001Y3000I0J1999D01*
G01Y101000D01*
G02X3000Y102999I1999J0D01*
G01X125000D01*
G37*
%LPC*%
G75*
G36*
G01X103904Y25606D02*
Y23636D01*
G02X102930Y21528I-2770J1D01*
G03X103189Y20824I259J-304D01*
G01X103507D01*
G02X103790Y20142I0J-400D01*
G01X103035Y19388D01*
X86761D01*
X84415Y21733D01*
Y21816D01*
G03Y21820I-2770J2D01*
G01Y22942D01*
X77944D01*
Y26516D01*
X78628D01*
Y33057D01*
X65687Y45998D01*
X54450D01*
Y45708D01*
X45760D01*
Y58334D01*
X54450D01*
Y58144D01*
X64410D01*
X78849Y72582D01*
X91435D01*
X93004Y74152D01*
X95824D01*
Y77102D01*
X104328D01*
Y76602D01*
X106908D01*
X111486Y72024D01*
Y33416D01*
X103897Y25827D01*
X103901Y25739D01*
G02X103904Y25606I-2767J-129D01*
G37*
%LPD*%
G75*
G36*
G01X98364Y23636D02*
G03X99338Y21528I2770J1D01*
G02X99079Y20824I-259J-304D01*
G01X95709D01*
G02X95450Y21528I0J400D01*
G03X96424Y23636I-1796J2109D01*
G01Y25606D01*
G03X90968Y26282I-2770J0D01*
G01X90930Y26130D01*
X85060D01*
Y26516D01*
X80832D01*
Y33969D01*
X67517Y47284D01*
G02X67800Y47966I283J282D01*
G01X87331D01*
X92119Y43178D01*
X104924D01*
X108010Y46264D01*
Y60476D01*
X105634Y62852D01*
X104328D01*
Y63352D01*
X95824D01*
Y60148D01*
X104328D01*
Y60648D01*
X104722D01*
X105806Y59564D01*
Y47176D01*
X104012Y45382D01*
X93031D01*
X89160Y49253D01*
G02X89443Y49936I283J283D01*
G01X90619D01*
X90906Y49648D01*
X95824D01*
Y49148D01*
X104328D01*
Y57852D01*
X95824D01*
Y57352D01*
X87506D01*
X86230Y56076D01*
X66706D01*
G02X66423Y56758I0J400D01*
G01X79845Y70180D01*
X91435D01*
X93016Y68598D01*
X95824D01*
Y68398D01*
X104328D01*
Y74398D01*
X105996D01*
X109282Y71112D01*
Y34328D01*
X102788Y27834D01*
X102652Y27923D01*
G03X98364Y25606I-1518J-2317D01*
G01Y23636D01*
G37*
G36*
G01X88639Y20824D02*
X86819Y22645D01*
G02X87102Y23328I283J283D01*
G01X90896D01*
X90925Y23162D01*
G03X91858Y21528I2729J475D01*
G02X91599Y20824I-259J-304D01*
G01X88639D01*
G37*
G54D10*
X50105Y60879D03*
Y58911D03*
Y56942D03*
Y54974D03*
Y53005D03*
Y51037D03*
Y49068D03*
Y47100D03*
G54D11*
X38802Y52323D03*
X39721Y63927D03*
X39492Y39109D03*
X42594Y70592D03*
X60863Y30147D03*
X54314Y30492D03*
X59829Y77256D03*
X53854D03*
X84131Y34743D03*
X96310Y33479D03*
X88553Y63410D03*
X78787Y61112D03*
X87405Y41005D03*
X103835Y82886D03*
X97631Y82771D03*
X114866Y59561D03*
X115210Y49795D03*
X115555Y39684D03*
X114521Y68408D03*
G54D12*
X57586Y39422D03*
Y68556D03*
G54D13*
X97394Y15174D03*
X101134Y24622D03*
X93654D03*
G54D14*
X83274Y24729D03*
X79730D03*
G54D15*
X100076Y48000D03*
Y50750D03*
Y53500D03*
Y56250D03*
Y59000D03*
Y61750D03*
Y64500D03*
Y67250D03*
Y70000D03*
Y72750D03*
Y75500D03*
Y78250D03*
G54D16*
G01X83274Y24729D02*
X93547D01*
X93654Y24622D01*
G01X101826Y72750D02*
X93585D01*
X92216Y71381D01*
G01D02*
X93597Y70000D01*
X101826D01*
G54D17*
G01X3000Y0D02*
X125000D01*
G03X128000Y3000I0J3000D01*
G01Y101000D01*
G03X125000Y104000I-3000J0D01*
G01X3000D01*
G03X0Y101000I0J-3000D01*
G01Y3000D01*
G03X3000Y0I3000J0D01*
G01X50105Y53005D02*
X90555D01*
X91050Y53500D01*
X101826D01*
G01X50105Y49068D02*
X87787D01*
X92575Y44280D01*
X104468D01*
X106908Y46720D01*
Y60020D01*
X105178Y61750D01*
X101826D01*
G01Y50750D02*
X91362D01*
X91075Y51037D01*
X50105D01*
G01X101826Y56250D02*
X87962D01*
X86686Y54974D01*
X50105D01*
G01Y47100D02*
X66143D01*
X79730Y33513D01*
Y24729D01*
G01X101134Y24622D02*
X110384Y33872D01*
Y71568D01*
X106452Y75500D01*
X101826D01*
G54D18*
G01X92216Y71381D02*
X79347D01*
X64908Y56942D01*
X50105D01*
M02*
