G04 ================== begin FILE IDENTIFICATION RECORD ==================*
G04 Layout Name:  Templet_16x.brd*
G04 Film Name:    SILK_BOT*
G04 File Format:  Gerber RS274X*
G04 File Origin:  Cadence Allegro 16.6-P004*
G04 Origin Date:  Wed Mar 09 21:36:10 2022*
G04 *
G04 Layer:  BOARD GEOMETRY/SILKSCREEN_BOTTOM*
G04 Layer:  BOARD GEOMETRY/OUTLINE*
G04 Layer:  PACKAGE GEOMETRY/SILKSCREEN_BOTTOM*
G04 Layer:  REF DES/SILKSCREEN_BOTTOM*
G04 *
G04 Offset:    (0.00 0.00)*
G04 Mirror:    No*
G04 Mode:      Positive*
G04 Rotation:  0*
G04 FullContactRelief:  No*
G04 UndefLineWidth:     6.00*
G04 ================== end FILE IDENTIFICATION RECORD ====================*
%FSLAX25Y25*MOIN*%
%IR0*IPPOS*OFA0.00000B0.00000*MIA0B0*SFA1.00000B1.00000*%
%ADD10C,.01*%
%ADD11C,.004*%
%ADD12C,.006*%
G75*
%LPD*%
G75*
G54D10*
G01X75735Y34895D02*
X75755Y73049D01*
G01X75735Y34895D02*
X69845Y34926D01*
G01D02*
Y73052D01*
G01X64795Y34926D02*
X69845D01*
G01X50617Y62380D02*
Y72966D01*
G01Y36430D02*
Y45599D01*
G01X49550Y43950D02*
G03I-548J0D01*
G01X69845Y73052D02*
X75751D01*
G01X64795D02*
X69845D01*
G54D11*
G01X93826Y79000D02*
Y46000D01*
X104826D01*
X105826Y47000D01*
Y79000D01*
X104826Y80000D01*
X93826D01*
Y79000D01*
G54D12*
G01X3000Y0D02*
X125000D01*
G03X128000Y3000I0J3000D01*
G01Y101000D01*
G03X125000Y104000I-3000J0D01*
G01X3000D01*
G03X0Y101000I0J-3000D01*
G01Y3000D01*
G03X3000Y0I3000J0D01*
G01X75355Y53366D02*
X75105Y53499D01*
X74938Y53659D01*
X74855Y53846D01*
X74938Y54059D01*
X75105Y54219D01*
X75355Y54379D01*
X75688Y54432D01*
X77355D01*
G01X75355Y55512D02*
X75063Y55672D01*
X74897Y55886D01*
X74855Y56126D01*
X74897Y56339D01*
X75105Y56552D01*
X75355Y56686D01*
X75605Y56712D01*
X75897Y56659D01*
X76105Y56472D01*
X76188Y56286D01*
Y56046D01*
G01Y56286D02*
X76313Y56446D01*
X76522Y56579D01*
X76772Y56632D01*
X77022Y56579D01*
X77230Y56446D01*
X77355Y56206D01*
X77313Y55966D01*
X77147Y55726D01*
G01X96326Y40733D02*
X96576Y40600D01*
X96743Y40440D01*
X96826Y40253D01*
X96743Y40040D01*
X96576Y39880D01*
X96326Y39720D01*
X95993Y39667D01*
X94326D01*
G01X96826Y37680D02*
X94326D01*
X96118Y38667D01*
Y37333D01*
M02*
