G04 ================== begin FILE IDENTIFICATION RECORD ==================*
G04 Layout Name:  Templet_16xB.brd*
G04 Film Name:    ADT*
G04 File Format:  Gerber RS274X*
G04 File Origin:  Cadence Allegro 16.6-P004*
G04 Origin Date:  Wed Feb 23 17:51:21 2022*
G04 *
G04 Layer:  BOARD GEOMETRY/SILKSCREEN_TOP*
G04 Layer:  BOARD GEOMETRY/OUTLINE*
G04 Layer:  PACKAGE GEOMETRY/SILKSCREEN_TOP*
G04 Layer:  PIN/TOP*
G04 Layer:  REF DES/SILKSCREEN_TOP*
G04 *
G04 Offset:    (0.00 0.00)*
G04 Mirror:    No*
G04 Mode:      Positive*
G04 Rotation:  0*
G04 FullContactRelief:  No*
G04 UndefLineWidth:     6.00*
G04 ================== end FILE IDENTIFICATION RECORD ====================*
%FSLAX25Y25*MOIN*%
%IR0*IPPOS*OFA0.00000B0.00000*MIA0B0*SFA1.00000B1.00000*%
%ADD22R,.00591X.0315*%
%ADD23R,.0315X.00591*%
%ADD15C,.03937*%
%ADD30C,.01969*%
%ADD10R,.01969X.01969*%
%ADD13R,.12598X.09842*%
%ADD20O,.01102X.0315*%
%ADD19O,.0315X.01102*%
%ADD31O,.03543X.01102*%
%ADD17O,.01102X.03543*%
%ADD16O,.03543X.01102*%
%ADD27R,.0374X.01181*%
%ADD21R,.1063X.1063*%
%ADD12R,.02756X.0315*%
%ADD14R,.07087X.01181*%
%ADD18R,.21654X.21654*%
%ADD32R,.1378X.1378*%
%ADD28R,.02756X.05118*%
%ADD29O,.09055X.03937*%
%ADD24R,.14567X.14567*%
%ADD25O,.03937X.05906*%
%ADD26O,.07874X.03937*%
%ADD11R,.08929X.06732*%
%ADD33C,.01*%
%ADD34C,.01181*%
%ADD35C,.003*%
%ADD36C,.005*%
%ADD37C,.006*%
%ADD38C,.00591*%
%ADD39C,.00394*%
%ADD40C,.00787*%
G75*
%LPD*%
G75*
G36*
G01X46260Y55639D02*
G03X45265Y56639I-1000J0D01*
G01X45255D01*
G03X44260Y55639I5J-1000D01*
G03X46260I1000J0D01*
G37*
G54D10*
X7051Y5015D03*
X10595D03*
X25055Y4926D03*
X20024Y58458D03*
Y54914D03*
X20010Y62103D03*
X16466D03*
X28599Y4926D03*
X43539Y44745D03*
X40861Y40761D03*
X43539Y48289D03*
X38263Y79192D03*
Y75648D03*
X34601Y79065D03*
Y75521D03*
X28362Y78927D03*
Y75383D03*
X41905Y79079D03*
Y75535D03*
X27375Y82988D03*
X30919D03*
X55254Y40436D03*
X58798D03*
X44405Y40761D03*
X48086Y40714D03*
X51630D03*
X60042Y77166D03*
Y73622D03*
X56373Y77193D03*
Y73649D03*
X60469Y88054D03*
Y91598D03*
X60476Y84358D03*
X56932D03*
X74856Y7550D03*
X78400D03*
X78395Y11187D03*
X74851D03*
X78361Y14821D03*
X74817D03*
X76887Y21435D03*
X73343D03*
X62456Y40358D03*
X66000D03*
X67309Y73682D03*
Y77226D03*
X63652Y77225D03*
Y73681D03*
X89426Y8754D03*
Y5210D03*
X85727Y8754D03*
Y5210D03*
X86038Y18530D03*
X89582D03*
X86089Y22253D03*
X89633D03*
X96060Y68681D03*
X92516D03*
X103302Y68888D03*
X99758D03*
G54D11*
X8407Y56866D03*
Y93323D03*
G54D20*
X30338Y54265D03*
X32306D03*
X34275D03*
X36243D03*
X38212D03*
X40180D03*
X34275Y70013D03*
X32306D03*
X30338D03*
X40180D03*
X38212D03*
X36243D03*
G54D12*
X14868Y5017D03*
X20774D03*
X35215Y83633D03*
X41121D03*
X89143Y14070D03*
X83237D03*
G54D21*
X35260Y62188D03*
G54D30*
X86486Y31561D03*
Y58332D03*
G54D40*
G01X41147Y5669D02*
X39474D01*
G01Y7342D02*
Y5669D01*
G01X41147Y34803D02*
X39474D01*
G01D02*
Y33130D01*
G01X26795Y53723D02*
Y55298D01*
G01X28370Y53723D02*
X26795D01*
G01X43725D02*
X42150D01*
G01X26795Y69078D02*
Y70653D01*
G01X28370D02*
X26795D01*
G01X43725D02*
X42150D01*
G01X43725Y53723D02*
Y55298D01*
G01Y69078D02*
Y70653D01*
G01X68608Y5669D02*
X66935D01*
G01X68608Y7342D02*
Y5669D01*
G01Y34803D02*
Y33130D01*
G01Y34803D02*
X66935D01*
G01X80540Y73472D02*
Y76031D01*
G01Y73472D02*
X83099D01*
G01X80540Y91779D02*
Y94338D01*
G01D02*
X83099D01*
G01X101406Y73472D02*
Y76031D01*
G01X98847Y73472D02*
X101406D01*
G01X98847Y94338D02*
X101406D01*
G01Y91779D02*
Y94338D01*
G54D31*
X81131Y81935D03*
Y79965D03*
Y77995D03*
Y89815D03*
Y87845D03*
Y85875D03*
Y83905D03*
X100816Y81935D03*
Y77995D03*
Y79965D03*
Y83905D03*
Y85875D03*
Y87845D03*
Y89815D03*
G54D13*
X21102Y15159D03*
Y44293D03*
G54D22*
X51634Y47534D03*
X53012D03*
X54390D03*
X55768D03*
X57146D03*
X58524D03*
X59902D03*
X57146Y67219D03*
X55768D03*
X54390D03*
X53012D03*
X51634D03*
X59902D03*
X58524D03*
X61280Y47534D03*
X62658D03*
X64036D03*
X65414D03*
X66792D03*
X68170D03*
X69548D03*
Y67219D03*
X68170D03*
X66792D03*
X65414D03*
X64036D03*
X62658D03*
X61280D03*
G54D32*
X90973Y83905D03*
G54D14*
X28583Y22837D03*
Y24805D03*
Y26774D03*
Y28742D03*
Y30711D03*
Y32679D03*
Y34648D03*
Y36616D03*
G54D23*
X50748Y63578D03*
Y62200D03*
Y60822D03*
Y59444D03*
Y58066D03*
Y56688D03*
Y55310D03*
Y53932D03*
Y52554D03*
Y51176D03*
X70433D03*
Y52554D03*
Y53932D03*
Y55310D03*
Y56688D03*
Y58066D03*
Y59444D03*
Y60822D03*
Y62200D03*
Y63578D03*
G54D33*
G01X2953Y10632D02*
X8843Y10663D01*
G01X2953Y10632D02*
X2933Y48786D01*
G01X8843Y48789D02*
X2937D01*
G01X13893Y10663D02*
X8843D01*
G01D02*
Y48789D01*
G01X13893D02*
X8843D01*
G01X30234Y19687D02*
G03I-548J0D01*
G01X28071Y12167D02*
Y21336D01*
G01Y38117D02*
Y48703D01*
G01X50330Y47377D02*
X50091D01*
G01Y49872D02*
Y47377D01*
G01Y67377D02*
Y64881D01*
G01X50330Y67377D02*
X50091D01*
G01X77900Y30503D02*
Y33112D01*
G01Y57767D02*
Y59390D01*
G01X71091Y49872D02*
Y47377D01*
G01D02*
X70851D01*
G01X70091Y70377D02*
G03I-500J0D01*
G01X71091Y67377D02*
X70851D01*
G01X71091D02*
Y64881D01*
G01X93649Y27939D02*
X86021D01*
G01X93649Y61955D02*
X86021D01*
G01X109717Y27939D02*
Y61955D01*
G01Y27939D02*
X104525D01*
G01X109717Y61955D02*
X104525D01*
G54D24*
X60591Y57377D03*
G54D15*
X21150Y82183D03*
X21083Y88554D03*
X37023Y93756D03*
X30150Y93754D03*
X69925Y35408D03*
X105609Y22314D03*
G54D34*
G01X68021Y36775D02*
G03X68011I-5J591D01*
G01X81323Y72096D02*
G03X81333I5J-591D01*
G54D25*
X50337Y85380D03*
X46597Y94828D03*
X54077D03*
X70862Y95193D03*
X74602Y85745D03*
X67122D03*
G54D16*
X40460Y11376D03*
Y9406D03*
Y29096D03*
Y27126D03*
Y25156D03*
Y23186D03*
Y21216D03*
Y19256D03*
Y17286D03*
Y15316D03*
Y13346D03*
Y31066D03*
X67620Y9406D03*
Y11376D03*
Y13346D03*
Y15316D03*
Y17286D03*
Y19256D03*
Y21216D03*
Y23186D03*
Y25156D03*
Y27126D03*
Y29096D03*
Y31066D03*
G54D35*
G01X7347Y6928D02*
Y9428D01*
X8013D01*
X8227Y9303D01*
X8360Y9136D01*
X8413Y8803D01*
X8360Y8470D01*
X8200Y8261D01*
X8013Y8136D01*
X7347D01*
G01X8013D02*
X8413Y6928D01*
G01X9573Y7970D02*
X9760Y8261D01*
X9920Y8428D01*
X10133Y8511D01*
X10320Y8428D01*
X10453Y8261D01*
X10560Y8011D01*
X10587Y7720D01*
X10560Y7470D01*
X10453Y7220D01*
X10293Y7011D01*
X10107Y6928D01*
X9893Y7011D01*
X9707Y7261D01*
X9600Y7636D01*
X9573Y8053D01*
X9627Y8595D01*
X9707Y8886D01*
X9840Y9178D01*
X10027Y9386D01*
X10213Y9428D01*
X10400Y9345D01*
X10533Y9136D01*
G01X20268Y7735D02*
Y10235D01*
X20802D01*
X21015Y10110D01*
X21175Y9943D01*
X21308Y9693D01*
X21415Y9402D01*
X21442Y8985D01*
X21415Y8568D01*
X21308Y8277D01*
X21175Y8027D01*
X21015Y7860D01*
X20802Y7735D01*
X20268D01*
G01X22548Y9818D02*
X22708Y10068D01*
X22895Y10193D01*
X23108Y10235D01*
X23375Y10152D01*
X23562Y9943D01*
X23615Y9693D01*
X23588Y9443D01*
X23482Y9235D01*
X22948Y8818D01*
X22708Y8527D01*
X22548Y8110D01*
X22495Y7735D01*
X23615D01*
G01X18060Y54737D02*
X15560D01*
Y55403D01*
X15685Y55617D01*
X15852Y55750D01*
X16185Y55803D01*
X16518Y55750D01*
X16727Y55590D01*
X16852Y55403D01*
Y54737D01*
G01Y55403D02*
X18060Y55803D01*
G01X17768Y57017D02*
X17977Y57203D01*
X18060Y57417D01*
X17977Y57630D01*
X17727Y57817D01*
X17352Y57950D01*
X16977Y58003D01*
X16518D01*
X16143Y57950D01*
X15810Y57817D01*
X15643Y57657D01*
X15560Y57470D01*
X15643Y57257D01*
X15810Y57097D01*
X16060Y56990D01*
X16393Y56937D01*
X16685Y56990D01*
X16977Y57123D01*
X17143Y57283D01*
X17185Y57470D01*
X17102Y57683D01*
X16893Y57843D01*
X16518Y58003D01*
G01X15209Y81329D02*
X15342Y81079D01*
X15502Y80912D01*
X15689Y80829D01*
X15902Y80912D01*
X16062Y81079D01*
X16222Y81329D01*
X16275Y81662D01*
Y83329D01*
G01X17942Y80829D02*
X18129Y80871D01*
X18342Y80996D01*
X18475Y81204D01*
X18529Y81496D01*
X18475Y81787D01*
X18315Y82037D01*
X18075Y82162D01*
X17809D01*
X17649Y82246D01*
X17515Y82454D01*
X17462Y82746D01*
X17542Y83037D01*
X17729Y83246D01*
X17942Y83329D01*
X18155Y83246D01*
X18342Y83037D01*
X18422Y82746D01*
X18369Y82454D01*
X18235Y82246D01*
X18075Y82162D01*
X17809D01*
X17569Y82037D01*
X17409Y81787D01*
X17355Y81496D01*
X17409Y81204D01*
X17542Y80996D01*
X17755Y80871D01*
X17942Y80829D01*
G01X23747Y75530D02*
X23622Y75370D01*
X23539Y75183D01*
Y74970D01*
X23664Y74730D01*
X23872Y74543D01*
X24122Y74410D01*
X24539Y74303D01*
X24914Y74276D01*
X25289Y74330D01*
X25539Y74410D01*
X25789Y74570D01*
X25956Y74756D01*
X26039Y74943D01*
Y75130D01*
X25956Y75316D01*
X25831Y75476D01*
X25664Y75610D01*
G01X26039Y77143D02*
X23539D01*
X24039Y76823D01*
G01X26039D02*
Y77463D01*
G01Y79290D02*
X25497Y79343D01*
X25039Y79423D01*
X24622Y79530D01*
X24164Y79663D01*
X23539Y79876D01*
Y78810D01*
G01X20433Y75455D02*
X20308Y75295D01*
X20225Y75108D01*
Y74895D01*
X20350Y74655D01*
X20558Y74468D01*
X20808Y74335D01*
X21225Y74228D01*
X21600Y74201D01*
X21975Y74255D01*
X22225Y74335D01*
X22475Y74495D01*
X22642Y74681D01*
X22725Y74868D01*
Y75055D01*
X22642Y75241D01*
X22517Y75401D01*
X22350Y75535D01*
G01X22725Y77068D02*
X20225D01*
X20725Y76748D01*
G01X22725D02*
Y77388D01*
G01X21683Y78761D02*
X21392Y78948D01*
X21225Y79108D01*
X21142Y79321D01*
X21225Y79508D01*
X21392Y79641D01*
X21642Y79748D01*
X21933Y79775D01*
X22183Y79748D01*
X22433Y79641D01*
X22642Y79481D01*
X22725Y79295D01*
X22642Y79081D01*
X22392Y78895D01*
X22017Y78788D01*
X21600Y78761D01*
X21058Y78815D01*
X20767Y78895D01*
X20475Y79028D01*
X20267Y79215D01*
X20225Y79401D01*
X20308Y79588D01*
X20517Y79721D01*
G01X16786Y66981D02*
X16626Y67106D01*
X16439Y67189D01*
X16226D01*
X15986Y67064D01*
X15799Y66856D01*
X15666Y66606D01*
X15559Y66189D01*
X15532Y65814D01*
X15586Y65439D01*
X15666Y65189D01*
X15826Y64939D01*
X16012Y64772D01*
X16199Y64689D01*
X16386D01*
X16572Y64772D01*
X16732Y64897D01*
X16866Y65064D01*
G01X18399Y64689D02*
Y67189D01*
X18079Y66689D01*
G01Y64689D02*
X18719D01*
G01X20012Y65189D02*
X20172Y64897D01*
X20386Y64731D01*
X20626Y64689D01*
X20839Y64731D01*
X21052Y64939D01*
X21186Y65189D01*
X21212Y65439D01*
X21159Y65731D01*
X20972Y65939D01*
X20786Y66022D01*
X20546D01*
G01X20786D02*
X20946Y66147D01*
X21079Y66356D01*
X21132Y66606D01*
X21079Y66856D01*
X20946Y67064D01*
X20706Y67189D01*
X20466Y67147D01*
X20226Y66981D01*
G01X22262Y68908D02*
X24054D01*
X24429Y69015D01*
X24679Y69228D01*
X24762Y69495D01*
X24679Y69762D01*
X24429Y69975D01*
X24054Y70082D01*
X22262D01*
G01X23720Y71188D02*
X23429Y71375D01*
X23262Y71535D01*
X23179Y71748D01*
X23262Y71935D01*
X23429Y72068D01*
X23679Y72175D01*
X23970Y72202D01*
X24220Y72175D01*
X24470Y72068D01*
X24679Y71908D01*
X24762Y71722D01*
X24679Y71508D01*
X24429Y71322D01*
X24054Y71215D01*
X23637Y71188D01*
X23095Y71242D01*
X22804Y71322D01*
X22512Y71455D01*
X22304Y71642D01*
X22262Y71828D01*
X22345Y72015D01*
X22554Y72148D01*
G01X23337Y93212D02*
X23470Y92962D01*
X23630Y92795D01*
X23817Y92712D01*
X24030Y92795D01*
X24190Y92962D01*
X24350Y93212D01*
X24403Y93545D01*
Y95212D01*
G01X26390Y92712D02*
Y95212D01*
X25403Y93420D01*
X26737D01*
G01X14830Y87638D02*
X14963Y87388D01*
X15123Y87221D01*
X15310Y87138D01*
X15523Y87221D01*
X15683Y87388D01*
X15843Y87638D01*
X15896Y87971D01*
Y89638D01*
G01X17510Y87138D02*
X17563Y87680D01*
X17643Y88138D01*
X17750Y88555D01*
X17883Y89013D01*
X18096Y89638D01*
X17030D01*
G01X15276Y96864D02*
X15026Y96731D01*
X14859Y96571D01*
X14776Y96384D01*
X14859Y96171D01*
X15026Y96011D01*
X15276Y95851D01*
X15609Y95798D01*
X17276D01*
G01X14776Y94131D02*
X17276D01*
X16776Y94451D01*
G01X14776D02*
Y93811D01*
G01X32294Y6071D02*
X32134Y6196D01*
X31947Y6279D01*
X31734D01*
X31494Y6154D01*
X31307Y5946D01*
X31174Y5696D01*
X31067Y5279D01*
X31040Y4904D01*
X31094Y4529D01*
X31174Y4279D01*
X31334Y4029D01*
X31520Y3862D01*
X31707Y3779D01*
X31894D01*
X32080Y3862D01*
X32240Y3987D01*
X32374Y4154D01*
G01X33907Y3779D02*
Y6279D01*
X33587Y5779D01*
G01Y3779D02*
X34227D01*
G01X36107Y6279D02*
X35894Y6196D01*
X35734Y5987D01*
X35627Y5737D01*
X35547Y5404D01*
X35520Y5029D01*
X35547Y4654D01*
X35627Y4321D01*
X35734Y4071D01*
X35894Y3862D01*
X36107Y3779D01*
X36320Y3862D01*
X36480Y4071D01*
X36587Y4321D01*
X36667Y4654D01*
X36694Y5029D01*
X36667Y5404D01*
X36587Y5737D01*
X36480Y5987D01*
X36320Y6196D01*
X36107Y6279D01*
G01X41089Y43682D02*
X38589D01*
Y44348D01*
X38714Y44562D01*
X38881Y44695D01*
X39214Y44748D01*
X39547Y44695D01*
X39756Y44535D01*
X39881Y44348D01*
Y43682D01*
G01Y44348D02*
X41089Y44748D01*
G01Y46415D02*
X38589D01*
X39089Y46095D01*
G01X41089D02*
Y46735D01*
G01X38589Y48615D02*
X38672Y48402D01*
X38881Y48242D01*
X39131Y48135D01*
X39464Y48055D01*
X39839Y48028D01*
X40214Y48055D01*
X40547Y48135D01*
X40797Y48242D01*
X41006Y48402D01*
X41089Y48615D01*
X41006Y48828D01*
X40797Y48988D01*
X40547Y49095D01*
X40214Y49175D01*
X39839Y49202D01*
X39464Y49175D01*
X39131Y49095D01*
X38881Y48988D01*
X38672Y48828D01*
X38589Y48615D01*
G01X36325Y41655D02*
X36165Y41780D01*
X35978Y41863D01*
X35765D01*
X35525Y41738D01*
X35338Y41530D01*
X35205Y41280D01*
X35098Y40863D01*
X35071Y40488D01*
X35125Y40113D01*
X35205Y39863D01*
X35365Y39613D01*
X35551Y39446D01*
X35738Y39363D01*
X35925D01*
X36111Y39446D01*
X36271Y39571D01*
X36405Y39738D01*
G01X37485Y39655D02*
X37671Y39446D01*
X37885Y39363D01*
X38098Y39446D01*
X38285Y39696D01*
X38418Y40071D01*
X38471Y40446D01*
Y40905D01*
X38418Y41280D01*
X38285Y41613D01*
X38125Y41780D01*
X37938Y41863D01*
X37725Y41780D01*
X37565Y41613D01*
X37458Y41363D01*
X37405Y41030D01*
X37458Y40738D01*
X37591Y40446D01*
X37751Y40280D01*
X37938Y40238D01*
X38151Y40321D01*
X38311Y40530D01*
X38471Y40905D01*
G01X30785Y45848D02*
X31035Y45981D01*
X31202Y46141D01*
X31285Y46328D01*
X31202Y46541D01*
X31035Y46701D01*
X30785Y46861D01*
X30452Y46914D01*
X28785D01*
G01X29202Y48074D02*
X28952Y48234D01*
X28827Y48421D01*
X28785Y48634D01*
X28868Y48901D01*
X29077Y49088D01*
X29327Y49141D01*
X29577Y49114D01*
X29785Y49008D01*
X30202Y48474D01*
X30493Y48234D01*
X30910Y48074D01*
X31285Y48021D01*
Y49141D01*
G01X39547Y92902D02*
X39680Y92652D01*
X39840Y92485D01*
X40027Y92402D01*
X40240Y92485D01*
X40400Y92652D01*
X40560Y92902D01*
X40613Y93235D01*
Y94902D01*
G01X41693Y92902D02*
X41853Y92610D01*
X42067Y92444D01*
X42307Y92402D01*
X42520Y92444D01*
X42733Y92652D01*
X42867Y92902D01*
X42893Y93152D01*
X42840Y93444D01*
X42653Y93652D01*
X42467Y93735D01*
X42227D01*
G01X42467D02*
X42627Y93860D01*
X42760Y94069D01*
X42813Y94319D01*
X42760Y94569D01*
X42627Y94777D01*
X42387Y94902D01*
X42147Y94860D01*
X41907Y94694D01*
G01X27608Y85387D02*
Y87887D01*
X28274D01*
X28488Y87762D01*
X28621Y87595D01*
X28674Y87262D01*
X28621Y86929D01*
X28461Y86720D01*
X28274Y86595D01*
X27608D01*
G01X28274D02*
X28674Y85387D01*
G01X30661D02*
Y87887D01*
X29674Y86095D01*
X31008D01*
G01X54508Y42720D02*
Y45220D01*
X55174D01*
X55388Y45095D01*
X55521Y44928D01*
X55574Y44595D01*
X55521Y44262D01*
X55361Y44053D01*
X55174Y43928D01*
X54508D01*
G01X55174D02*
X55574Y42720D01*
G01X57241D02*
Y45220D01*
X56921Y44720D01*
G01Y42720D02*
X57561D01*
G01X58934Y44803D02*
X59094Y45053D01*
X59281Y45178D01*
X59494Y45220D01*
X59761Y45137D01*
X59948Y44928D01*
X60001Y44678D01*
X59974Y44428D01*
X59868Y44220D01*
X59334Y43803D01*
X59094Y43512D01*
X58934Y43095D01*
X58881Y42720D01*
X60001D01*
G01X48728Y45232D02*
X48568Y45357D01*
X48381Y45440D01*
X48168D01*
X47928Y45315D01*
X47741Y45107D01*
X47608Y44857D01*
X47501Y44440D01*
X47474Y44065D01*
X47528Y43690D01*
X47608Y43440D01*
X47768Y43190D01*
X47954Y43023D01*
X48141Y42940D01*
X48328D01*
X48514Y43023D01*
X48674Y43148D01*
X48808Y43315D01*
G01X50341Y42940D02*
Y45440D01*
X50021Y44940D01*
G01Y42940D02*
X50661D01*
G01X51954Y43315D02*
X52114Y43107D01*
X52301Y42982D01*
X52541Y42940D01*
X52781Y43023D01*
X52968Y43190D01*
X53101Y43482D01*
X53128Y43815D01*
X53074Y44148D01*
X52941Y44357D01*
X52754Y44523D01*
X52568Y44565D01*
X52381Y44523D01*
X52141Y44357D01*
X52221Y45440D01*
X52941D01*
G01X43992Y82066D02*
Y84566D01*
X44526D01*
X44739Y84441D01*
X44899Y84274D01*
X45032Y84024D01*
X45139Y83733D01*
X45166Y83316D01*
X45139Y82899D01*
X45032Y82608D01*
X44899Y82358D01*
X44739Y82191D01*
X44526Y82066D01*
X43992D01*
G01X46779D02*
Y84566D01*
X46459Y84066D01*
G01Y82066D02*
X47099D01*
G01X46383Y74848D02*
X43883D01*
Y75514D01*
X44008Y75728D01*
X44175Y75861D01*
X44508Y75914D01*
X44841Y75861D01*
X45050Y75701D01*
X45175Y75514D01*
Y74848D01*
G01Y75514D02*
X46383Y75914D01*
G01Y77581D02*
X43883D01*
X44383Y77261D01*
G01X46383D02*
Y77901D01*
G01X45883Y79194D02*
X46175Y79354D01*
X46341Y79568D01*
X46383Y79808D01*
X46341Y80021D01*
X46133Y80234D01*
X45883Y80368D01*
X45633Y80394D01*
X45341Y80341D01*
X45133Y80154D01*
X45050Y79968D01*
Y79728D01*
G01Y79968D02*
X44925Y80128D01*
X44716Y80261D01*
X44466Y80314D01*
X44216Y80261D01*
X44008Y80128D01*
X43883Y79888D01*
X43925Y79648D01*
X44091Y79408D01*
G01X57627Y79910D02*
Y82410D01*
X58293D01*
X58507Y82285D01*
X58640Y82118D01*
X58693Y81785D01*
X58640Y81452D01*
X58480Y81243D01*
X58293Y81118D01*
X57627D01*
G01X58293D02*
X58693Y79910D01*
G01X59773Y80410D02*
X59933Y80118D01*
X60147Y79952D01*
X60387Y79910D01*
X60600Y79952D01*
X60813Y80160D01*
X60947Y80410D01*
X60973Y80660D01*
X60920Y80952D01*
X60733Y81160D01*
X60547Y81243D01*
X60307D01*
G01X60547D02*
X60707Y81368D01*
X60840Y81577D01*
X60893Y81827D01*
X60840Y82077D01*
X60707Y82285D01*
X60467Y82410D01*
X60227Y82368D01*
X59987Y82202D01*
G01X46986Y75856D02*
X46861Y75696D01*
X46778Y75509D01*
Y75296D01*
X46903Y75056D01*
X47111Y74869D01*
X47361Y74736D01*
X47778Y74629D01*
X48153Y74602D01*
X48528Y74656D01*
X48778Y74736D01*
X49028Y74896D01*
X49195Y75082D01*
X49278Y75269D01*
Y75456D01*
X49195Y75642D01*
X49070Y75802D01*
X48903Y75936D01*
G01X49278Y77469D02*
X46778D01*
X47278Y77149D01*
G01X49278D02*
Y77789D01*
G01Y79989D02*
X46778D01*
X48570Y79002D01*
Y80336D01*
G01X51678Y77616D02*
X51553Y77456D01*
X51470Y77269D01*
Y77056D01*
X51595Y76816D01*
X51803Y76629D01*
X52053Y76496D01*
X52470Y76389D01*
X52845Y76362D01*
X53220Y76416D01*
X53470Y76496D01*
X53720Y76656D01*
X53887Y76842D01*
X53970Y77029D01*
Y77216D01*
X53887Y77402D01*
X53762Y77562D01*
X53595Y77696D01*
G01Y78642D02*
X53803Y78802D01*
X53928Y78989D01*
X53970Y79229D01*
X53887Y79469D01*
X53720Y79656D01*
X53428Y79789D01*
X53095Y79816D01*
X52762Y79762D01*
X52553Y79629D01*
X52387Y79442D01*
X52345Y79256D01*
X52387Y79069D01*
X52553Y78829D01*
X51470Y78909D01*
Y79629D01*
G01X51496Y73471D02*
X51371Y73311D01*
X51288Y73124D01*
Y72911D01*
X51413Y72671D01*
X51621Y72484D01*
X51871Y72351D01*
X52288Y72244D01*
X52663Y72217D01*
X53038Y72271D01*
X53288Y72351D01*
X53538Y72511D01*
X53705Y72697D01*
X53788Y72884D01*
Y73071D01*
X53705Y73257D01*
X53580Y73417D01*
X53413Y73551D01*
G01X53788Y75404D02*
X51288D01*
X53080Y74417D01*
Y75751D01*
G01X59795Y98144D02*
X60008Y98102D01*
X60195Y97936D01*
X60355Y97686D01*
X60462Y97394D01*
X60515Y97061D01*
Y96727D01*
X60462Y96394D01*
X60355Y96102D01*
X60195Y95852D01*
X60008Y95686D01*
X59795Y95644D01*
X59582Y95686D01*
X59395Y95852D01*
X59235Y96102D01*
X59128Y96394D01*
X59075Y96727D01*
Y97061D01*
X59128Y97394D01*
X59235Y97686D01*
X59395Y97936D01*
X59582Y98102D01*
X59795Y98144D01*
G01X59582Y97477D02*
X59262Y98144D01*
G01X58102Y96061D02*
X57942Y95811D01*
X57755Y95686D01*
X57542Y95644D01*
X57275Y95727D01*
X57088Y95936D01*
X57035Y96186D01*
X57062Y96436D01*
X57168Y96644D01*
X57702Y97061D01*
X57942Y97352D01*
X58102Y97769D01*
X58155Y98144D01*
X57035D01*
G01X73999Y2712D02*
Y5212D01*
X74665D01*
X74879Y5087D01*
X75012Y4920D01*
X75065Y4587D01*
X75012Y4254D01*
X74852Y4045D01*
X74665Y3920D01*
X73999D01*
G01X74665D02*
X75065Y2712D01*
G01X76732D02*
Y5212D01*
X76412Y4712D01*
G01Y2712D02*
X77052D01*
G01X78932D02*
Y5212D01*
X78612Y4712D01*
G01Y2712D02*
X79252D01*
G01X65714Y3854D02*
Y2062D01*
X65821Y1687D01*
X66034Y1437D01*
X66301Y1354D01*
X66568Y1437D01*
X66781Y1687D01*
X66888Y2062D01*
Y3854D01*
G01X67914Y1729D02*
X68074Y1521D01*
X68261Y1396D01*
X68501Y1354D01*
X68741Y1437D01*
X68928Y1604D01*
X69061Y1896D01*
X69088Y2229D01*
X69034Y2562D01*
X68901Y2771D01*
X68714Y2937D01*
X68528Y2979D01*
X68341Y2937D01*
X68101Y2771D01*
X68181Y3854D01*
X68901D01*
G01X75074Y16847D02*
Y19347D01*
X75740D01*
X75954Y19222D01*
X76087Y19055D01*
X76140Y18722D01*
X76087Y18389D01*
X75927Y18180D01*
X75740Y18055D01*
X75074D01*
G01X75740D02*
X76140Y16847D01*
G01X77807D02*
X77994Y16889D01*
X78207Y17014D01*
X78340Y17222D01*
X78394Y17514D01*
X78340Y17805D01*
X78180Y18055D01*
X77940Y18180D01*
X77674D01*
X77514Y18264D01*
X77380Y18472D01*
X77327Y18764D01*
X77407Y19055D01*
X77594Y19264D01*
X77807Y19347D01*
X78020Y19264D01*
X78207Y19055D01*
X78287Y18764D01*
X78234Y18472D01*
X78100Y18264D01*
X77940Y18180D01*
X77674D01*
X77434Y18055D01*
X77274Y17805D01*
X77220Y17514D01*
X77274Y17222D01*
X77407Y17014D01*
X77620Y16889D01*
X77807Y16847D01*
G01X73477Y26563D02*
X73317Y26688D01*
X73130Y26771D01*
X72917D01*
X72677Y26646D01*
X72490Y26438D01*
X72357Y26188D01*
X72250Y25771D01*
X72223Y25396D01*
X72277Y25021D01*
X72357Y24771D01*
X72517Y24521D01*
X72703Y24354D01*
X72890Y24271D01*
X73077D01*
X73263Y24354D01*
X73423Y24479D01*
X73557Y24646D01*
G01X75090Y24271D02*
Y26771D01*
X74770Y26271D01*
G01Y24271D02*
X75410D01*
G01X76783Y26354D02*
X76943Y26604D01*
X77130Y26729D01*
X77343Y26771D01*
X77610Y26688D01*
X77797Y26479D01*
X77850Y26229D01*
X77823Y25979D01*
X77717Y25771D01*
X77183Y25354D01*
X76943Y25063D01*
X76783Y24646D01*
X76730Y24271D01*
X77850D01*
G01X69337Y38849D02*
X69470Y38599D01*
X69630Y38432D01*
X69817Y38349D01*
X70030Y38432D01*
X70190Y38599D01*
X70350Y38849D01*
X70403Y39182D01*
Y40849D01*
G01X71563Y39391D02*
X71750Y39682D01*
X71910Y39849D01*
X72123Y39932D01*
X72310Y39849D01*
X72443Y39682D01*
X72550Y39432D01*
X72577Y39141D01*
X72550Y38891D01*
X72443Y38641D01*
X72283Y38432D01*
X72097Y38349D01*
X71883Y38432D01*
X71697Y38682D01*
X71590Y39057D01*
X71563Y39474D01*
X71617Y40016D01*
X71697Y40307D01*
X71830Y40599D01*
X72017Y40807D01*
X72203Y40849D01*
X72390Y40766D01*
X72523Y40557D01*
G01X62744Y44904D02*
X62584Y45029D01*
X62397Y45112D01*
X62184D01*
X61944Y44987D01*
X61757Y44779D01*
X61624Y44529D01*
X61517Y44112D01*
X61490Y43737D01*
X61544Y43362D01*
X61624Y43112D01*
X61784Y42862D01*
X61970Y42695D01*
X62157Y42612D01*
X62344D01*
X62530Y42695D01*
X62690Y42820D01*
X62824Y42987D01*
G01X64357Y42612D02*
Y45112D01*
X64037Y44612D01*
G01Y42612D02*
X64677D01*
G01X66557D02*
Y45112D01*
X66237Y44612D01*
G01Y42612D02*
X66877D01*
G01X75273Y73757D02*
X72773D01*
Y74423D01*
X72898Y74637D01*
X73065Y74770D01*
X73398Y74823D01*
X73731Y74770D01*
X73940Y74610D01*
X74065Y74423D01*
Y73757D01*
G01Y74423D02*
X75273Y74823D01*
G01Y76490D02*
X72773D01*
X73273Y76170D01*
G01X75273D02*
Y76810D01*
G01X69978Y74686D02*
X69853Y74526D01*
X69770Y74339D01*
Y74126D01*
X69895Y73886D01*
X70103Y73699D01*
X70353Y73566D01*
X70770Y73459D01*
X71145Y73432D01*
X71520Y73486D01*
X71770Y73566D01*
X72020Y73726D01*
X72187Y73912D01*
X72270Y74099D01*
Y74286D01*
X72187Y74472D01*
X72062Y74632D01*
X71895Y74766D01*
G01X72270Y76246D02*
X71728Y76299D01*
X71270Y76379D01*
X70853Y76486D01*
X70395Y76619D01*
X69770Y76832D01*
Y75766D01*
G01X72092Y67471D02*
Y65679D01*
X72199Y65304D01*
X72412Y65054D01*
X72679Y64971D01*
X72946Y65054D01*
X73159Y65304D01*
X73266Y65679D01*
Y67471D01*
G01X75199Y64971D02*
Y67471D01*
X74212Y65679D01*
X75546D01*
G01X64994Y88267D02*
X62494D01*
Y88933D01*
X62619Y89147D01*
X62786Y89280D01*
X63119Y89333D01*
X63452Y89280D01*
X63661Y89120D01*
X63786Y88933D01*
Y88267D01*
G01Y88933D02*
X64994Y89333D01*
G01X64619Y90413D02*
X64827Y90573D01*
X64952Y90760D01*
X64994Y91000D01*
X64911Y91240D01*
X64744Y91427D01*
X64452Y91560D01*
X64119Y91587D01*
X63786Y91533D01*
X63577Y91400D01*
X63411Y91213D01*
X63369Y91027D01*
X63411Y90840D01*
X63577Y90600D01*
X62494Y90680D01*
Y91400D01*
G01X75160Y96062D02*
X74947Y96104D01*
X74760Y96270D01*
X74600Y96520D01*
X74493Y96812D01*
X74440Y97145D01*
Y97479D01*
X74493Y97812D01*
X74600Y98104D01*
X74760Y98354D01*
X74947Y98520D01*
X75160Y98562D01*
X75373Y98520D01*
X75560Y98354D01*
X75720Y98104D01*
X75827Y97812D01*
X75880Y97479D01*
Y97145D01*
X75827Y96812D01*
X75720Y96520D01*
X75560Y96270D01*
X75373Y96104D01*
X75160Y96062D01*
G01X75373Y96729D02*
X75693Y96062D01*
G01X77360D02*
Y98562D01*
X77040Y98062D01*
G01Y96062D02*
X77680D01*
G01X81645Y10899D02*
X81485Y11024D01*
X81298Y11107D01*
X81085D01*
X80845Y10982D01*
X80658Y10774D01*
X80525Y10524D01*
X80418Y10107D01*
X80391Y9732D01*
X80445Y9357D01*
X80525Y9107D01*
X80685Y8857D01*
X80871Y8690D01*
X81058Y8607D01*
X81245D01*
X81431Y8690D01*
X81591Y8815D01*
X81725Y8982D01*
G01X83258Y8607D02*
X83445Y8649D01*
X83658Y8774D01*
X83791Y8982D01*
X83845Y9274D01*
X83791Y9565D01*
X83631Y9815D01*
X83391Y9940D01*
X83125D01*
X82965Y10024D01*
X82831Y10232D01*
X82778Y10524D01*
X82858Y10815D01*
X83045Y11024D01*
X83258Y11107D01*
X83471Y11024D01*
X83658Y10815D01*
X83738Y10524D01*
X83685Y10232D01*
X83551Y10024D01*
X83391Y9940D01*
X83125D01*
X82885Y9815D01*
X82725Y9565D01*
X82671Y9274D01*
X82725Y8982D01*
X82858Y8774D01*
X83071Y8649D01*
X83258Y8607D01*
G01X91674Y5077D02*
X91549Y4917D01*
X91466Y4730D01*
Y4517D01*
X91591Y4277D01*
X91799Y4090D01*
X92049Y3957D01*
X92466Y3850D01*
X92841Y3823D01*
X93216Y3877D01*
X93466Y3957D01*
X93716Y4117D01*
X93883Y4303D01*
X93966Y4490D01*
Y4677D01*
X93883Y4863D01*
X93758Y5023D01*
X93591Y5157D01*
G01X93466Y6103D02*
X93758Y6263D01*
X93924Y6477D01*
X93966Y6717D01*
X93924Y6930D01*
X93716Y7143D01*
X93466Y7277D01*
X93216Y7303D01*
X92924Y7250D01*
X92716Y7063D01*
X92633Y6877D01*
Y6637D01*
G01Y6877D02*
X92508Y7037D01*
X92299Y7170D01*
X92049Y7223D01*
X91799Y7170D01*
X91591Y7037D01*
X91466Y6797D01*
X91508Y6557D01*
X91674Y6317D01*
G01X81902Y6000D02*
X81742Y6125D01*
X81555Y6208D01*
X81342D01*
X81102Y6083D01*
X80915Y5875D01*
X80782Y5625D01*
X80675Y5208D01*
X80648Y4833D01*
X80702Y4458D01*
X80782Y4208D01*
X80942Y3958D01*
X81128Y3791D01*
X81315Y3708D01*
X81502D01*
X81688Y3791D01*
X81848Y3916D01*
X81982Y4083D01*
G01X83515Y3708D02*
Y6208D01*
X83195Y5708D01*
G01Y3708D02*
X83835D01*
G01X80078Y17528D02*
Y20028D01*
X80612D01*
X80825Y19903D01*
X80985Y19736D01*
X81118Y19486D01*
X81225Y19195D01*
X81252Y18778D01*
X81225Y18361D01*
X81118Y18070D01*
X80985Y17820D01*
X80825Y17653D01*
X80612Y17528D01*
X80078D01*
G01X82278Y18028D02*
X82438Y17736D01*
X82652Y17570D01*
X82892Y17528D01*
X83105Y17570D01*
X83318Y17778D01*
X83452Y18028D01*
X83478Y18278D01*
X83425Y18570D01*
X83238Y18778D01*
X83052Y18861D01*
X82812D01*
G01X83052D02*
X83212Y18986D01*
X83345Y19195D01*
X83398Y19445D01*
X83345Y19695D01*
X83212Y19903D01*
X82972Y20028D01*
X82732Y19986D01*
X82492Y19820D01*
G01X92074Y17192D02*
Y19692D01*
X92740D01*
X92954Y19567D01*
X93087Y19400D01*
X93140Y19067D01*
X93087Y18734D01*
X92927Y18525D01*
X92740Y18400D01*
X92074D01*
G01X92740D02*
X93140Y17192D01*
G01X94754D02*
X94807Y17734D01*
X94887Y18192D01*
X94994Y18609D01*
X95127Y19067D01*
X95340Y19692D01*
X94274D01*
G01X93205Y23292D02*
X93045Y23417D01*
X92858Y23500D01*
X92645D01*
X92405Y23375D01*
X92218Y23167D01*
X92085Y22917D01*
X91978Y22500D01*
X91951Y22125D01*
X92005Y21750D01*
X92085Y21500D01*
X92245Y21250D01*
X92431Y21083D01*
X92618Y21000D01*
X92805D01*
X92991Y21083D01*
X93151Y21208D01*
X93285Y21375D01*
G01X94311Y23083D02*
X94471Y23333D01*
X94658Y23458D01*
X94871Y23500D01*
X95138Y23417D01*
X95325Y23208D01*
X95378Y22958D01*
X95351Y22708D01*
X95245Y22500D01*
X94711Y22083D01*
X94471Y21792D01*
X94311Y21375D01*
X94258Y21000D01*
X95378D01*
G01X86860Y67594D02*
Y70094D01*
X87526D01*
X87740Y69969D01*
X87873Y69802D01*
X87926Y69469D01*
X87873Y69136D01*
X87713Y68927D01*
X87526Y68802D01*
X86860D01*
G01X87526D02*
X87926Y67594D01*
G01X89086Y69677D02*
X89246Y69927D01*
X89433Y70052D01*
X89646Y70094D01*
X89913Y70011D01*
X90100Y69802D01*
X90153Y69552D01*
X90126Y69302D01*
X90020Y69094D01*
X89486Y68677D01*
X89246Y68386D01*
X89086Y67969D01*
X89033Y67594D01*
X90153D01*
G01X78048Y64993D02*
X79840D01*
X80215Y65100D01*
X80465Y65313D01*
X80548Y65580D01*
X80465Y65847D01*
X80215Y66060D01*
X79840Y66167D01*
X78048D01*
G01X78465Y67273D02*
X78215Y67433D01*
X78090Y67620D01*
X78048Y67833D01*
X78131Y68100D01*
X78340Y68287D01*
X78590Y68340D01*
X78840Y68313D01*
X79048Y68207D01*
X79465Y67673D01*
X79756Y67433D01*
X80173Y67273D01*
X80548Y67220D01*
Y68340D01*
G01X98610Y22082D02*
X98743Y21832D01*
X98903Y21665D01*
X99090Y21582D01*
X99303Y21665D01*
X99463Y21832D01*
X99623Y22082D01*
X99676Y22415D01*
Y24082D01*
G01X100756Y21957D02*
X100916Y21749D01*
X101103Y21624D01*
X101343Y21582D01*
X101583Y21665D01*
X101770Y21832D01*
X101903Y22124D01*
X101930Y22457D01*
X101876Y22790D01*
X101743Y22999D01*
X101556Y23165D01*
X101370Y23207D01*
X101183Y23165D01*
X100943Y22999D01*
X101023Y24082D01*
X101743D01*
G01X105175Y16430D02*
Y14638D01*
X105282Y14263D01*
X105495Y14013D01*
X105762Y13930D01*
X106029Y14013D01*
X106242Y14263D01*
X106349Y14638D01*
Y16430D01*
G01X107962Y13930D02*
Y16430D01*
X107642Y15930D01*
G01Y13930D02*
X108282D01*
G01X106740Y70031D02*
X106580Y70156D01*
X106393Y70239D01*
X106180D01*
X105940Y70114D01*
X105753Y69906D01*
X105620Y69656D01*
X105513Y69239D01*
X105486Y68864D01*
X105540Y68489D01*
X105620Y68239D01*
X105780Y67989D01*
X105966Y67822D01*
X106153Y67739D01*
X106340D01*
X106526Y67822D01*
X106686Y67947D01*
X106820Y68114D01*
G01X107846Y68781D02*
X108033Y69072D01*
X108193Y69239D01*
X108406Y69322D01*
X108593Y69239D01*
X108726Y69072D01*
X108833Y68822D01*
X108860Y68531D01*
X108833Y68281D01*
X108726Y68031D01*
X108566Y67822D01*
X108380Y67739D01*
X108166Y67822D01*
X107980Y68072D01*
X107873Y68447D01*
X107846Y68864D01*
X107900Y69406D01*
X107980Y69697D01*
X108113Y69989D01*
X108300Y70197D01*
X108486Y70239D01*
X108673Y70156D01*
X108806Y69947D01*
G01X102103Y96383D02*
Y94591D01*
X102210Y94216D01*
X102423Y93966D01*
X102690Y93883D01*
X102957Y93966D01*
X103170Y94216D01*
X103277Y94591D01*
Y96383D01*
G01X104303Y94383D02*
X104463Y94091D01*
X104677Y93925D01*
X104917Y93883D01*
X105130Y93925D01*
X105343Y94133D01*
X105477Y94383D01*
X105503Y94633D01*
X105450Y94925D01*
X105263Y95133D01*
X105077Y95216D01*
X104837D01*
G01X105077D02*
X105237Y95341D01*
X105370Y95550D01*
X105423Y95800D01*
X105370Y96050D01*
X105237Y96258D01*
X104997Y96383D01*
X104757Y96341D01*
X104517Y96175D01*
G54D26*
X81174Y27939D03*
Y61955D03*
G54D17*
X43210Y6656D03*
Y33816D03*
X45180Y6656D03*
X47150D03*
X49120D03*
X51090D03*
X53060D03*
X55020D03*
X56990D03*
X58960D03*
X60930D03*
X47150Y33816D03*
X45180D03*
X60930D03*
X58960D03*
X56990D03*
X55020D03*
X53060D03*
X51090D03*
X49120D03*
X62900Y6656D03*
X64870D03*
Y33816D03*
X62900D03*
X85063Y74063D03*
X87033D03*
X89003D03*
X90973D03*
X92943D03*
X94913D03*
Y93748D03*
X92943D03*
X90973D03*
X89003D03*
X87033D03*
X85063D03*
X96883Y74063D03*
Y93748D03*
G54D36*
G01X8036Y3440D02*
X5477D01*
Y6590D01*
X12169D01*
Y3440D01*
X8036D01*
G01X17034Y5017D02*
X18608Y3442D01*
Y6592D01*
X17034Y5017D01*
G01X16246Y2655D02*
X12703D01*
Y7379D01*
X22939D01*
Y2655D01*
X16246D01*
G01X26040Y3351D02*
X24268D01*
G02X23481Y4139I0J787D01*
G01Y4926D01*
G01D02*
Y5713D01*
G02X24268Y6501I787J1D01*
G01X26040D01*
G01X18449Y57473D02*
Y60032D01*
X21599D01*
Y53340D01*
X18449D01*
Y57473D01*
G01X19025Y63678D02*
X20797D01*
G02X21584Y62890I0J-787D01*
G01Y62103D01*
G01X17451Y60528D02*
X15679D01*
G02X14892Y61316I0J787D01*
G01Y62890D01*
G02X15679Y63678I787J1D01*
G01X17451D01*
G01X21584Y62103D02*
Y61316D01*
G02X20797Y60528I-787J-1D01*
G01X19025D01*
G01X27614Y6501D02*
X29386D01*
G02X30173Y5713I0J-787D01*
G01Y4139D01*
G02X29386Y3351I-787J-1D01*
G01X27614D01*
G01X45114Y45730D02*
Y43171D01*
X41964D01*
Y49863D01*
X45114D01*
Y45730D01*
G01X41846Y39186D02*
X40074D01*
G02X39287Y39974I0J787D01*
G01Y41548D01*
G02X40074Y42336I787J1D01*
G01X41846D01*
G01X36593Y81271D02*
X33050D01*
Y85995D01*
X43286D01*
Y81271D01*
X36593D01*
G01X36688Y78207D02*
Y80766D01*
X39838D01*
Y74074D01*
X36688D01*
Y78207D01*
G01X33026Y78080D02*
Y79852D01*
G02X33814Y80639I787J0D01*
G01X34601D01*
G01X36176Y76506D02*
Y74734D01*
G02X35388Y73947I-787J0D01*
G01X33814D01*
G02X33026Y74734I-1J787D01*
G01Y76506D01*
G01X34601Y80639D02*
X35388D01*
G02X36176Y79852I1J-787D01*
G01Y78080D01*
G01X26787Y77942D02*
Y79714D01*
G02X27575Y80501I787J0D01*
G01X28362D01*
G01X29937Y76368D02*
Y74596D01*
G02X29149Y73809I-787J0D01*
G01X27575D01*
G02X26787Y74596I-1J787D01*
G01Y76368D01*
G01X28362Y80501D02*
X29149D01*
G02X29937Y79714I1J-787D01*
G01Y77942D01*
G01X40330Y78094D02*
Y79866D01*
G02X41118Y80653I787J0D01*
G01X41905D01*
G01X43480Y76520D02*
Y74748D01*
G02X42692Y73961I-787J0D01*
G01X41118D01*
G02X40330Y74748I-1J787D01*
G01Y76520D01*
G01X41905Y80653D02*
X42692D01*
G02X43480Y79866I1J-787D01*
G01Y78094D01*
G01X37381Y83633D02*
X38955Y82058D01*
Y85208D01*
X37381Y83633D01*
G01X28360Y81413D02*
X25801D01*
Y84563D01*
X32493D01*
Y81413D01*
X28360D01*
G01X56239Y38861D02*
X53680D01*
Y42011D01*
X60372D01*
Y38861D01*
X56239D01*
G01X43420Y42336D02*
X45192D01*
G02X45979Y41548I0J-787D01*
G01Y40761D01*
G01D02*
Y39974D01*
G02X45192Y39186I-787J-1D01*
G01X43420D01*
G01X49071Y39139D02*
X47299D01*
G02X46512Y39927I0J787D01*
G01Y40714D01*
G01X50645Y42289D02*
X52417D01*
G02X53204Y41501I0J-787D01*
G01Y39927D01*
G02X52417Y39139I-787J-1D01*
G01X50645D01*
G01X46512Y40714D02*
Y41501D01*
G02X47299Y42289I787J1D01*
G01X49071D01*
G01X58467Y76181D02*
Y77953D01*
G02X59255Y78740I787J0D01*
G01X60042D01*
G01X61617Y74607D02*
Y72835D01*
G02X60829Y72048I-787J0D01*
G01X59255D01*
G02X58467Y72835I-1J787D01*
G01Y74607D01*
G01X60042Y78740D02*
X60829D01*
G02X61617Y77953I1J-787D01*
G01Y76181D01*
G01X54798Y76208D02*
Y77980D01*
G02X55586Y78767I787J0D01*
G01X56373D01*
G01X57948Y74634D02*
Y72862D01*
G02X57160Y72075I-787J0D01*
G01X55586D01*
G02X54798Y72862I-1J787D01*
G01Y74634D01*
G01X56373Y78767D02*
X57160D01*
G02X57948Y77980I1J-787D01*
G01Y76208D01*
G01X62044Y89039D02*
Y86480D01*
X58894D01*
Y93172D01*
X62044D01*
Y89039D01*
G01X59491Y85933D02*
X62050D01*
Y82783D01*
X55358D01*
Y85933D01*
X59491D01*
G01X56046Y93254D02*
X44628D01*
Y86954D01*
X56046D01*
Y93254D01*
G01X75841Y5975D02*
X73282D01*
Y9125D01*
X79974D01*
Y5975D01*
X75841D01*
G01X75836Y9612D02*
X74064D01*
G02X73277Y10400I0J787D01*
G01Y11974D01*
G02X74064Y12762I787J1D01*
G01X75836D01*
G01X79969Y11187D02*
Y10400D01*
G02X79182Y9612I-787J-1D01*
G01X77410D01*
G01X77376Y16396D02*
X79935D01*
Y13246D01*
X73243D01*
Y16396D01*
X77376D01*
G01X75902Y23010D02*
X77674D01*
G02X78461Y22222I0J-787D01*
G01Y21435D01*
G01X74328Y19860D02*
X72556D01*
G02X71769Y20648I0J787D01*
G01Y22222D01*
G02X72556Y23010I787J1D01*
G01X74328D01*
G01X78461Y21435D02*
Y20648D01*
G02X77674Y19860I-787J-1D01*
G01X75902D01*
G01X77410Y12762D02*
X79182D01*
G02X79969Y11974I0J-787D01*
G01Y11187D01*
G01X63441Y38783D02*
X61669D01*
G02X60882Y39571I0J787D01*
G01Y40358D01*
G01X65015Y41933D02*
X66787D01*
G02X67574Y41145I0J-787D01*
G01Y39571D01*
G02X66787Y38783I-787J-1D01*
G01X65015D01*
G01X60882Y40358D02*
Y41145D01*
G02X61669Y41933I787J1D01*
G01X63441D01*
G01X68884Y74667D02*
Y72108D01*
X65734D01*
Y78800D01*
X68884D01*
Y74667D01*
G01X62077Y76240D02*
Y78012D01*
G02X62865Y78799I787J0D01*
G01X63652D01*
G01X65227Y74666D02*
Y72894D01*
G02X64439Y72107I-787J0D01*
G01X62865D01*
G02X62077Y72894I-1J787D01*
G01Y74666D01*
G01X63652Y78799D02*
X64439D01*
G02X65227Y78012I1J-787D01*
G01Y76240D01*
G01X65153Y87319D02*
X76571D01*
Y93619D01*
X65153D01*
Y87319D01*
G01X87851Y7769D02*
Y9541D01*
G02X88639Y10328I787J0D01*
G01X89426D01*
G01X91001Y6195D02*
Y4423D01*
G02X90213Y3636I-787J0D01*
G01X88639D01*
G02X87851Y4423I-1J787D01*
G01Y6195D01*
G01X89426Y10328D02*
X90213D01*
G02X91001Y9541I1J-787D01*
G01Y7769D01*
G01X84152D02*
Y9541D01*
G02X84940Y10328I787J0D01*
G01X85727D01*
G01X87302Y6195D02*
Y4423D01*
G02X86514Y3636I-787J0D01*
G01X84940D01*
G02X84152Y4423I-1J787D01*
G01Y6195D01*
G01X85727Y10328D02*
X86514D01*
G02X87302Y9541I1J-787D01*
G01Y7769D01*
G01X86977Y14070D02*
X85403Y15645D01*
Y12495D01*
X86977Y14070D01*
G01X87765Y16432D02*
X91308D01*
Y11708D01*
X81072D01*
Y16432D01*
X87765D01*
G01X87023Y16955D02*
X84464D01*
Y20105D01*
X91156D01*
Y16955D01*
X87023D01*
G01X87074Y20678D02*
X85302D01*
G02X84515Y21466I0J787D01*
G01Y22253D01*
G01X88648Y23828D02*
X90420D01*
G02X91207Y23040I0J-787D01*
G01Y21466D01*
G02X90420Y20678I-787J-1D01*
G01X88648D01*
G01X84515Y22253D02*
Y23040D01*
G02X85302Y23828I787J1D01*
G01X87074D01*
G01X95075Y70256D02*
X97634D01*
Y67106D01*
X90942D01*
Y70256D01*
X95075D01*
G01X102317Y70463D02*
X104089D01*
G02X104876Y69675I0J-787D01*
G01Y68888D01*
G01X100743Y67313D02*
X98971D01*
G02X98184Y68101I0J787D01*
G01Y69675D01*
G02X98971Y70463I787J1D01*
G01X100743D01*
G01X104876Y68888D02*
Y68101D01*
G02X104089Y67313I-787J-1D01*
G01X102317D01*
G54D18*
X54040Y20236D03*
G54D27*
X78713Y34612D03*
Y36581D03*
Y38549D03*
Y40518D03*
Y42486D03*
Y44455D03*
Y46423D03*
Y52329D03*
Y54297D03*
Y56266D03*
Y48392D03*
Y50360D03*
X83831Y37565D03*
Y35597D03*
Y33628D03*
Y45439D03*
Y43471D03*
Y41502D03*
Y39534D03*
Y55282D03*
Y53313D03*
Y51345D03*
Y49376D03*
Y47408D03*
G54D37*
G01X3000Y0D02*
X107000D01*
G03X110000Y3000I0J3000D01*
G01Y97000D01*
G03X107000Y100000I-3000J0D01*
G01X3000D01*
G03X0Y97000I0J-3000D01*
G01Y3000D01*
G03X3000Y0I3000J0D01*
G01X3042Y52600D02*
X13771D01*
G01X3042Y59932D02*
Y52600D01*
G01Y97589D02*
X13771D01*
G01X3042D02*
Y90257D01*
G01X13771Y59932D02*
Y52600D01*
G01Y97589D02*
Y90257D01*
G54D28*
X95455Y5255D03*
Y14311D03*
X102935Y5255D03*
X99195Y14311D03*
X102935D03*
G54D19*
X43134Y57219D03*
X27386Y63124D03*
Y61156D03*
Y59187D03*
Y57250D03*
X43134Y59187D03*
Y61156D03*
Y63124D03*
X27386Y67061D03*
Y65093D03*
X43134D03*
Y67061D03*
G54D38*
G01X105101Y10570D02*
X93289D01*
Y8996D01*
X105101D01*
Y10570D01*
G01X104116Y19232D02*
G03I-984J0D01*
G54D29*
X99087Y27939D03*
Y61955D03*
G54D39*
G01X23315Y82183D02*
G03I-2165J0D01*
G01X23248Y88554D02*
G03I-2165J0D01*
G01X39188Y93756D02*
G03I-2165J0D01*
G01X32315Y93754D02*
G03I-2165J0D01*
G01X72090Y35408D02*
G03I-2165J0D01*
G01X107774Y22314D02*
G03I-2165J0D01*
M02*
