G04 ================== begin FILE IDENTIFICATION RECORD ==================*
G04 Layout Name:  Templet_16xB.brd*
G04 Film Name:    BOTTOM*
G04 File Format:  Gerber RS274X*
G04 File Origin:  Cadence Allegro 16.6-P004*
G04 Origin Date:  Wed Feb 23 17:51:21 2022*
G04 *
G04 Layer:  BOARD GEOMETRY/OUTLINE*
G04 Layer:  ETCH/BOTTOM*
G04 Layer:  PIN/BOTTOM*
G04 Layer:  VIA CLASS/BOTTOM*
G04 *
G04 Offset:    (0.00 0.00)*
G04 Mirror:    No*
G04 Mode:      Positive*
G04 Rotation:  0*
G04 FullContactRelief:  No*
G04 UndefLineWidth:     6.00*
G04 ================== end FILE IDENTIFICATION RECORD ====================*
%FSLAX25Y25*MOIN*%
%IR0*IPPOS*OFA0.00000B0.00000*MIA0B0*SFA1.00000B1.00000*%
%ADD13R,.1063X.05512*%
%ADD10R,.03937X.10236*%
%ADD16R,.06693X.10236*%
%ADD15R,.04724X.04724*%
%ADD11C,.01969*%
%ADD12R,.01969X.01969*%
%ADD18O,.09055X.03937*%
%ADD17O,.07874X.03937*%
%ADD14R,.02756X.07874*%
%ADD19C,.01*%
%ADD20C,.04*%
%ADD21C,.004*%
%ADD22C,.006*%
%ADD23C,.008*%
%ADD25C,.03572*%
%ADD24O,.11058X.0594*%
G75*
%LPD*%
G75*
G36*
G01X3000Y1001D02*
G02X1001Y3000I0J1999D01*
G01Y97000D01*
G02X3000Y98999I1999J0D01*
G01X107000D01*
G02X108999Y97000I0J-1999D01*
G01Y19149D01*
G02X108304Y18880I-400J1D01*
G03X105229Y18009I-1320J-1204D01*
G01X105218Y17948D01*
X96634Y9364D01*
X73408D01*
G02X73104Y10025I0J400D01*
G03X70954Y9587I-1356J1162D01*
G02X71059Y8946I-178J-358D01*
G01X70927Y8814D01*
X70829Y8828D01*
G03X72371Y6979I-242J-1770D01*
G02X72771Y7362I400J-17D01*
G01X80242D01*
G02X80629Y6860I0J-400D01*
G03X81305Y4961I1727J-455D01*
G02X81316Y4323I-235J-323D01*
G03X81131Y1678I1102J-1406D01*
G02X80843Y1001I-288J-277D01*
G01X57610D01*
G02X57264Y1602I0J400D01*
G03X57484Y2227I-1545J895D01*
G02X58131Y2477I395J-61D01*
G03X60177Y2339I1121J1390D01*
G02X60698Y2245I207J-342D01*
G03X63868Y3591I1400J1108D01*
G01X63855Y3689D01*
X67822Y7656D01*
Y26557D01*
X72162Y30897D01*
X72246Y30896D01*
G03X70537Y32243I22J1786D01*
G01X70565Y32133D01*
X65818Y27387D01*
Y8486D01*
X65547Y8215D01*
G02X64864Y8497I-283J283D01*
G01Y36910D01*
X68756Y40802D01*
G02X69438Y40490I283J-283D01*
G03X71087Y42139I1781J-132D01*
G02X70775Y42821I-29J399D01*
G01X73100Y45145D01*
G02X73654Y45156I283J-283D01*
G03X75109Y44697I1213J1311D01*
G01X75207Y44711D01*
X78672Y41246D01*
X86983D01*
G03X90232Y42489I1479J1001D01*
G01X90218Y42587D01*
X92364Y44732D01*
Y62791D01*
X89986Y65168D01*
Y67495D01*
G03X87853Y70355I-1001J1479D01*
G02X87291Y70409I-254J309D01*
G03X84916Y67789I-1374J-1141D01*
G01Y65033D01*
G02X84353Y64667I-400J0D01*
G03X83142Y64925I-1211J-2712D01*
G01X79206D01*
G03X77765Y64553I-2J-2970D01*
G02X77172Y64902I-193J350D01*
G01Y70516D01*
G03X74680Y73043I-1391J1120D01*
G02X74034Y73358I-246J315D01*
G01Y76098D01*
X75079D01*
G02X75479Y75693I0J-400D01*
G03X77023Y77438I1786J-25D01*
G01X76925Y77424D01*
X76248Y78102D01*
X61586D01*
X58688Y80999D01*
X58702Y81097D01*
G03X57174Y79569I-1770J242D01*
G01X57272Y79583D01*
X58832Y78022D01*
G02X58550Y77340I-283J-282D01*
G01X54301D01*
G02X53903Y77773I0J400D01*
G03X50343I-1780J151D01*
G02X49945Y77340I-398J-33D01*
G01X47354D01*
Y69160D01*
X47128D01*
X47103Y69167D01*
G02X46969Y69207I505J1937D01*
G03X46842Y69228I-128J-379D01*
G02X46442Y69628I0J400D01*
G01Y71104D01*
X44475Y73070D01*
G02X44782Y73752I283J283D01*
G03X43107Y75427I108J1783D01*
G02X42425Y75120I-399J-24D01*
G01X30152Y87394D01*
X29753D01*
G03X28086Y84616I-1479J-1002D01*
G02X28230Y84305I-22J-199D01*
G03X28199Y84227I166J-111D01*
G01X28170Y84060D01*
X24558D01*
Y84066D01*
X20896D01*
Y84082D01*
X17260D01*
Y84108D01*
X13568D01*
Y84132D01*
X9994D01*
Y84043D01*
X9497D01*
Y84310D01*
X9538Y84364D01*
G03X6529Y84626I-1422J1081D01*
G02X6330Y84075I-356J-183D01*
G01Y83558D01*
X4918D01*
X3448Y82088D01*
Y74068D01*
X6796Y70720D01*
Y57772D01*
X10828Y53740D01*
X18479D01*
G02X18759Y53054I0J-400D01*
G03X21263I1252J-1274D01*
G02X21543Y53740I280J286D01*
G01X27723D01*
X30678Y56694D01*
Y61206D01*
X44438D01*
Y53781D01*
X44825Y53395D01*
X44587Y53157D01*
X44463Y53211D01*
G03X45421Y50940I-712J-1638D01*
G02X46024Y51126I374J-142D01*
G03X48422Y53729I1021J1465D01*
G02X48730Y54384I308J255D01*
G01X66868D01*
Y46219D01*
G03X67605Y43302I1302J-1223D01*
G02X67761Y42640I-127J-379D01*
G01X62862Y37740D01*
Y8633D01*
X59800Y5571D01*
X59690Y5599D01*
G03X57488Y4137I-437J-1732D01*
G02X56841Y3887I-395J61D01*
G03X54960Y4114I-1122J-1390D01*
G02X54700Y4198I-85J181D01*
G03X51525Y4110I-1565J-860D01*
G02X51269Y4012I-180J87D01*
G03X49833Y3971I-671J-1655D01*
G02X49571Y4057I-86J181D01*
G03X46412Y4036I-1574J-844D01*
G02X46141Y3951I-178J92D01*
G03X44504Y3970I-837J-1578D01*
G02X43991Y4106I-180J357D01*
G03X41399Y1716I-1489J-985D01*
G02X41152Y1001I-247J-315D01*
G01X3000D01*
G37*
G36*
G01X19031Y73325D02*
X22874Y69483D01*
Y61206D01*
X28074D01*
Y57772D01*
X26645Y56342D01*
X11906D01*
X9398Y58850D01*
Y71798D01*
X6050Y75146D01*
Y80471D01*
X9994D01*
Y77014D01*
X10780D01*
Y75726D01*
X10765Y75690D01*
G03X11060Y73874I1659J-662D01*
G01Y70684D01*
X9882D01*
Y61206D01*
X18572D01*
Y70684D01*
X17394D01*
Y71911D01*
X16478Y72827D01*
Y73487D01*
G03X16785Y73751I-1004J1478D01*
G02X17355Y73768I293J-272D01*
G03X18927Y73305I1234J1291D01*
G01X19031Y73325D01*
G37*
G36*
G01X49355Y56385D02*
Y56759D01*
X49406Y56816D01*
G03X49355Y59517I-1481J1323D01*
G01Y71029D01*
X49362Y71055D01*
G03Y71995I-1723J470D01*
G01X49355Y72021D01*
Y75338D01*
X72032D01*
Y62374D01*
G03Y59142I1155J-1616D01*
G01Y58289D01*
G03X71180Y56764I1131J-1632D01*
G02X70780Y56385I-399J21D01*
G01X59154D01*
Y58060D01*
X60500D01*
Y69898D01*
X52204D01*
Y58060D01*
X53550D01*
Y56385D01*
X49355D01*
G37*
G36*
G01X79502Y43248D02*
X76623Y46127D01*
X76637Y46225D01*
G03X74317Y48166I-1770J242D01*
G02X73803Y48463I-123J381D01*
G03X73770Y48557I-391J-84D01*
G02X73989Y48842I179J89D01*
G03X76114Y50834I355J1750D01*
G01X76100Y50932D01*
X77172Y52003D01*
Y59008D01*
G02X77765Y59357I400J-1D01*
G03X79206Y58985I1439J2598D01*
G01X83142D01*
G03X83558Y59014I2J2970D01*
G02X84012Y58579I56J-396D01*
G03X88140Y56476I2474J-247D01*
G02X88806Y56177I266J-299D01*
G01Y48410D01*
G02X88416Y48010I-400J0D01*
G03X88748Y44462I46J-1785D01*
G01X88849Y44478D01*
X89063Y44265D01*
X88802Y44003D01*
X88704Y44017D01*
G03X86983Y43248I-242J-1770D01*
G01X79502D01*
G37*
G36*
G01X108330Y3739D02*
G02Y6703I-1346J1482D01*
G03X108599Y6599I269J296D01*
G02X108999Y6199I0J-400D01*
G01Y4243D01*
G02X108599Y3843I-400J0D01*
G03X108330Y3739I0J-400D01*
G37*
G36*
G01X108361Y10087D02*
G02Y13307I-1190J1610D01*
G03X108599Y13228I239J321D01*
G02X108999Y12828I0J-400D01*
G01Y10566D01*
G02X108599Y10166I-400J0D01*
G03X108361Y10087I1J-400D01*
G37*
%LPC*%
G75*
G36*
G01X104026Y78486D02*
G02X106028I1001J1479D01*
G01Y71069D01*
G03X106457Y70670I400J0D01*
G02X104871Y68374I125J-1782D01*
G03X104206Y68542I-383J-115D01*
G01X101271Y65608D01*
G03X101554Y64925I283J-283D01*
G01X101646D01*
G02Y58985I0J-2970D01*
G01X96528D01*
G02X94683Y64282I0J2970D01*
G03X94732Y64863I-249J314D01*
G02X94632Y64984I1325J1197D01*
G03X93984Y64972I-320J-240D01*
G02X93944Y67062I-1468J1017D01*
G03X94592Y67074I320J240D01*
G02X97539Y67058I1468J-1017D01*
G01X99889D01*
X104026Y71195D01*
Y78486D01*
G37*
G36*
G01X58064Y44595D02*
G03X58628Y44538I310J252D01*
G02X58377Y42027I1132J-1381D01*
G03X57813Y42084I-310J-252D01*
G02X55114Y42608I-1132J1381D01*
G03X54482Y42700I-351J-192D01*
G02X54794Y44828I-1255J1271D01*
G03X55426Y44736I351J192D01*
G02X58064Y44595I1255J-1271D01*
G37*
G36*
G01X36689Y37943D02*
G03X36058Y37924I-308J-255D01*
G02X35991Y40118I-1442J1054D01*
G03X36622Y40137I308J255D01*
G02X36689Y37943I1442J-1054D01*
G37*
G36*
G01X43674Y35468D02*
G03X43041Y35404I-292J-273D01*
G02X42822Y37560I-1522J935D01*
G03X43455Y37624I292J273D01*
G02X43674Y35468I1522J-935D01*
G37*
G36*
G01X86041Y28588D02*
G02X83142Y24969I-2898J-649D01*
G01X79206D01*
G02Y30909I0J2970D01*
G01X83142D01*
G02X83558Y30880I2J-2970D01*
G03X84012Y31315I56J396D01*
G02X86439Y29075I2474J246D01*
G03X86041Y28588I-8J-400D01*
G37*
G36*
G01X42978Y19502D02*
Y12386D01*
X30746D01*
Y19502D01*
X34005D01*
G03X34379Y20043I0J400D01*
G02X37719I1670J633D01*
G03X38093Y19502I374J-141D01*
G01X42978D01*
G37*
G36*
G01X30380Y7918D02*
G02X29729Y9438I-1781J137D01*
G03X30380Y9717I252J310D01*
G02X31031Y8197I1781J-137D01*
G03X30380Y7918I-252J-310D01*
G37*
G54D25*
X20362Y23008D03*
X19400Y37292D03*
X16846Y86704D03*
X17392Y93322D03*
X41121Y87400D03*
X36867Y90284D03*
X30328Y90533D03*
X46863Y44765D03*
X73343Y18483D03*
X66257Y80335D03*
X82834Y18279D03*
X67723Y70919D03*
G54D24*
X99087Y27939D03*
%LPD*%
G75*
G54D10*
X3796Y63979D03*
G54D20*
G01X56233Y51274D02*
X56352Y51393D01*
G01D02*
Y63979D01*
G54D11*
X5233Y51021D03*
X8408Y75557D03*
X8116Y85445D03*
X10509Y18456D03*
X9445Y23730D03*
X10384Y14626D03*
X20362Y23008D03*
X9583Y41572D03*
X9645Y45433D03*
X19400Y37292D03*
X9529Y50959D03*
X20011Y51780D03*
X24848Y75215D03*
X15476Y74966D03*
X12424Y75028D03*
X18589Y75059D03*
X21641Y75277D03*
X22669Y96511D03*
X16846Y86704D03*
X17392Y93322D03*
X28599Y8055D03*
X42502Y3120D03*
X32161Y9580D03*
X36049Y20676D03*
X38064Y39083D03*
X41519Y36338D03*
X34616Y38978D03*
X43751Y51573D03*
X31226Y75383D03*
X31511Y78686D03*
X41121Y87400D03*
X36867Y90284D03*
X30328Y90533D03*
X28274Y86392D03*
X55719Y2497D03*
X53135Y3338D03*
X45304Y2373D03*
X47997Y3213D03*
X50597Y2357D03*
X59253Y3867D03*
X54040Y20236D03*
X59760Y43157D03*
X46863Y44765D03*
X56681Y43465D03*
X44977Y36690D03*
X53227Y43971D03*
X47364Y48375D03*
X47925Y58139D03*
X47045Y52591D03*
X47639Y71525D03*
X52123Y77924D03*
X44890Y75535D03*
X53072Y73649D03*
X56932Y81339D03*
X71748Y11187D03*
X70587Y7058D03*
X62098Y3353D03*
X77250Y18330D03*
X73343Y18483D03*
X63581Y43458D03*
X71219Y40358D03*
X68170Y44996D03*
X72268Y32682D03*
X74867Y46467D03*
X73163Y56657D03*
X73187Y60758D03*
X74014Y53716D03*
X74344Y50592D03*
X64555Y70412D03*
X71231Y70897D03*
X66257Y80335D03*
X77265Y75668D03*
X74036Y68501D03*
X75780Y71636D03*
X67723Y70919D03*
X82418Y2917D03*
X82356Y6405D03*
X93658Y18672D03*
X82834Y18279D03*
X86486Y31561D03*
X95900Y33368D03*
X88463Y46225D03*
X88462Y42247D03*
X86486Y58332D03*
X92516Y65989D03*
X85917Y69268D03*
X96060Y66057D03*
X88985Y68974D03*
X80021Y96729D03*
X107172Y5314D03*
X107265Y11605D03*
X106984Y17676D03*
X101006Y33368D03*
X104400Y56627D03*
X98142Y56658D03*
X106582Y68888D03*
X105027Y79965D03*
X106050Y86205D03*
X105863Y93054D03*
X100944Y96853D03*
G54D21*
G01X24848Y75215D02*
X26717Y73346D01*
X34081D01*
X38046Y69381D01*
Y65945D01*
G01X22771Y78735D02*
Y77292D01*
X24848Y75215D01*
G01X15474Y78777D02*
Y74968D01*
X15476Y74966D01*
G01D02*
Y72412D01*
X16392Y71496D01*
Y65945D01*
G01X11781Y78801D02*
Y75671D01*
X12424Y75028D01*
G01D02*
X12062Y74666D01*
Y65945D01*
G01X18589Y75059D02*
X18714D01*
X25054Y68719D01*
Y65945D01*
G01X33716D02*
Y71514D01*
X33316Y71914D01*
X23820D01*
X21641Y74093D01*
Y75277D01*
G01X19109Y78752D02*
Y77809D01*
X21641Y75277D01*
G01X31511Y78686D02*
X26454D01*
X26410Y78730D01*
G01X31511Y78686D02*
X32851D01*
X42376Y69161D01*
Y65945D01*
G01X28274Y86392D02*
X29737D01*
X45440Y70689D01*
Y54196D01*
X47045Y52591D01*
G01X59253Y3867D02*
X59512D01*
X63863Y8218D01*
Y37325D01*
X73005Y46467D01*
X74867D01*
G01X77265Y75668D02*
X75833Y77100D01*
X61171D01*
X56932Y81339D01*
G01X70587Y7058D02*
X71892Y8363D01*
X97049D01*
X106362Y17676D01*
X106984D01*
G01X62098Y3353D02*
X62102D01*
X66820Y8071D01*
Y26972D01*
X72268Y32420D01*
Y32682D01*
G01X88462Y42247D02*
X79087D01*
X74867Y46467D01*
G01X74014Y53716D02*
X74095D01*
X75097Y54718D01*
Y67440D01*
X74036Y68501D01*
G01X74344Y50592D02*
X76170Y52418D01*
Y71246D01*
X75780Y71636D01*
G01X85917Y69268D02*
Y65180D01*
X89807Y61290D01*
Y47569D01*
X88463Y46225D01*
G01X88985Y68974D02*
Y64753D01*
X91362Y62376D01*
Y45147D01*
X88462Y42247D01*
G01X105027Y79965D02*
Y70780D01*
X100304Y66057D01*
X96060D01*
G54D12*
X8116Y82257D03*
Y78713D03*
X11781Y78801D03*
X15474Y78777D03*
X19109Y78752D03*
X22771Y82279D03*
Y78735D03*
X26410Y82274D03*
Y78730D03*
X11781Y82345D03*
X15474Y82321D03*
X19109Y82296D03*
G54D22*
G01X3000Y0D02*
X107000D01*
G03X110000Y3000I0J3000D01*
G01Y97000D01*
G03X107000Y100000I-3000J0D01*
G01X3000D01*
G03X0Y97000I0J-3000D01*
G01Y3000D01*
G03X3000Y0I3000J0D01*
G54D13*
X17572Y15944D03*
X36862D03*
G54D23*
G01X20724Y62435D02*
Y62496D01*
G01X50734Y58059D02*
X50727Y58066D01*
G01X76035Y27939D02*
X81174D01*
G01X68167Y57233D02*
X68170Y57230D01*
G01X70076Y60770D02*
X70128Y60822D01*
G01X93357Y27939D02*
X99087D01*
G01X81174Y24768D02*
Y27939D01*
G01D02*
Y31110D01*
G01Y27939D02*
X86313D01*
G01X93357Y61955D02*
X99087D01*
G01X81174Y58784D02*
Y61955D01*
G01D02*
Y65126D01*
G01X99087Y24768D02*
Y27939D01*
G01D02*
Y31110D01*
G01Y27939D02*
X104817D01*
G01X99087Y58784D02*
Y61955D01*
G01D02*
X104817D01*
G54D14*
X25054Y65945D03*
X20724D03*
X16392D03*
X12062D03*
X42376D03*
X38046D03*
X33716D03*
X29376D03*
G54D15*
X48873Y15945D03*
G54D16*
X56352Y63979D03*
G54D17*
X81174Y27939D03*
Y61955D03*
G54D18*
X99087Y27939D03*
Y61955D03*
G54D19*
G01X8116Y82257D02*
X5457D01*
X4749Y81549D01*
Y74607D01*
X8097Y71259D01*
Y58311D01*
X11367Y55041D01*
X27184D01*
X29376Y57233D01*
Y65945D01*
G01X8116Y82257D02*
Y85445D01*
G01X11781Y82345D02*
X8204D01*
X8116Y82257D01*
G01X20724Y62496D02*
Y65945D01*
G01X15474Y82321D02*
X11805D01*
X11781Y82345D01*
G01X19109Y82296D02*
X15499D01*
X15474Y82321D01*
G01X22771Y82279D02*
X19126D01*
X19109Y82296D01*
G01X26410Y82274D02*
X22776D01*
X22771Y82279D01*
G01X50727Y58066D02*
X47998D01*
X47925Y58139D01*
G01X68170Y57230D02*
Y44996D01*
G01X70807Y57305D02*
X71424Y56688D01*
X73132D01*
X73163Y56657D01*
G01X70128Y60822D02*
X73123D01*
X73187Y60758D01*
M02*
