G04 ================== begin FILE IDENTIFICATION RECORD ==================*
G04 Layout Name:  Templet_16xB.brd*
G04 Film Name:    DRLL*
G04 File Format:  Gerber RS274X*
G04 File Origin:  Cadence Allegro 16.6-P004*
G04 Origin Date:  Wed Feb 23 17:51:21 2022*
G04 *
G04 Layer:  MANUFACTURING/NCDRILL_LEGEND*
G04 Layer:  MANUFACTURING/NCDRILL_FIGURE*
G04 Layer:  MANUFACTURING/NCLEGEND-1-4*
G04 Layer:  BOARD GEOMETRY/OUTLINE*
G04 Layer:  COMPONENT VALUE/ASSEMBLY_EMBEDDED*
G04 *
G04 Offset:    (0.00 0.00)*
G04 Mirror:    No*
G04 Mode:      Positive*
G04 Rotation:  0*
G04 FullContactRelief:  No*
G04 UndefLineWidth:     6.00*
G04 ================== end FILE IDENTIFICATION RECORD ====================*
%FSLAX25Y25*MOIN*%
%IR0*IPPOS*OFA0.00000B0.00000*MIA0B0*SFA1.00000B1.00000*%
%AMMACRO10*
1,1,.006,.005905,0.0*
20,1,.006,.005905,0.0,-.005905,0.0,0.0*
1,1,.006,-.005905,0.0*
1,1,.006,0.0,.005905*
20,1,.006,0.0,.005905,0.0,-.005905,0.0*
1,1,.006,0.0,-.005905*
%
%ADD10MACRO10*%
%AMMACRO13*
1,1,.006,.009845,.009845*
20,1,.006,.009845,.009845,.009845,-.009845,0.0*
1,1,.006,.009845,-.009845*
20,1,.006,.009845,-.009845,-.009845,-.009845,0.0*
1,1,.006,-.009845,-.009845*
20,1,.006,-.009845,-.009845,-.009845,.009845,0.0*
1,1,.006,-.009845,.009845*
20,1,.006,-.009845,.009845,.009845,.009845,0.0*
1,1,.006,.009845,.009845*
%
%ADD13MACRO13*%
%AMMACRO12*
1,1,.006,-.02559,.01181*
20,1,.006,-.02559,.01181,.02559,.01181,0.0*
1,1,.006,.02559,.01181*
20,1,.006,.02559,.01181,.027641,.011631,0.0*
1,1,.006,.027641,.011631*
20,1,.006,.027641,.011631,.029629,.011098,0.0*
1,1,.006,.029629,.011098*
20,1,.006,.029629,.011098,.031495,.010228,0.0*
1,1,.006,.031495,.010228*
20,1,.006,.031495,.010228,.033181,.009047,0.0*
1,1,.006,.033181,.009047*
20,1,.006,.033181,.009047,.034637,.007591,0.0*
1,1,.006,.034637,.007591*
20,1,.006,.034637,.007591,.035818,.005905,0.0*
1,1,.006,.035818,.005905*
20,1,.006,.035818,.005905,.036688,.004039,0.0*
1,1,.006,.036688,.004039*
20,1,.006,.036688,.004039,.037221,.002051,0.0*
1,1,.006,.037221,.002051*
20,1,.006,.037221,.002051,.0374,0.0,0.0*
1,1,.006,.0374,0.0*
20,1,.006,.0374,0.0,.037221,-.002051,0.0*
1,1,.006,.037221,-.002051*
20,1,.006,.037221,-.002051,.036688,-.004039,0.0*
1,1,.006,.036688,-.004039*
20,1,.006,.036688,-.004039,.035818,-.005905,0.0*
1,1,.006,.035818,-.005905*
20,1,.006,.035818,-.005905,.034637,-.007591,0.0*
1,1,.006,.034637,-.007591*
20,1,.006,.034637,-.007591,.033181,-.009047,0.0*
1,1,.006,.033181,-.009047*
20,1,.006,.033181,-.009047,.031495,-.010228,0.0*
1,1,.006,.031495,-.010228*
20,1,.006,.031495,-.010228,.029629,-.011098,0.0*
1,1,.006,.029629,-.011098*
20,1,.006,.029629,-.011098,.027641,-.011631,0.0*
1,1,.006,.027641,-.011631*
20,1,.006,.027641,-.011631,.02559,-.01181,0.0*
1,1,.006,.02559,-.01181*
20,1,.006,.02559,-.01181,-.02559,-.01181,0.0*
1,1,.006,-.02559,-.01181*
20,1,.006,-.02559,-.01181,-.027641,-.011631,0.0*
1,1,.006,-.027641,-.011631*
20,1,.006,-.027641,-.011631,-.029629,-.011098,0.0*
1,1,.006,-.029629,-.011098*
20,1,.006,-.029629,-.011098,-.031495,-.010228,0.0*
1,1,.006,-.031495,-.010228*
20,1,.006,-.031495,-.010228,-.033181,-.009047,0.0*
1,1,.006,-.033181,-.009047*
20,1,.006,-.033181,-.009047,-.034637,-.007591,0.0*
1,1,.006,-.034637,-.007591*
20,1,.006,-.034637,-.007591,-.035818,-.005905,0.0*
1,1,.006,-.035818,-.005905*
20,1,.006,-.035818,-.005905,-.036688,-.004039,0.0*
1,1,.006,-.036688,-.004039*
20,1,.006,-.036688,-.004039,-.037221,-.002051,0.0*
1,1,.006,-.037221,-.002051*
20,1,.006,-.037221,-.002051,-.0374,0.0,0.0*
1,1,.006,-.0374,0.0*
20,1,.006,-.0374,0.0,-.037221,.002051,0.0*
1,1,.006,-.037221,.002051*
20,1,.006,-.037221,.002051,-.036688,.004039,0.0*
1,1,.006,-.036688,.004039*
20,1,.006,-.036688,.004039,-.035818,.005905,0.0*
1,1,.006,-.035818,.005905*
20,1,.006,-.035818,.005905,-.034637,.007591,0.0*
1,1,.006,-.034637,.007591*
20,1,.006,-.034637,.007591,-.033181,.009047,0.0*
1,1,.006,-.033181,.009047*
20,1,.006,-.033181,.009047,-.031495,.010228,0.0*
1,1,.006,-.031495,.010228*
20,1,.006,-.031495,.010228,-.029629,.011098,0.0*
1,1,.006,-.029629,.011098*
20,1,.006,-.029629,.011098,-.027641,.011631,0.0*
1,1,.006,-.027641,.011631*
20,1,.006,-.027641,.011631,-.02559,.01181,0.0*
1,1,.006,-.02559,.01181*
1,1,.006,-.00591,-.0059*
20,1,.006,-.00591,-.0059,-.00748,-.0057,0.0*
1,1,.006,-.00748,-.0057*
20,1,.006,-.00748,-.0057,-.00886,-.00492,0.0*
1,1,.006,-.00886,-.00492*
20,1,.006,-.00886,-.00492,-.01004,-.00373,0.0*
1,1,.006,-.01004,-.00373*
20,1,.006,-.01004,-.00373,-.01083,-.00236,0.0*
1,1,.006,-.01083,-.00236*
20,1,.006,-.01083,-.00236,-.01122,-.00078,0.0*
1,1,.006,-.01122,-.00078*
20,1,.006,-.01122,-.00078,-.01122,.00079,0.0*
1,1,.006,-.01122,.00079*
20,1,.006,-.01122,.00079,-.01083,.00237,0.0*
1,1,.006,-.01083,.00237*
20,1,.006,-.01083,.00237,-.01004,.00374,0.0*
1,1,.006,-.01004,.00374*
20,1,.006,-.01004,.00374,-.00886,.00493,0.0*
1,1,.006,-.00886,.00493*
20,1,.006,-.00886,.00493,-.00748,.00571,0.0*
1,1,.006,-.00748,.00571*
20,1,.006,-.00748,.00571,-.00591,.00591,0.0*
1,1,.006,-.00591,.00591*
20,1,.006,-.00591,.00591,-.00433,.00571,0.0*
1,1,.006,-.00433,.00571*
20,1,.006,-.00433,.00571,-.00295,.00493,0.0*
1,1,.006,-.00295,.00493*
20,1,.006,-.00295,.00493,-.00177,.00374,0.0*
1,1,.006,-.00177,.00374*
20,1,.006,-.00177,.00374,-.00098,.00237,0.0*
1,1,.006,-.00098,.00237*
20,1,.006,-.00098,.00237,-.00059,.00079,0.0*
1,1,.006,-.00059,.00079*
20,1,.006,-.00059,.00079,-.00059,-.00078,0.0*
1,1,.006,-.00059,-.00078*
20,1,.006,-.00059,-.00078,-.00098,-.00236,0.0*
1,1,.006,-.00098,-.00236*
20,1,.006,-.00098,-.00236,-.00177,-.00373,0.0*
1,1,.006,-.00177,-.00373*
20,1,.006,-.00177,-.00373,-.00295,-.00492,0.0*
1,1,.006,-.00295,-.00492*
20,1,.006,-.00295,-.00492,-.00433,-.0057,0.0*
1,1,.006,-.00433,-.0057*
20,1,.006,-.00433,-.0057,-.00591,-.0059,0.0*
1,1,.006,-.00591,-.0059*
1,1,.006,.00749,.0004*
20,1,.006,.00749,.0004,.00828,.00099,0.0*
1,1,.006,.00828,.00099*
20,1,.006,.00828,.00099,.00887,.00197,0.0*
1,1,.006,.00887,.00197*
20,1,.006,.00887,.00197,.00926,.00335,0.0*
1,1,.006,.00926,.00335*
20,1,.006,.00926,.00335,.00887,.00453,0.0*
1,1,.006,.00887,.00453*
20,1,.006,.00887,.00453,.00808,.00532,0.0*
1,1,.006,.00808,.00532*
20,1,.006,.00808,.00532,.0067,.00591,0.0*
1,1,.006,.0067,.00591*
20,1,.006,.0067,.00591,.00139,.00591,0.0*
1,1,.006,.00139,.00591*
20,1,.006,.00139,.00591,.00139,-.0059,0.0*
1,1,.006,.00139,-.0059*
20,1,.006,.00139,-.0059,.00788,-.0059,0.0*
1,1,.006,.00788,-.0059*
20,1,.006,.00788,-.0059,.00926,-.00511,0.0*
1,1,.006,.00926,-.00511*
20,1,.006,.00926,-.00511,.01005,-.00393,0.0*
1,1,.006,.01005,-.00393*
20,1,.006,.01005,-.00393,.01044,-.00255,0.0*
1,1,.006,.01044,-.00255*
20,1,.006,.01044,-.00255,.01005,-.00118,0.0*
1,1,.006,.01005,-.00118*
20,1,.006,.01005,-.00118,.00887,0.0,0.0*
1,1,.006,.00887,0.0*
20,1,.006,.00887,0.0,.00749,.0004,0.0*
1,1,.006,.00749,.0004*
20,1,.006,.00749,.0004,.00139,.0004,0.0*
1,1,.006,.00139,.0004*
%
%ADD12MACRO12*%
%AMMACRO11*
1,1,.006,-.019685,.01181*
20,1,.006,-.019685,.01181,.019685,.01181,0.0*
1,1,.006,.019685,.01181*
20,1,.006,.019685,.01181,.021736,.011631,0.0*
1,1,.006,.021736,.011631*
20,1,.006,.021736,.011631,.023724,.011098,0.0*
1,1,.006,.023724,.011098*
20,1,.006,.023724,.011098,.02559,.010228,0.0*
1,1,.006,.02559,.010228*
20,1,.006,.02559,.010228,.027276,.009047,0.0*
1,1,.006,.027276,.009047*
20,1,.006,.027276,.009047,.028732,.007591,0.0*
1,1,.006,.028732,.007591*
20,1,.006,.028732,.007591,.029913,.005905,0.0*
1,1,.006,.029913,.005905*
20,1,.006,.029913,.005905,.030783,.004039,0.0*
1,1,.006,.030783,.004039*
20,1,.006,.030783,.004039,.031316,.002051,0.0*
1,1,.006,.031316,.002051*
20,1,.006,.031316,.002051,.031495,0.0,0.0*
1,1,.006,.031495,0.0*
20,1,.006,.031495,0.0,.031316,-.002051,0.0*
1,1,.006,.031316,-.002051*
20,1,.006,.031316,-.002051,.030783,-.004039,0.0*
1,1,.006,.030783,-.004039*
20,1,.006,.030783,-.004039,.029913,-.005905,0.0*
1,1,.006,.029913,-.005905*
20,1,.006,.029913,-.005905,.028732,-.007591,0.0*
1,1,.006,.028732,-.007591*
20,1,.006,.028732,-.007591,.027276,-.009047,0.0*
1,1,.006,.027276,-.009047*
20,1,.006,.027276,-.009047,.02559,-.010228,0.0*
1,1,.006,.02559,-.010228*
20,1,.006,.02559,-.010228,.023724,-.011098,0.0*
1,1,.006,.023724,-.011098*
20,1,.006,.023724,-.011098,.021736,-.011631,0.0*
1,1,.006,.021736,-.011631*
20,1,.006,.021736,-.011631,.019685,-.01181,0.0*
1,1,.006,.019685,-.01181*
20,1,.006,.019685,-.01181,-.019685,-.01181,0.0*
1,1,.006,-.019685,-.01181*
20,1,.006,-.019685,-.01181,-.021736,-.011631,0.0*
1,1,.006,-.021736,-.011631*
20,1,.006,-.021736,-.011631,-.023724,-.011098,0.0*
1,1,.006,-.023724,-.011098*
20,1,.006,-.023724,-.011098,-.02559,-.010228,0.0*
1,1,.006,-.02559,-.010228*
20,1,.006,-.02559,-.010228,-.027276,-.009047,0.0*
1,1,.006,-.027276,-.009047*
20,1,.006,-.027276,-.009047,-.028732,-.007591,0.0*
1,1,.006,-.028732,-.007591*
20,1,.006,-.028732,-.007591,-.029913,-.005905,0.0*
1,1,.006,-.029913,-.005905*
20,1,.006,-.029913,-.005905,-.030783,-.004039,0.0*
1,1,.006,-.030783,-.004039*
20,1,.006,-.030783,-.004039,-.031316,-.002051,0.0*
1,1,.006,-.031316,-.002051*
20,1,.006,-.031316,-.002051,-.031495,0.0,0.0*
1,1,.006,-.031495,0.0*
20,1,.006,-.031495,0.0,-.031316,.002051,0.0*
1,1,.006,-.031316,.002051*
20,1,.006,-.031316,.002051,-.030783,.004039,0.0*
1,1,.006,-.030783,.004039*
20,1,.006,-.030783,.004039,-.029913,.005905,0.0*
1,1,.006,-.029913,.005905*
20,1,.006,-.029913,.005905,-.028732,.007591,0.0*
1,1,.006,-.028732,.007591*
20,1,.006,-.028732,.007591,-.027276,.009047,0.0*
1,1,.006,-.027276,.009047*
20,1,.006,-.027276,.009047,-.02559,.010228,0.0*
1,1,.006,-.02559,.010228*
20,1,.006,-.02559,.010228,-.023724,.011098,0.0*
1,1,.006,-.023724,.011098*
20,1,.006,-.023724,.011098,-.021736,.011631,0.0*
1,1,.006,-.021736,.011631*
20,1,.006,-.021736,.011631,-.019685,.01181,0.0*
1,1,.006,-.019685,.01181*
1,1,.006,-.00591,-.0059*
20,1,.006,-.00591,-.0059,-.00748,-.0057,0.0*
1,1,.006,-.00748,-.0057*
20,1,.006,-.00748,-.0057,-.00886,-.00492,0.0*
1,1,.006,-.00886,-.00492*
20,1,.006,-.00886,-.00492,-.01004,-.00373,0.0*
1,1,.006,-.01004,-.00373*
20,1,.006,-.01004,-.00373,-.01083,-.00236,0.0*
1,1,.006,-.01083,-.00236*
20,1,.006,-.01083,-.00236,-.01122,-.00078,0.0*
1,1,.006,-.01122,-.00078*
20,1,.006,-.01122,-.00078,-.01122,.00079,0.0*
1,1,.006,-.01122,.00079*
20,1,.006,-.01122,.00079,-.01083,.00237,0.0*
1,1,.006,-.01083,.00237*
20,1,.006,-.01083,.00237,-.01004,.00374,0.0*
1,1,.006,-.01004,.00374*
20,1,.006,-.01004,.00374,-.00886,.00493,0.0*
1,1,.006,-.00886,.00493*
20,1,.006,-.00886,.00493,-.00748,.00571,0.0*
1,1,.006,-.00748,.00571*
20,1,.006,-.00748,.00571,-.00591,.00591,0.0*
1,1,.006,-.00591,.00591*
20,1,.006,-.00591,.00591,-.00433,.00571,0.0*
1,1,.006,-.00433,.00571*
20,1,.006,-.00433,.00571,-.00295,.00493,0.0*
1,1,.006,-.00295,.00493*
20,1,.006,-.00295,.00493,-.00177,.00374,0.0*
1,1,.006,-.00177,.00374*
20,1,.006,-.00177,.00374,-.00098,.00237,0.0*
1,1,.006,-.00098,.00237*
20,1,.006,-.00098,.00237,-.00059,.00079,0.0*
1,1,.006,-.00059,.00079*
20,1,.006,-.00059,.00079,-.00059,-.00078,0.0*
1,1,.006,-.00059,-.00078*
20,1,.006,-.00059,-.00078,-.00098,-.00236,0.0*
1,1,.006,-.00098,-.00236*
20,1,.006,-.00098,-.00236,-.00177,-.00373,0.0*
1,1,.006,-.00177,-.00373*
20,1,.006,-.00177,-.00373,-.00295,-.00492,0.0*
1,1,.006,-.00295,-.00492*
20,1,.006,-.00295,-.00492,-.00433,-.0057,0.0*
1,1,.006,-.00433,-.0057*
20,1,.006,-.00433,-.0057,-.00591,-.0059,0.0*
1,1,.006,-.00591,-.0059*
1,1,.006,.00099,-.0059*
20,1,.006,.00099,-.0059,.00591,.00591,0.0*
1,1,.006,.00591,.00591*
20,1,.006,.00591,.00591,.01084,-.0059,0.0*
1,1,.006,.01084,-.0059*
1,1,.006,.00906,-.00177*
20,1,.006,.00906,-.00177,.00277,-.00177,0.0*
1,1,.006,.00277,-.00177*
%
%ADD11MACRO11*%
%ADD14C,.015*%
%ADD15C,.006*%
G75*
%LPD*%
G75*
G54D10*
X5233Y51021D03*
X8408Y75557D03*
X8116Y85445D03*
X10509Y18456D03*
X9445Y23730D03*
X10384Y14626D03*
X20362Y23008D03*
X9583Y41572D03*
X9645Y45433D03*
X19400Y37292D03*
X9529Y50959D03*
X20011Y51780D03*
X24848Y75215D03*
X15476Y74966D03*
X12424Y75028D03*
X18589Y75059D03*
X21641Y75277D03*
X22669Y96511D03*
X16846Y86704D03*
X17392Y93322D03*
X28599Y8055D03*
X42502Y3120D03*
X32161Y9580D03*
X36049Y20676D03*
X38064Y39083D03*
X41519Y36338D03*
X34616Y38978D03*
X43751Y51573D03*
X31226Y75383D03*
X31511Y78686D03*
X41121Y87400D03*
X36867Y90284D03*
X30328Y90533D03*
X28274Y86392D03*
X55719Y2497D03*
X53135Y3338D03*
X45304Y2373D03*
X47997Y3213D03*
X50597Y2357D03*
X59253Y3867D03*
X54040Y20236D03*
X59760Y43157D03*
X46863Y44765D03*
X56681Y43465D03*
X44977Y36690D03*
X53227Y43971D03*
X47364Y48375D03*
X47925Y58139D03*
X47045Y52591D03*
X47639Y71525D03*
X52123Y77924D03*
X44890Y75535D03*
X53072Y73649D03*
X56932Y81339D03*
X71748Y11187D03*
X70587Y7058D03*
X62098Y3353D03*
X77250Y18330D03*
X73343Y18483D03*
X63581Y43458D03*
X71219Y40358D03*
X68170Y44996D03*
X72268Y32682D03*
X74867Y46467D03*
X73163Y56657D03*
X73187Y60758D03*
X74014Y53716D03*
X74344Y50592D03*
X64555Y70412D03*
X71231Y70897D03*
X66257Y80335D03*
X77265Y75668D03*
X74036Y68501D03*
X75780Y71636D03*
X67723Y70919D03*
X82418Y2917D03*
X82356Y6405D03*
X93658Y18672D03*
X82834Y18279D03*
X95900Y33368D03*
X88463Y46225D03*
X88462Y42247D03*
X92516Y65989D03*
X85917Y69268D03*
X96060Y66057D03*
X88985Y68974D03*
X80021Y96729D03*
X107172Y5314D03*
X107265Y11605D03*
X106984Y17676D03*
X101006Y33368D03*
X104400Y56627D03*
X98142Y56658D03*
X106582Y68888D03*
X105027Y79965D03*
X106050Y86205D03*
X105863Y93054D03*
X100944Y96853D03*
X187290Y21663D03*
G54D11*
X81174Y27939D03*
Y61955D03*
X187290Y-28337D03*
G54D12*
X99087Y27939D03*
Y61955D03*
X187290Y-53337D03*
G54D13*
X86486Y31561D03*
Y58332D03*
X187290Y-3337D03*
G54D14*
G01X161007Y41163D02*
Y53163D01*
X166073D01*
G01X164207Y47363D02*
X161007D01*
G01X171440Y53163D02*
X174640D01*
G01X173040D02*
Y41163D01*
G01X171440D02*
X174640D01*
G01X183340Y47163D02*
X186007D01*
Y43563D01*
X185207Y42363D01*
X184273Y41563D01*
X182940Y41163D01*
X181607Y41563D01*
X180673Y42363D01*
X179873Y43563D01*
X179340Y44963D01*
X179073Y46563D01*
Y47963D01*
X179340Y49163D01*
X179873Y50563D01*
X180673Y51763D01*
X181473Y52563D01*
X182540Y53163D01*
X183473D01*
X184540Y52763D01*
X185340Y51963D01*
G01X189107Y53163D02*
Y44563D01*
X189640Y42763D01*
X190707Y41563D01*
X192040Y41163D01*
X193373Y41563D01*
X194440Y42763D01*
X194973Y44563D01*
Y53163D01*
G01X198873Y41163D02*
Y53163D01*
X202207D01*
X203273Y52563D01*
X203940Y51763D01*
X204207Y50163D01*
X203940Y48563D01*
X203140Y47563D01*
X202207Y46963D01*
X198873D01*
G01X202207D02*
X204207Y41163D01*
G01X213707D02*
X208373D01*
Y53163D01*
X213707D01*
G01X211573Y47363D02*
X208373D01*
G01X215107Y91163D02*
Y103163D01*
X217773D01*
X218840Y102563D01*
X219640Y101763D01*
X220307Y100563D01*
X220840Y99163D01*
X220973Y97163D01*
X220840Y95163D01*
X220307Y93763D01*
X219640Y92563D01*
X218840Y91763D01*
X217773Y91163D01*
X215107D01*
G01X224873D02*
Y103163D01*
X228207D01*
X229273Y102563D01*
X229940Y101763D01*
X230207Y100163D01*
X229940Y98563D01*
X229140Y97563D01*
X228207Y96963D01*
X224873D01*
G01X228207D02*
X230207Y91163D01*
G01X235440Y103163D02*
X238640D01*
G01X237040D02*
Y91163D01*
G01X235440D02*
X238640D01*
G01X243873Y103163D02*
Y91163D01*
X249207D01*
G01X253373Y103163D02*
Y91163D01*
X258707D01*
G01X277973Y102163D02*
X277173Y102763D01*
X276240Y103163D01*
X275173D01*
X273973Y102563D01*
X273040Y101563D01*
X272373Y100363D01*
X271840Y98363D01*
X271707Y96563D01*
X271973Y94763D01*
X272373Y93563D01*
X273173Y92363D01*
X274107Y91563D01*
X275040Y91163D01*
X275973D01*
X276907Y91563D01*
X277707Y92163D01*
X278373Y92963D01*
G01X281740Y91163D02*
Y103163D01*
G01X287340D02*
Y91163D01*
G01Y97163D02*
X281740D01*
G01X290707Y91163D02*
X294040Y103163D01*
X297373Y91163D01*
G01X296173Y95363D02*
X291907D01*
G01X300873Y91163D02*
Y103163D01*
X304207D01*
X305273Y102563D01*
X305940Y101763D01*
X306207Y100163D01*
X305940Y98563D01*
X305140Y97563D01*
X304207Y96963D01*
X300873D01*
G01X304207D02*
X306207Y91163D01*
G01X313040Y103163D02*
Y91163D01*
G01X309973Y103163D02*
X316107D01*
G01X322540Y90763D02*
X322273Y90963D01*
Y91363D01*
X322540Y91563D01*
X322807Y91363D01*
Y90963D01*
X322540Y90763D01*
G01Y96163D02*
X322273Y96363D01*
Y96763D01*
X322540Y96963D01*
X322807Y96763D01*
Y96363D01*
X322540Y96163D01*
G01X341540Y103163D02*
Y91163D01*
G01X338473Y103163D02*
X344607D01*
G01X351040Y91163D02*
X349973Y91363D01*
X349040Y92163D01*
X348240Y93363D01*
X347707Y94763D01*
X347440Y96363D01*
Y97963D01*
X347707Y99563D01*
X348240Y100963D01*
X349040Y102163D01*
X349973Y102963D01*
X351040Y103163D01*
X352107Y102963D01*
X353040Y102163D01*
X353840Y100963D01*
X354373Y99563D01*
X354640Y97963D01*
Y96363D01*
X354373Y94763D01*
X353840Y93363D01*
X353040Y92163D01*
X352107Y91363D01*
X351040Y91163D01*
G01X357873D02*
Y103163D01*
X361073D01*
X362140Y102563D01*
X362940Y101163D01*
X363207Y99563D01*
X362940Y97963D01*
X362273Y96763D01*
X361073Y96163D01*
X357873D01*
G01X379540Y103163D02*
Y91163D01*
G01X377673Y99163D02*
X381407D01*
G01X389040Y91163D02*
X388240Y91363D01*
X387440Y92163D01*
X386907Y93563D01*
X386640Y95163D01*
X386907Y96763D01*
X387440Y98163D01*
X388240Y98963D01*
X389040Y99163D01*
X389840Y98963D01*
X390640Y98163D01*
X391173Y96763D01*
X391307Y95163D01*
X391173Y93563D01*
X390640Y92163D01*
X389840Y91363D01*
X389040Y91163D01*
G01X409107Y97563D02*
X409640Y98163D01*
X410040Y99163D01*
X410307Y100563D01*
X410040Y101763D01*
X409507Y102563D01*
X408573Y103163D01*
X404973D01*
Y91163D01*
X409373D01*
X410307Y91963D01*
X410840Y93163D01*
X411107Y94563D01*
X410840Y95963D01*
X410040Y97163D01*
X409107Y97563D01*
X404973D01*
G01X417540Y91163D02*
X416473Y91363D01*
X415540Y92163D01*
X414740Y93363D01*
X414207Y94763D01*
X413940Y96363D01*
Y97963D01*
X414207Y99563D01*
X414740Y100963D01*
X415540Y102163D01*
X416473Y102963D01*
X417540Y103163D01*
X418607Y102963D01*
X419540Y102163D01*
X420340Y100963D01*
X420873Y99563D01*
X421140Y97963D01*
Y96363D01*
X420873Y94763D01*
X420340Y93363D01*
X419540Y92163D01*
X418607Y91363D01*
X417540Y91163D01*
G01X427040Y103163D02*
Y91163D01*
G01X423973Y103163D02*
X430107D01*
G01X436540D02*
Y91163D01*
G01X433473Y103163D02*
X439607D01*
G01X446040Y91163D02*
X444973Y91363D01*
X444040Y92163D01*
X443240Y93363D01*
X442707Y94763D01*
X442440Y96363D01*
Y97963D01*
X442707Y99563D01*
X443240Y100963D01*
X444040Y102163D01*
X444973Y102963D01*
X446040Y103163D01*
X447107Y102963D01*
X448040Y102163D01*
X448840Y100963D01*
X449373Y99563D01*
X449640Y97963D01*
Y96363D01*
X449373Y94763D01*
X448840Y93363D01*
X448040Y92163D01*
X447107Y91363D01*
X446040Y91163D01*
G01X452073D02*
Y103163D01*
X455540Y93163D01*
X459007Y103163D01*
Y91163D01*
G01X250273Y-59337D02*
X250540Y-56737D01*
X250940Y-54537D01*
X251473Y-52537D01*
X252140Y-50337D01*
X253207Y-47337D01*
X247873D01*
G01X261640Y-59337D02*
Y-47337D01*
X256707Y-55937D01*
X263373D01*
G01X269540Y-59737D02*
X269273Y-59537D01*
Y-59137D01*
X269540Y-58937D01*
X269807Y-59137D01*
Y-59537D01*
X269540Y-59737D01*
G01X279040Y-59337D02*
X279973Y-59137D01*
X281040Y-58537D01*
X281707Y-57537D01*
X281973Y-56137D01*
X281707Y-54737D01*
X280907Y-53537D01*
X279707Y-52937D01*
X278373D01*
X277573Y-52537D01*
X276907Y-51537D01*
X276640Y-50137D01*
X277040Y-48737D01*
X277973Y-47737D01*
X279040Y-47337D01*
X280107Y-47737D01*
X281040Y-48737D01*
X281440Y-50137D01*
X281173Y-51537D01*
X280507Y-52537D01*
X279707Y-52937D01*
X278373D01*
X277173Y-53537D01*
X276373Y-54737D01*
X276107Y-56137D01*
X276373Y-57537D01*
X277040Y-58537D01*
X278107Y-59137D01*
X279040Y-59337D01*
G01X286540Y-51337D02*
X290540Y-59337D01*
G01Y-51337D02*
X286540Y-59337D01*
G01X295507Y-49337D02*
X296307Y-48137D01*
X297240Y-47537D01*
X298307Y-47337D01*
X299640Y-47737D01*
X300573Y-48737D01*
X300840Y-49937D01*
X300707Y-51137D01*
X300173Y-52137D01*
X297507Y-54137D01*
X296307Y-55537D01*
X295507Y-57537D01*
X295240Y-59337D01*
X300840D01*
G01X304607Y-56937D02*
X305407Y-58337D01*
X306473Y-59137D01*
X307673Y-59337D01*
X308740Y-59137D01*
X309807Y-58137D01*
X310473Y-56937D01*
X310607Y-55737D01*
X310340Y-54337D01*
X309407Y-53337D01*
X308473Y-52937D01*
X307273D01*
G01X308473D02*
X309273Y-52337D01*
X309940Y-51337D01*
X310207Y-50137D01*
X309940Y-48937D01*
X309273Y-47937D01*
X308073Y-47337D01*
X306873Y-47537D01*
X305673Y-48337D01*
G01X317040Y-59737D02*
X316773Y-59537D01*
Y-59137D01*
X317040Y-58937D01*
X317307Y-59137D01*
Y-59537D01*
X317040Y-59737D01*
G01X324007Y-54337D02*
X324940Y-52937D01*
X325740Y-52137D01*
X326807Y-51737D01*
X327740Y-52137D01*
X328407Y-52937D01*
X328940Y-54137D01*
X329073Y-55537D01*
X328940Y-56737D01*
X328407Y-57937D01*
X327607Y-58937D01*
X326673Y-59337D01*
X325607Y-58937D01*
X324673Y-57737D01*
X324140Y-55937D01*
X324007Y-53937D01*
X324273Y-51337D01*
X324673Y-49937D01*
X325340Y-48537D01*
X326273Y-47537D01*
X327207Y-47337D01*
X328140Y-47737D01*
X328807Y-48737D01*
G01X333507Y-49337D02*
X334307Y-48137D01*
X335240Y-47537D01*
X336307Y-47337D01*
X337640Y-47737D01*
X338573Y-48737D01*
X338840Y-49937D01*
X338707Y-51137D01*
X338173Y-52137D01*
X335507Y-54137D01*
X334307Y-55537D01*
X333507Y-57537D01*
X333240Y-59337D01*
X338840D01*
G01X243257Y-29337D02*
X244190Y-27937D01*
X244990Y-27137D01*
X246057Y-26737D01*
X246990Y-27137D01*
X247657Y-27937D01*
X248190Y-29137D01*
X248323Y-30537D01*
X248190Y-31737D01*
X247657Y-32937D01*
X246857Y-33937D01*
X245923Y-34337D01*
X244857Y-33937D01*
X243923Y-32737D01*
X243390Y-30937D01*
X243257Y-28937D01*
X243523Y-26337D01*
X243923Y-24937D01*
X244590Y-23537D01*
X245523Y-22537D01*
X246457Y-22337D01*
X247390Y-22737D01*
X248057Y-23737D01*
G01X252757Y-24337D02*
X253557Y-23137D01*
X254490Y-22537D01*
X255557Y-22337D01*
X256890Y-22737D01*
X257823Y-23737D01*
X258090Y-24937D01*
X257957Y-26137D01*
X257423Y-27137D01*
X254757Y-29137D01*
X253557Y-30537D01*
X252757Y-32537D01*
X252490Y-34337D01*
X258090D01*
G01X264790Y-34737D02*
X264523Y-34537D01*
Y-34137D01*
X264790Y-33937D01*
X265057Y-34137D01*
Y-34537D01*
X264790Y-34737D01*
G01X272023Y-32937D02*
X272957Y-33937D01*
X274023Y-34337D01*
X275090Y-33937D01*
X276023Y-32737D01*
X276690Y-30937D01*
X276957Y-29137D01*
Y-26937D01*
X276690Y-25137D01*
X276023Y-23537D01*
X275223Y-22737D01*
X274290Y-22337D01*
X273223Y-22737D01*
X272423Y-23537D01*
X271890Y-24737D01*
X271623Y-26337D01*
X271890Y-27737D01*
X272557Y-29137D01*
X273357Y-29937D01*
X274290Y-30137D01*
X275357Y-29737D01*
X276157Y-28737D01*
X276957Y-26937D01*
G01X281523Y-32937D02*
X282457Y-33937D01*
X283523Y-34337D01*
X284590Y-33937D01*
X285523Y-32737D01*
X286190Y-30937D01*
X286457Y-29137D01*
Y-26937D01*
X286190Y-25137D01*
X285523Y-23537D01*
X284723Y-22737D01*
X283790Y-22337D01*
X282723Y-22737D01*
X281923Y-23537D01*
X281390Y-24737D01*
X281123Y-26337D01*
X281390Y-27737D01*
X282057Y-29137D01*
X282857Y-29937D01*
X283790Y-30137D01*
X284857Y-29737D01*
X285657Y-28737D01*
X286457Y-26937D01*
G01X291290Y-26337D02*
X295290Y-34337D01*
G01Y-26337D02*
X291290Y-34337D01*
G01X300257Y-24337D02*
X301057Y-23137D01*
X301990Y-22537D01*
X303057Y-22337D01*
X304390Y-22737D01*
X305323Y-23737D01*
X305590Y-24937D01*
X305457Y-26137D01*
X304923Y-27137D01*
X302257Y-29137D01*
X301057Y-30537D01*
X300257Y-32537D01*
X299990Y-34337D01*
X305590D01*
G01X309357Y-31937D02*
X310157Y-33337D01*
X311223Y-34137D01*
X312423Y-34337D01*
X313490Y-34137D01*
X314557Y-33137D01*
X315223Y-31937D01*
X315357Y-30737D01*
X315090Y-29337D01*
X314157Y-28337D01*
X313223Y-27937D01*
X312023D01*
G01X313223D02*
X314023Y-27337D01*
X314690Y-26337D01*
X314957Y-25137D01*
X314690Y-23937D01*
X314023Y-22937D01*
X312823Y-22337D01*
X311623Y-22537D01*
X310423Y-23337D01*
G01X321790Y-34737D02*
X321523Y-34537D01*
Y-34137D01*
X321790Y-33937D01*
X322057Y-34137D01*
Y-34537D01*
X321790Y-34737D01*
G01X328757Y-29337D02*
X329690Y-27937D01*
X330490Y-27137D01*
X331557Y-26737D01*
X332490Y-27137D01*
X333157Y-27937D01*
X333690Y-29137D01*
X333823Y-30537D01*
X333690Y-31737D01*
X333157Y-32937D01*
X332357Y-33937D01*
X331423Y-34337D01*
X330357Y-33937D01*
X329423Y-32737D01*
X328890Y-30937D01*
X328757Y-28937D01*
X329023Y-26337D01*
X329423Y-24937D01*
X330090Y-23537D01*
X331023Y-22537D01*
X331957Y-22337D01*
X332890Y-22737D01*
X333557Y-23737D01*
G01X338257Y-24337D02*
X339057Y-23137D01*
X339990Y-22537D01*
X341057Y-22337D01*
X342390Y-22737D01*
X343323Y-23737D01*
X343590Y-24937D01*
X343457Y-26137D01*
X342923Y-27137D01*
X340257Y-29137D01*
X339057Y-30537D01*
X338257Y-32537D01*
X337990Y-34337D01*
X343590D01*
G01X238457Y66163D02*
X241790Y78163D01*
X245123Y66163D01*
G01X243923Y70363D02*
X239657D01*
G01X248623Y78163D02*
Y66163D01*
X253957D01*
G01X258123Y78163D02*
Y66163D01*
X263457D01*
G01X276857Y78163D02*
Y69563D01*
X277390Y67763D01*
X278457Y66563D01*
X279790Y66163D01*
X281123Y66563D01*
X282190Y67763D01*
X282723Y69563D01*
Y78163D01*
G01X286223Y66163D02*
Y78163D01*
X292357Y66163D01*
Y78163D01*
G01X297190D02*
X300390D01*
G01X298790D02*
Y66163D01*
G01X297190D02*
X300390D01*
G01X308290Y78163D02*
Y66163D01*
G01X305223Y78163D02*
X311357D01*
G01X314990Y67763D02*
X316057Y66763D01*
X317257Y66163D01*
X318323D01*
X319390Y66763D01*
X320190Y67763D01*
X320590Y69163D01*
X320323Y70563D01*
X319657Y71763D01*
X318457Y72563D01*
X316857Y72963D01*
X315923Y73763D01*
X315523Y75163D01*
X315790Y76563D01*
X316457Y77563D01*
X317390Y78163D01*
X318323D01*
X319257Y77763D01*
X320057Y76763D01*
G01X333457Y66163D02*
X336790Y78163D01*
X340123Y66163D01*
G01X338923Y70363D02*
X334657D01*
G01X343623Y66163D02*
Y78163D01*
X346957D01*
X348023Y77563D01*
X348690Y76763D01*
X348957Y75163D01*
X348690Y73563D01*
X347890Y72563D01*
X346957Y71963D01*
X343623D01*
G01X346957D02*
X348957Y66163D01*
G01X358457D02*
X353123D01*
Y78163D01*
X358457D01*
G01X356323Y72363D02*
X353123D01*
G01X373190Y78163D02*
X376390D01*
G01X374790D02*
Y66163D01*
G01X373190D02*
X376390D01*
G01X381223D02*
Y78163D01*
X387357Y66163D01*
Y78163D01*
G01X399823Y66163D02*
Y78163D01*
X403290Y68163D01*
X406757Y78163D01*
Y66163D01*
G01X411190Y78163D02*
X414390D01*
G01X412790D02*
Y66163D01*
G01X411190D02*
X414390D01*
G01X419623Y78163D02*
Y66163D01*
X424957D01*
G01X428990Y67763D02*
X430057Y66763D01*
X431257Y66163D01*
X432323D01*
X433390Y66763D01*
X434190Y67763D01*
X434590Y69163D01*
X434323Y70563D01*
X433657Y71763D01*
X432457Y72563D01*
X430857Y72963D01*
X429923Y73763D01*
X429523Y75163D01*
X429790Y76563D01*
X430457Y77563D01*
X431390Y78163D01*
X432323D01*
X433257Y77763D01*
X434057Y76763D01*
G01X274290Y-9337D02*
Y2663D01*
X272690Y263D01*
G01Y-9337D02*
X275890D01*
G01X281523Y-7937D02*
X282457Y-8937D01*
X283523Y-9337D01*
X284590Y-8937D01*
X285523Y-7737D01*
X286190Y-5937D01*
X286457Y-4137D01*
Y-1937D01*
X286190Y-137D01*
X285523Y1463D01*
X284723Y2263D01*
X283790Y2663D01*
X282723Y2263D01*
X281923Y1463D01*
X281390Y263D01*
X281123Y-1337D01*
X281390Y-2737D01*
X282057Y-4137D01*
X282857Y-4937D01*
X283790Y-5137D01*
X284857Y-4737D01*
X285657Y-3737D01*
X286457Y-1937D01*
G01X293290Y-9737D02*
X293023Y-9537D01*
Y-9137D01*
X293290Y-8937D01*
X293557Y-9137D01*
Y-9537D01*
X293290Y-9737D01*
G01X300257Y-4337D02*
X301190Y-2937D01*
X301990Y-2137D01*
X303057Y-1737D01*
X303990Y-2137D01*
X304657Y-2937D01*
X305190Y-4137D01*
X305323Y-5537D01*
X305190Y-6737D01*
X304657Y-7937D01*
X303857Y-8937D01*
X302923Y-9337D01*
X301857Y-8937D01*
X300923Y-7737D01*
X300390Y-5937D01*
X300257Y-3937D01*
X300523Y-1337D01*
X300923Y63D01*
X301590Y1463D01*
X302523Y2463D01*
X303457Y2663D01*
X304390Y2263D01*
X305057Y1263D01*
G01X310023Y-7937D02*
X310957Y-8937D01*
X312023Y-9337D01*
X313090Y-8937D01*
X314023Y-7737D01*
X314690Y-5937D01*
X314957Y-4137D01*
Y-1937D01*
X314690Y-137D01*
X314023Y1463D01*
X313223Y2263D01*
X312290Y2663D01*
X311223Y2263D01*
X310423Y1463D01*
X309890Y263D01*
X309623Y-1337D01*
X309890Y-2737D01*
X310557Y-4137D01*
X311357Y-4937D01*
X312290Y-5137D01*
X313357Y-4737D01*
X314157Y-3737D01*
X314957Y-1937D01*
G01X274290Y15663D02*
Y27663D01*
X272690Y25263D01*
G01Y15663D02*
X275890D01*
G01X283790D02*
Y27663D01*
X282190Y25263D01*
G01Y15663D02*
X285390D01*
G01X293290Y15263D02*
X293023Y15463D01*
Y15863D01*
X293290Y16063D01*
X293557Y15863D01*
Y15463D01*
X293290Y15263D01*
G01X302790Y15663D02*
X303723Y15863D01*
X304790Y16463D01*
X305457Y17463D01*
X305723Y18863D01*
X305457Y20263D01*
X304657Y21463D01*
X303457Y22063D01*
X302123D01*
X301323Y22463D01*
X300657Y23463D01*
X300390Y24863D01*
X300790Y26263D01*
X301723Y27263D01*
X302790Y27663D01*
X303857Y27263D01*
X304790Y26263D01*
X305190Y24863D01*
X304923Y23463D01*
X304257Y22463D01*
X303457Y22063D01*
X302123D01*
X300923Y21463D01*
X300123Y20263D01*
X299857Y18863D01*
X300123Y17463D01*
X300790Y16463D01*
X301857Y15863D01*
X302790Y15663D01*
G01X312290D02*
Y27663D01*
X310690Y25263D01*
G01Y15663D02*
X313890D01*
G01X276240Y42763D02*
X277307Y41763D01*
X278507Y41163D01*
X279573D01*
X280640Y41763D01*
X281440Y42763D01*
X281840Y44163D01*
X281573Y45563D01*
X280907Y46763D01*
X279707Y47563D01*
X278107Y47963D01*
X277173Y48763D01*
X276773Y50163D01*
X277040Y51563D01*
X277707Y52563D01*
X278640Y53163D01*
X279573D01*
X280507Y52763D01*
X281307Y51763D01*
G01X286940Y53163D02*
X290140D01*
G01X288540D02*
Y41163D01*
G01X286940D02*
X290140D01*
G01X295507Y53163D02*
X300573D01*
X295507Y41163D01*
X300573D01*
G01X310207D02*
X304873D01*
Y53163D01*
X310207D01*
G01X308073Y47363D02*
X304873D01*
G01X387123Y-59337D02*
Y-47337D01*
X390323D01*
X391390Y-47937D01*
X392190Y-49337D01*
X392457Y-50937D01*
X392190Y-52537D01*
X391523Y-53737D01*
X390323Y-54337D01*
X387123D01*
G01X396623Y-47337D02*
Y-59337D01*
X401957D01*
G01X405457D02*
X408790Y-47337D01*
X412123Y-59337D01*
G01X410923Y-55137D02*
X406657D01*
G01X418290Y-47337D02*
Y-59337D01*
G01X415223Y-47337D02*
X421357D01*
G01X430457Y-59337D02*
X425123D01*
Y-47337D01*
X430457D01*
G01X428323Y-53137D02*
X425123D01*
G01X434357Y-59337D02*
Y-47337D01*
X437023D01*
X438090Y-47937D01*
X438890Y-48737D01*
X439557Y-49937D01*
X440090Y-51337D01*
X440223Y-53337D01*
X440090Y-55337D01*
X439557Y-56737D01*
X438890Y-57937D01*
X438090Y-58737D01*
X437023Y-59337D01*
X434357D01*
G01X387123Y-34337D02*
Y-22337D01*
X390323D01*
X391390Y-22937D01*
X392190Y-24337D01*
X392457Y-25937D01*
X392190Y-27537D01*
X391523Y-28737D01*
X390323Y-29337D01*
X387123D01*
G01X396623Y-22337D02*
Y-34337D01*
X401957D01*
G01X405457D02*
X408790Y-22337D01*
X412123Y-34337D01*
G01X410923Y-30137D02*
X406657D01*
G01X418290Y-22337D02*
Y-34337D01*
G01X415223Y-22337D02*
X421357D01*
G01X430457Y-34337D02*
X425123D01*
Y-22337D01*
X430457D01*
G01X428323Y-28137D02*
X425123D01*
G01X434357Y-34337D02*
Y-22337D01*
X437023D01*
X438090Y-22937D01*
X438890Y-23737D01*
X439557Y-24937D01*
X440090Y-26337D01*
X440223Y-28337D01*
X440090Y-30337D01*
X439557Y-31737D01*
X438890Y-32937D01*
X438090Y-33737D01*
X437023Y-34337D01*
X434357D01*
G01X387123Y-9337D02*
Y2663D01*
X390323D01*
X391390Y2063D01*
X392190Y663D01*
X392457Y-937D01*
X392190Y-2537D01*
X391523Y-3737D01*
X390323Y-4337D01*
X387123D01*
G01X396623Y2663D02*
Y-9337D01*
X401957D01*
G01X405457D02*
X408790Y2663D01*
X412123Y-9337D01*
G01X410923Y-5137D02*
X406657D01*
G01X418290Y2663D02*
Y-9337D01*
G01X415223Y2663D02*
X421357D01*
G01X430457Y-9337D02*
X425123D01*
Y2663D01*
X430457D01*
G01X428323Y-3137D02*
X425123D01*
G01X434357Y-9337D02*
Y2663D01*
X437023D01*
X438090Y2063D01*
X438890Y1263D01*
X439557Y63D01*
X440090Y-1337D01*
X440223Y-3337D01*
X440090Y-5337D01*
X439557Y-6737D01*
X438890Y-7937D01*
X438090Y-8737D01*
X437023Y-9337D01*
X434357D01*
G01X387123Y15663D02*
Y27663D01*
X390323D01*
X391390Y27063D01*
X392190Y25663D01*
X392457Y24063D01*
X392190Y22463D01*
X391523Y21263D01*
X390323Y20663D01*
X387123D01*
G01X396623Y27663D02*
Y15663D01*
X401957D01*
G01X405457D02*
X408790Y27663D01*
X412123Y15663D01*
G01X410923Y19863D02*
X406657D01*
G01X418290Y27663D02*
Y15663D01*
G01X415223Y27663D02*
X421357D01*
G01X430457Y15663D02*
X425123D01*
Y27663D01*
X430457D01*
G01X428323Y21863D02*
X425123D01*
G01X434357Y15663D02*
Y27663D01*
X437023D01*
X438090Y27063D01*
X438890Y26263D01*
X439557Y25063D01*
X440090Y23663D01*
X440223Y21663D01*
X440090Y19663D01*
X439557Y18263D01*
X438890Y17063D01*
X438090Y16263D01*
X437023Y15663D01*
X434357D01*
G01X387123Y41163D02*
Y53163D01*
X390323D01*
X391390Y52563D01*
X392190Y51163D01*
X392457Y49563D01*
X392190Y47963D01*
X391523Y46763D01*
X390323Y46163D01*
X387123D01*
G01X396623Y53163D02*
Y41163D01*
X401957D01*
G01X405457D02*
X408790Y53163D01*
X412123Y41163D01*
G01X410923Y45363D02*
X406657D01*
G01X418290Y53163D02*
Y41163D01*
G01X415223Y53163D02*
X421357D01*
G01X430457Y41163D02*
X425123D01*
Y53163D01*
X430457D01*
G01X428323Y47363D02*
X425123D01*
G01X434357Y41163D02*
Y53163D01*
X437023D01*
X438090Y52563D01*
X438890Y51763D01*
X439557Y50563D01*
X440090Y49163D01*
X440223Y47163D01*
X440090Y45163D01*
X439557Y43763D01*
X438890Y42563D01*
X438090Y41763D01*
X437023Y41163D01*
X434357D01*
G01X481540D02*
X480473Y41363D01*
X479540Y42163D01*
X478740Y43363D01*
X478207Y44763D01*
X477940Y46363D01*
Y47963D01*
X478207Y49563D01*
X478740Y50963D01*
X479540Y52163D01*
X480473Y52963D01*
X481540Y53163D01*
X482607Y52963D01*
X483540Y52163D01*
X484340Y50963D01*
X484873Y49563D01*
X485140Y47963D01*
Y46363D01*
X484873Y44763D01*
X484340Y43363D01*
X483540Y42163D01*
X482607Y41363D01*
X481540Y41163D01*
G01X482607Y44363D02*
X484207Y41163D01*
G01X491040Y53163D02*
Y41163D01*
G01X487973Y53163D02*
X494107D01*
G01X500540Y41163D02*
Y46563D01*
X497873Y53163D01*
G01X503207D02*
X500540Y46563D01*
G01X488507Y-49337D02*
X489307Y-48137D01*
X490240Y-47537D01*
X491307Y-47337D01*
X492640Y-47737D01*
X493573Y-48737D01*
X493840Y-49937D01*
X493707Y-51137D01*
X493173Y-52137D01*
X490507Y-54137D01*
X489307Y-55537D01*
X488507Y-57537D01*
X488240Y-59337D01*
X493840D01*
G01X488507Y-24337D02*
X489307Y-23137D01*
X490240Y-22537D01*
X491307Y-22337D01*
X492640Y-22737D01*
X493573Y-23737D01*
X493840Y-24937D01*
X493707Y-26137D01*
X493173Y-27137D01*
X490507Y-29137D01*
X489307Y-30537D01*
X488507Y-32537D01*
X488240Y-34337D01*
X493840D01*
G01X488507Y663D02*
X489307Y1863D01*
X490240Y2463D01*
X491307Y2663D01*
X492640Y2263D01*
X493573Y1263D01*
X493840Y63D01*
X493707Y-1137D01*
X493173Y-2137D01*
X490507Y-4137D01*
X489307Y-5537D01*
X488507Y-7537D01*
X488240Y-9337D01*
X493840D01*
G01X484023Y17063D02*
X484957Y16063D01*
X486023Y15663D01*
X487090Y16063D01*
X488023Y17263D01*
X488690Y19063D01*
X488957Y20863D01*
Y23063D01*
X488690Y24863D01*
X488023Y26463D01*
X487223Y27263D01*
X486290Y27663D01*
X485223Y27263D01*
X484423Y26463D01*
X483890Y25263D01*
X483623Y23663D01*
X483890Y22263D01*
X484557Y20863D01*
X485357Y20063D01*
X486290Y19863D01*
X487357Y20263D01*
X488157Y21263D01*
X488957Y23063D01*
G01X495790Y15663D02*
X496723Y15863D01*
X497790Y16463D01*
X498457Y17463D01*
X498723Y18863D01*
X498457Y20263D01*
X497657Y21463D01*
X496457Y22063D01*
X495123D01*
X494323Y22463D01*
X493657Y23463D01*
X493390Y24863D01*
X493790Y26263D01*
X494723Y27263D01*
X495790Y27663D01*
X496857Y27263D01*
X497790Y26263D01*
X498190Y24863D01*
X497923Y23463D01*
X497257Y22463D01*
X496457Y22063D01*
X495123D01*
X493923Y21463D01*
X493123Y20263D01*
X492857Y18863D01*
X493123Y17463D01*
X493790Y16463D01*
X494857Y15863D01*
X495790Y15663D01*
G54D15*
G01X3000Y0D02*
X107000D01*
G03X110000Y3000I0J3000D01*
G01Y97000D01*
G03X107000Y100000I-3000J0D01*
G01X3000D01*
G03X0Y97000I0J-3000D01*
G01Y3000D01*
G03X3000Y0I3000J0D01*
G01X153290Y-65837D02*
Y109163D01*
X520290D01*
Y-65837D01*
X153290D01*
G01Y-40837D02*
X520290D01*
G01X153290Y-15837D02*
X520290D01*
G01X153290Y9163D02*
X520290D01*
G01X153290Y34163D02*
X520290D01*
G01X153290Y59163D02*
X520290D01*
G01X153290Y84163D02*
X520290D01*
G01X221290Y59163D02*
Y-65837D01*
G01X365290Y59163D02*
Y-65837D01*
G01X461790Y59163D02*
Y-65837D01*
M02*
