G04 ================== begin FILE IDENTIFICATION RECORD ==================*
G04 Layout Name:  Templet_16xB.brd*
G04 Film Name:    GND*
G04 File Format:  Gerber RS274X*
G04 File Origin:  Cadence Allegro 16.6-P004*
G04 Origin Date:  Wed Feb 23 17:51:21 2022*
G04 *
G04 Layer:  VIA CLASS/GND*
G04 Layer:  PIN/GND*
G04 Layer:  ETCH/GND*
G04 Layer:  BOARD GEOMETRY/OUTLINE*
G04 *
G04 Offset:    (0.00 0.00)*
G04 Mirror:    No*
G04 Mode:      Positive*
G04 Rotation:  0*
G04 FullContactRelief:  No*
G04 UndefLineWidth:     6.00*
G04 ================== end FILE IDENTIFICATION RECORD ====================*
%FSLAX25Y25*MOIN*%
%IR0*IPPOS*OFA0.00000B0.00000*MIA0B0*SFA1.00000B1.00000*%
%ADD10C,.01969*%
%ADD12O,.09055X.03937*%
%ADD11O,.07874X.03937*%
%ADD13C,.004*%
%ADD14C,.006*%
%ADD15C,.008*%
%ADD17C,.03572*%
%ADD16O,.11058X.0594*%
G75*
%LPD*%
G75*
G36*
G01X3000Y1001D02*
G02X1001Y3000I0J1999D01*
G01Y97000D01*
G02X3000Y98999I1999J0D01*
G01X107000D01*
G02X108999Y97000I0J-1999D01*
G01Y19149D01*
G02X108304Y18880I-400J1D01*
G03Y16472I-1320J-1204D01*
G02X108999Y16203I295J-270D01*
G01Y3000D01*
G02X107000Y1001I-1999J0D01*
G01X83993D01*
G02X83705Y1678I0J400D01*
G03X83469Y4361I-1287J1239D01*
G02X83458Y4999I235J323D01*
G03X81305Y4961I-1102J1406D01*
G02X81316Y4323I-235J-323D01*
G03X81131Y1678I1102J-1406D01*
G02X80843Y1001I-288J-277D01*
G01X57610D01*
G02X57264Y1602I0J400D01*
G03X57484Y2227I-1545J895D01*
G02X58131Y2477I395J-61D01*
G03X60177Y2339I1121J1390D01*
G02X60698Y2245I207J-342D01*
G03X61174Y4881I1400J1108D01*
G02X60653Y4975I-207J342D01*
G03X57488Y4137I-1400J-1108D01*
G02X56841Y3887I-395J61D01*
G03X55744Y4283I-1122J-1390D01*
G01X55662Y4284D01*
X45348Y14598D01*
X29570D01*
X27748Y16420D01*
Y66368D01*
X34486Y73106D01*
Y77127D01*
X33267Y78346D01*
X33281Y78444D01*
G03X30235Y77437I-1770J242D01*
G02X30182Y76832I-286J-280D01*
G03X31188Y73597I1044J-1449D01*
G02X31462Y72915I-9J-400D01*
G01X26937Y68390D01*
G02X26254Y68672I-283J283D01*
G01Y69370D01*
X25850Y69775D01*
Y73736D01*
G03X23561Y76454I-1002J1479D01*
G02X22975Y76465I-288J277D01*
G03X20303Y76460I-1334J-1188D01*
G02X19745Y76421I-299J266D01*
G03X17280Y76274I-1156J-1362D01*
G02X16710Y76257I-293J272D01*
G03X14255Y76270I-1234J-1291D01*
G02X13697Y76281I-273J292D01*
G03X11422Y73549I-1272J-1254D01*
G01Y13244D01*
X22004Y2662D01*
X40770D01*
X40817Y2529D01*
G03X41399Y1716I1685J591D01*
G02X41152Y1001I-247J-315D01*
G01X3000D01*
G37*
%LPC*%
G75*
G36*
G01X87291Y70409D02*
G03X87853Y70355I308J255D01*
G02X87611Y67833I1132J-1381D01*
G03X87049Y67887I-308J-255D01*
G02X87291Y70409I-1132J1381D01*
G37*
G36*
G01X101646Y64925D02*
G02Y58985I0J-2970D01*
G01X96528D01*
G02X94683Y64282I0J2970D01*
G03X94732Y64863I-249J314D01*
G02X94632Y64984I1325J1197D01*
G03X93984Y64972I-320J-240D01*
G02X93944Y67062I-1468J1017D01*
G03X94592Y67074I320J240D01*
G02X97743Y65459I1468J-1017D01*
G03X98120Y64925I377J-134D01*
G01X101646D01*
G37*
G36*
G01X86040Y61305D02*
G03X86438Y60818I390J-87D01*
G02X84012Y58579I48J-2486D01*
G03X83558Y59014I-398J39D01*
G02X83142Y58985I-414J2941D01*
G01X79206D01*
G02Y64925I0J2970D01*
G01X83142D01*
G02X86040Y61305I0J-2970D01*
G37*
G36*
G01X46024Y51126D02*
G03X45421Y50940I-229J-328D01*
G02X44772Y53038I-1670J633D01*
G03X45375Y53224I229J328D01*
G02X46024Y51126I1670J-633D01*
G37*
G36*
G01X75384Y52570D02*
G03X75444Y51999I307J-256D01*
G02X72974Y51738I-1100J-1407D01*
G03X72914Y52309I-307J256D01*
G02X72442Y54563I1100J1407D01*
G03X72286Y55101I-352J189D01*
G02X74735Y55810I877J1556D01*
G03X74891Y55272I352J-189D01*
G02X75384Y52570I-877J-1556D01*
G37*
G36*
G01X86041Y28588D02*
G02X83142Y24969I-2898J-649D01*
G01X79206D01*
G02Y30909I0J2970D01*
G01X83142D01*
G02X83558Y30880I2J-2970D01*
G03X84012Y31315I56J396D01*
G02X86439Y29075I2474J246D01*
G03X86041Y28588I-8J-400D01*
G37*
G36*
G01X36279Y32765D02*
Y22454D01*
X36436Y22420D01*
G02X34279Y20918I-387J-1744D01*
G01X34293Y21016D01*
X34276Y21032D01*
Y33595D01*
X34415Y33733D01*
X34249Y33899D01*
X34218Y33914D01*
G02X33990Y34274I172J361D01*
G01Y36587D01*
G02X34045Y36790I400J0D01*
G03X33868Y37356I-344J203D01*
G02X35991Y40118I748J1622D01*
G03X36622Y40137I308J255D01*
G02X39702Y39794I1442J-1054D01*
G03X40352Y39670I367J159D01*
G01X45107Y44425D01*
X45093Y44523D01*
G02X48584Y45242I1770J243D01*
G01X48598Y45191D01*
X48777Y45012D01*
X48979Y45214D01*
X51945D01*
G02X54794Y44828I1282J-1243D01*
G03X55426Y44736I351J192D01*
G02X58064Y44595I1255J-1271D01*
G03X58628Y44538I310J252D01*
G02X58377Y42027I1132J-1381D01*
G03X57813Y42084I-310J-252D01*
G02X56439Y41695I-1133J1381D01*
G01X56341Y41709D01*
X50157Y35524D01*
X46330D01*
G02X43674Y35468I-1353J1166D01*
G03X43041Y35404I-292J-273D01*
G02X39889Y35608I-1522J934D01*
G03X39241Y35727I-365J-164D01*
G01X36279Y32765D01*
G37*
G36*
G01X75641Y69285D02*
G02X72268Y68751I-1605J-784D01*
G03X71754Y69189I-396J56D01*
G02X69791Y69840I-523J1708D01*
G03X69149Y69844I-322J-237D01*
G02X66621Y69514I-1426J1075D01*
G03X66041Y69421I-247J-315D01*
G02X64190Y72160I-1486J991D01*
G03X64391Y72835I-82J392D01*
G01X58654Y78572D01*
X54295D01*
G03X53898Y78126I0J-400D01*
G02X52028Y79707I-1774J-202D01*
G03X52289Y80390I-22J400D01*
G01X40033Y92646D01*
X31687D01*
G03X31438Y91932I-1J-400D01*
G02X29218I-1110J-1399D01*
G03X28969Y92646I-248J314D01*
G01X19045D01*
G02X18588Y94648I-1653J676D01*
G01X40863D01*
X54937Y80574D01*
X55228D01*
Y80804D01*
X55220Y80831D01*
G02X58693Y81041I1712J508D01*
G03X59087Y80574I394J-67D01*
G01X59484D01*
X67383Y72675D01*
X67481Y72689D01*
G02X69163Y71976I242J-1770D01*
G03X69805Y71972I322J237D01*
G02X72999Y70647I1426J-1075D01*
G03X73513Y70209I396J-56D01*
G02X73856Y70278I522J-1708D01*
G03X74175Y70852I-40J398D01*
G02X75960Y69859I1605J784D01*
G03X75641Y69285I40J-398D01*
G37*
G54D17*
X8116Y85445D03*
X16846Y86704D03*
X41121Y87400D03*
X36867Y90284D03*
X28274Y86392D03*
X47925Y58139D03*
X44890Y75535D03*
X53072Y73649D03*
X71748Y11187D03*
X70587Y7058D03*
X73343Y18483D03*
X71219Y40358D03*
X68170Y44996D03*
X72268Y32682D03*
X74867Y46467D03*
X73187Y60758D03*
X66257Y80335D03*
X77265Y75668D03*
X82834Y18279D03*
X88463Y46225D03*
X88462Y42247D03*
X106582Y68888D03*
X105027Y79965D03*
G54D16*
X99087Y27939D03*
%LPD*%
G75*
G54D10*
X5233Y51021D03*
X8408Y75557D03*
X8116Y85445D03*
X10509Y18456D03*
X9445Y23730D03*
X10384Y14626D03*
X20362Y23008D03*
X9583Y41572D03*
X9645Y45433D03*
X19400Y37292D03*
X9529Y50959D03*
X20011Y51780D03*
X24848Y75215D03*
X15476Y74966D03*
X12424Y75028D03*
X18589Y75059D03*
X21641Y75277D03*
X22669Y96511D03*
X16846Y86704D03*
X17392Y93322D03*
X28599Y8055D03*
X42502Y3120D03*
X32161Y9580D03*
X36049Y20676D03*
X38064Y39083D03*
X41519Y36338D03*
X34616Y38978D03*
X43751Y51573D03*
X31226Y75383D03*
X31511Y78686D03*
X41121Y87400D03*
X36867Y90284D03*
X30328Y90533D03*
X28274Y86392D03*
X55719Y2497D03*
X53135Y3338D03*
X45304Y2373D03*
X47997Y3213D03*
X50597Y2357D03*
X59253Y3867D03*
X54040Y20236D03*
X59760Y43157D03*
X46863Y44765D03*
X56681Y43465D03*
X44977Y36690D03*
X53227Y43971D03*
X47364Y48375D03*
X47925Y58139D03*
X47045Y52591D03*
X47639Y71525D03*
X52123Y77924D03*
X44890Y75535D03*
X53072Y73649D03*
X56932Y81339D03*
X71748Y11187D03*
X70587Y7058D03*
X62098Y3353D03*
X77250Y18330D03*
X73343Y18483D03*
X63581Y43458D03*
X71219Y40358D03*
X68170Y44996D03*
X72268Y32682D03*
X74867Y46467D03*
X73163Y56657D03*
X73187Y60758D03*
X74014Y53716D03*
X74344Y50592D03*
X64555Y70412D03*
X71231Y70897D03*
X66257Y80335D03*
X77265Y75668D03*
X74036Y68501D03*
X75780Y71636D03*
X67723Y70919D03*
X82418Y2917D03*
X82356Y6405D03*
X93658Y18672D03*
X82834Y18279D03*
X86486Y31561D03*
X95900Y33368D03*
X88463Y46225D03*
X88462Y42247D03*
X86486Y58332D03*
X92516Y65989D03*
X85917Y69268D03*
X96060Y66057D03*
X88985Y68974D03*
X80021Y96729D03*
X107172Y5314D03*
X107265Y11605D03*
X106984Y17676D03*
X101006Y33368D03*
X104400Y56627D03*
X98142Y56658D03*
X106582Y68888D03*
X105027Y79965D03*
X106050Y86205D03*
X105863Y93054D03*
X100944Y96853D03*
G54D11*
X81174Y27939D03*
Y61955D03*
G54D12*
X99087Y27939D03*
Y61955D03*
G54D13*
G01X15476Y74966D02*
Y13255D01*
X23821Y4910D01*
X43560D01*
X45304Y3166D01*
Y2373D01*
G01X12424Y75028D02*
Y13659D01*
X22419Y3664D01*
X41958D01*
X42502Y3120D01*
G01X18589Y75059D02*
Y71430D01*
X16568Y69409D01*
Y15432D01*
X26110Y5890D01*
X46440D01*
X47997Y4333D01*
Y3213D01*
G01X53135Y3338D02*
X43779Y12694D01*
X28472D01*
X25253Y15913D01*
Y68955D01*
X24848Y69360D01*
Y75215D01*
G01X21641Y75277D02*
Y69359D01*
X23198Y67802D01*
Y16786D01*
X28411Y11573D01*
X42471D01*
X50597Y3447D01*
Y2357D01*
G01X17392Y93322D02*
X17717Y93647D01*
X40448D01*
X54522Y79573D01*
X59069D01*
X67723Y70919D01*
G01X46863Y44765D02*
X35278Y33180D01*
Y21447D01*
X36049Y20676D01*
G01X31511Y78686D02*
X33485Y76712D01*
Y73521D01*
X26747Y66783D01*
Y16005D01*
X29155Y13597D01*
X44933D01*
X55719Y2811D01*
Y2497D01*
G01X41519Y36338D02*
X49394Y44213D01*
X52985D01*
X53227Y43971D01*
G01X56681Y43465D02*
X49742Y36526D01*
X45141D01*
X44977Y36690D01*
G54D14*
G01X3000Y0D02*
X107000D01*
G03X110000Y3000I0J3000D01*
G01Y97000D01*
G03X107000Y100000I-3000J0D01*
G01X3000D01*
G03X0Y97000I0J-3000D01*
G01Y3000D01*
G03X3000Y0I3000J0D01*
G54D15*
G01X76035Y27939D02*
X81174D01*
G01X76035Y61955D02*
X81174D01*
G01X93357Y27939D02*
X99087D01*
G01X81174Y24768D02*
Y27939D01*
G01D02*
Y31110D01*
G01Y27939D02*
X86313D01*
G01X93357Y61955D02*
X99087D01*
G01X81174Y58784D02*
Y61955D01*
G01D02*
Y65126D01*
G01Y61955D02*
X86313D01*
G01X99087Y24768D02*
Y27939D01*
G01D02*
Y31110D01*
G01Y27939D02*
X104817D01*
G01X99087Y58784D02*
Y61955D01*
G01D02*
Y65126D01*
G01Y61955D02*
X104817D01*
M02*
