G04 ================== begin FILE IDENTIFICATION RECORD ==================*
G04 Layout Name:  Templet_16xB.brd*
G04 Film Name:    PASTE_TOP*
G04 File Format:  Gerber RS274X*
G04 File Origin:  Cadence Allegro 16.6-P004*
G04 Origin Date:  Wed Feb 23 17:51:21 2022*
G04 *
G04 Layer:  BOARD GEOMETRY/OUTLINE*
G04 Layer:  PACKAGE GEOMETRY/PASTEMASK_TOP*
G04 Layer:  PIN/PASTEMASK_TOP*
G04 *
G04 Offset:    (0.00 0.00)*
G04 Mirror:    No*
G04 Mode:      Positive*
G04 Rotation:  0*
G04 FullContactRelief:  No*
G04 UndefLineWidth:     6.00*
G04 ================== end FILE IDENTIFICATION RECORD ====================*
%FSLAX25Y25*MOIN*%
%IR0*IPPOS*OFA0.00000B0.00000*MIA0B0*SFA1.00000B1.00000*%
%ADD21R,.00591X.0315*%
%ADD22R,.0315X.00591*%
%ADD10R,.01969X.01969*%
%ADD13R,.12598X.09842*%
%ADD19O,.01102X.0315*%
%ADD18O,.0315X.01102*%
%ADD27O,.03543X.01102*%
%ADD16O,.01102X.03543*%
%ADD15O,.03543X.01102*%
%ADD25R,.0374X.01181*%
%ADD20R,.1063X.1063*%
%ADD12R,.02756X.0315*%
%ADD14R,.07087X.01181*%
%ADD17R,.21654X.21654*%
%ADD28R,.1378X.1378*%
%ADD26R,.02756X.05118*%
%ADD23R,.14567X.14567*%
%ADD24O,.03937X.05906*%
%ADD11R,.08929X.06732*%
%ADD29C,.006*%
G75*
%LPD*%
G75*
G36*
G01X4336Y60232D02*
X3942Y59839D01*
Y53894D01*
X4336Y53500D01*
X12478D01*
X12871Y53894D01*
Y59839D01*
X12478Y60232D01*
X10318D01*
X9925Y59839D01*
Y58337D01*
X9531Y57943D01*
X7282D01*
X6889Y58337D01*
Y59839D01*
X6495Y60232D01*
X4336D01*
G37*
G36*
G01Y96689D02*
X3942Y96295D01*
Y90350D01*
X4336Y89957D01*
X6495D01*
X6889Y90350D01*
Y91852D01*
X7282Y92246D01*
X9531D01*
X9925Y91852D01*
Y90350D01*
X10318Y89957D01*
X12478D01*
X12871Y90350D01*
Y96295D01*
X12478Y96689D01*
X4336D01*
G37*
G36*
G01X79143Y25978D02*
X83142Y25980D01*
X83466Y25991D01*
X83677Y26049D01*
X83953Y26143D01*
X84145Y26249D01*
X84442Y26470D01*
X84503Y26530D01*
X84658Y26691D01*
X84758Y26825D01*
X84879Y27012D01*
X85008Y27301D01*
X85056Y27485D01*
X85087Y27651D01*
X85106Y27796D01*
X85112Y30317D01*
X85104Y30458D01*
X85090Y30570D01*
X85070Y30672D01*
X85022Y30873D01*
X84978Y30990D01*
X84916Y31142D01*
X84856Y31246D01*
X84789Y31357D01*
X84730Y31449D01*
X84652Y31550D01*
X84560Y31644D01*
X84472Y31734D01*
X84398Y31796D01*
X84273Y31892D01*
X84116Y31997D01*
X83953Y32074D01*
X83794Y32136D01*
X83632Y32186D01*
X83474Y32216D01*
X83312Y32240D01*
X83149Y32252D01*
X83050Y32249D01*
X82925Y32237D01*
X82840Y32225D01*
X82725Y32204D01*
X82569Y32162D01*
X82390Y32098D01*
X82235Y32030D01*
X82035Y31903D01*
X81872Y31785D01*
X81743Y31656D01*
X81651Y31561D01*
X81562Y31461D01*
X81480Y31346D01*
X81417Y31243D01*
X81385Y31164D01*
X81330Y31069D01*
X81264Y30877D01*
X81219Y30727D01*
X81199Y30606D01*
X81175Y30396D01*
Y30198D01*
X81180Y29919D01*
X79484Y29903D01*
X79200Y29901D01*
X78979Y29890D01*
X78698Y29843D01*
X78527Y29787D01*
X78282Y29682D01*
X78119Y29582D01*
X77903Y29419D01*
X77724Y29232D01*
X77598Y29069D01*
X77458Y28835D01*
X77363Y28659D01*
X77295Y28427D01*
X77250Y28187D01*
X77237Y27885D01*
X77323Y27323D01*
X77538Y26848D01*
X77808Y26528D01*
X78088Y26298D01*
X78433Y26128D01*
X78793Y26008D01*
X79143Y25978D01*
G37*
G36*
G01X83124Y57638D02*
X83286Y57650D01*
X83449Y57674D01*
X83606Y57704D01*
X83769Y57754D01*
X83928Y57816D01*
X84090Y57893D01*
X84248Y57998D01*
X84373Y58094D01*
X84446Y58156D01*
X84534Y58246D01*
X84626Y58340D01*
X84705Y58441D01*
X84764Y58533D01*
X84830Y58644D01*
X84890Y58748D01*
X84953Y58900D01*
X84997Y59017D01*
X85045Y59218D01*
X85065Y59320D01*
X85078Y59432D01*
X85086Y59573D01*
X85080Y62094D01*
X85062Y62239D01*
X85030Y62405D01*
X84983Y62589D01*
X84854Y62878D01*
X84733Y63065D01*
X84633Y63199D01*
X84478Y63360D01*
X84417Y63420D01*
X84120Y63641D01*
X83928Y63747D01*
X83651Y63841D01*
X83441Y63899D01*
X83117Y63910D01*
X79118Y63912D01*
X78768Y63882D01*
X78408Y63762D01*
X78063Y63592D01*
X77783Y63362D01*
X77513Y63042D01*
X77298Y62567D01*
X77212Y62005D01*
X77225Y61703D01*
X77270Y61463D01*
X77338Y61232D01*
X77433Y61055D01*
X77572Y60821D01*
X77699Y60658D01*
X77878Y60471D01*
X78093Y60308D01*
X78257Y60208D01*
X78501Y60103D01*
X78672Y60047D01*
X78954Y60000D01*
X79175Y59989D01*
X79459Y59987D01*
X81155Y59971D01*
X81149Y59692D01*
Y59495D01*
X81173Y59284D01*
X81194Y59163D01*
X81239Y59013D01*
X81305Y58821D01*
X81360Y58726D01*
X81392Y58647D01*
X81455Y58544D01*
X81536Y58429D01*
X81626Y58329D01*
X81718Y58234D01*
X81847Y58105D01*
X82010Y57987D01*
X82210Y57860D01*
X82365Y57792D01*
X82544Y57728D01*
X82700Y57686D01*
X82814Y57665D01*
X82900Y57653D01*
X83025Y57641D01*
X83124Y57638D01*
G37*
G36*
G01X101647Y25971D02*
G02Y29908I0J1969D01*
G01X96528D01*
G02Y25971I0J-1969D01*
G01X101647D01*
G37*
G36*
G01Y59987D02*
G02Y63924I0J1968D01*
G01X96528D01*
G02Y59987I0J-1969D01*
G01X101647D01*
G37*
G36*
G01X80583Y45833D02*
X76843D01*
Y47014D01*
X80583D01*
Y45833D01*
G37*
G36*
G01Y43864D02*
X76843D01*
Y45045D01*
X80583D01*
Y43864D01*
G37*
G36*
G01Y41896D02*
X76843D01*
Y43077D01*
X80583D01*
Y41896D01*
G37*
G36*
G01Y39927D02*
X76843D01*
Y41109D01*
X80583D01*
Y39927D01*
G37*
G36*
G01Y37959D02*
X76843D01*
Y39140D01*
X80583D01*
Y37959D01*
G37*
G36*
G01Y35990D02*
X76843D01*
Y37171D01*
X80583D01*
Y35990D01*
G37*
G36*
G01Y34022D02*
X76843D01*
Y35203D01*
X80583D01*
Y34022D01*
G37*
G36*
G01Y55675D02*
X76843D01*
Y56857D01*
X80583D01*
Y55675D01*
G37*
G36*
G01Y53707D02*
X76843D01*
Y54888D01*
X80583D01*
Y53707D01*
G37*
G36*
G01Y51738D02*
X76843D01*
Y52919D01*
X80583D01*
Y51738D01*
G37*
G36*
G01Y49770D02*
X76843D01*
Y50951D01*
X80583D01*
Y49770D01*
G37*
G36*
G01Y47801D02*
X76843D01*
Y48982D01*
X80583D01*
Y47801D01*
G37*
G36*
G01X85701Y33037D02*
X81961D01*
Y34219D01*
X85701D01*
Y33037D01*
G37*
G36*
G01Y35006D02*
X81961D01*
Y36187D01*
X85701D01*
Y35006D01*
G37*
G36*
G01Y36975D02*
X81961D01*
Y38156D01*
X85701D01*
Y36975D01*
G37*
G36*
G01Y38943D02*
X81961D01*
Y40124D01*
X85701D01*
Y38943D01*
G37*
G36*
G01Y40911D02*
X81961D01*
Y42093D01*
X85701D01*
Y40911D01*
G37*
G36*
G01Y42880D02*
X81961D01*
Y44061D01*
X85701D01*
Y42880D01*
G37*
G36*
G01Y44849D02*
X81961D01*
Y46030D01*
X85701D01*
Y44849D01*
G37*
G36*
G01Y46817D02*
X81961D01*
Y47998D01*
X85701D01*
Y46817D01*
G37*
G36*
G01Y48786D02*
X81961D01*
Y49967D01*
X85701D01*
Y48786D01*
G37*
G36*
G01Y50754D02*
X81961D01*
Y51935D01*
X85701D01*
Y50754D01*
G37*
G36*
G01Y52722D02*
X81961D01*
Y53904D01*
X85701D01*
Y52722D01*
G37*
G36*
G01Y54691D02*
X81961D01*
Y55872D01*
X85701D01*
Y54691D01*
G37*
G54D10*
X7051Y5015D03*
X10595D03*
X25055Y4926D03*
X20024Y58458D03*
Y54914D03*
X20010Y62103D03*
X16466D03*
X28599Y4926D03*
X43539Y44745D03*
X40861Y40761D03*
X43539Y48289D03*
X38263Y79192D03*
Y75648D03*
X34601Y79065D03*
Y75521D03*
X28362Y78927D03*
Y75383D03*
X41905Y79079D03*
Y75535D03*
X27375Y82988D03*
X30919D03*
X55254Y40436D03*
X58798D03*
X44405Y40761D03*
X48086Y40714D03*
X51630D03*
X60042Y77166D03*
Y73622D03*
X56373Y77193D03*
Y73649D03*
X60469Y88054D03*
Y91598D03*
X60476Y84358D03*
X56932D03*
X74856Y7550D03*
X78400D03*
X78395Y11187D03*
X74851D03*
X78361Y14821D03*
X74817D03*
X76887Y21435D03*
X73343D03*
X62456Y40358D03*
X66000D03*
X67309Y73682D03*
Y77226D03*
X63652Y77225D03*
Y73681D03*
X89426Y8754D03*
Y5210D03*
X85727Y8754D03*
Y5210D03*
X86038Y18530D03*
X89582D03*
X86089Y22253D03*
X89633D03*
X96060Y68681D03*
X92516D03*
X103302Y68888D03*
X99758D03*
G54D11*
X8407Y56866D03*
Y93323D03*
G54D20*
X35260Y62188D03*
G54D12*
X14868Y5017D03*
X20774D03*
X35215Y83633D03*
X41121D03*
X89143Y14070D03*
X83237D03*
G54D21*
X51634Y47534D03*
X53012D03*
X54390D03*
X55768D03*
X57146D03*
X58524D03*
X59902D03*
X57146Y67219D03*
X55768D03*
X54390D03*
X53012D03*
X51634D03*
X59902D03*
X58524D03*
X61280Y47534D03*
X62658D03*
X64036D03*
X65414D03*
X66792D03*
X68170D03*
X69548D03*
Y67219D03*
X68170D03*
X66792D03*
X65414D03*
X64036D03*
X62658D03*
X61280D03*
G54D13*
X21102Y15159D03*
Y44293D03*
G54D22*
X50748Y63578D03*
Y62200D03*
Y60822D03*
Y59444D03*
Y58066D03*
Y56688D03*
Y55310D03*
Y53932D03*
Y52554D03*
Y51176D03*
X70433D03*
Y52554D03*
Y53932D03*
Y55310D03*
Y56688D03*
Y58066D03*
Y59444D03*
Y60822D03*
Y62200D03*
Y63578D03*
G54D23*
X60591Y57377D03*
G54D14*
X28583Y22837D03*
Y24805D03*
Y26774D03*
Y28742D03*
Y30711D03*
Y32679D03*
Y34648D03*
Y36616D03*
G54D24*
X50337Y85380D03*
X46597Y94828D03*
X54077D03*
X70862Y95193D03*
X74602Y85745D03*
X67122D03*
G54D15*
X40460Y11376D03*
Y9406D03*
Y29096D03*
Y27126D03*
Y25156D03*
Y23186D03*
Y21216D03*
Y19256D03*
Y17286D03*
Y15316D03*
Y13346D03*
Y31066D03*
X67620Y9406D03*
Y11376D03*
Y13346D03*
Y15316D03*
Y17286D03*
Y19256D03*
Y21216D03*
Y23186D03*
Y25156D03*
Y27126D03*
Y29096D03*
Y31066D03*
G54D25*
X78713Y34612D03*
Y36581D03*
Y38549D03*
Y40518D03*
Y42486D03*
Y44455D03*
Y46423D03*
Y52329D03*
Y54297D03*
Y56266D03*
Y48392D03*
Y50360D03*
X83831Y37565D03*
Y35597D03*
Y33628D03*
Y45439D03*
Y43471D03*
Y41502D03*
Y39534D03*
Y55282D03*
Y53313D03*
Y51345D03*
Y49376D03*
Y47408D03*
G54D16*
X43210Y6656D03*
Y33816D03*
X45180Y6656D03*
X47150D03*
X49120D03*
X51090D03*
X53060D03*
X55020D03*
X56990D03*
X58960D03*
X60930D03*
X47150Y33816D03*
X45180D03*
X60930D03*
X58960D03*
X56990D03*
X55020D03*
X53060D03*
X51090D03*
X49120D03*
X62900Y6656D03*
X64870D03*
Y33816D03*
X62900D03*
X85063Y74063D03*
X87033D03*
X89003D03*
X90973D03*
X92943D03*
X94913D03*
Y93748D03*
X92943D03*
X90973D03*
X89003D03*
X87033D03*
X85063D03*
X96883Y74063D03*
Y93748D03*
G54D26*
X95455Y5255D03*
Y14311D03*
X102935Y5255D03*
X99195Y14311D03*
X102935D03*
G54D17*
X54040Y20236D03*
G54D27*
X81131Y81935D03*
Y79965D03*
Y77995D03*
Y89815D03*
Y87845D03*
Y85875D03*
Y83905D03*
X100816Y81935D03*
Y77995D03*
Y79965D03*
Y83905D03*
Y85875D03*
Y87845D03*
Y89815D03*
G54D18*
X43134Y57219D03*
X27386Y63124D03*
Y61156D03*
Y59187D03*
Y57250D03*
X43134Y59187D03*
Y61156D03*
Y63124D03*
X27386Y67061D03*
Y65093D03*
X43134D03*
Y67061D03*
G54D28*
X90973Y83905D03*
G54D19*
X30338Y54265D03*
X32306D03*
X34275D03*
X36243D03*
X38212D03*
X40180D03*
X34275Y70013D03*
X32306D03*
X30338D03*
X40180D03*
X38212D03*
X36243D03*
G54D29*
G01X3000Y0D02*
X107000D01*
G03X110000Y3000I0J3000D01*
G01Y97000D01*
G03X107000Y100000I-3000J0D01*
G01X3000D01*
G03X0Y97000I0J-3000D01*
G01Y3000D01*
G03X3000Y0I3000J0D01*
M02*
