G04 ================== begin FILE IDENTIFICATION RECORD ==================*
G04 Layout Name:  Templet_16xB.brd*
G04 Film Name:    POWER*
G04 File Format:  Gerber RS274X*
G04 File Origin:  Cadence Allegro 16.6-P004*
G04 Origin Date:  Wed Feb 23 17:51:21 2022*
G04 *
G04 Layer:  VIA CLASS/3V3*
G04 Layer:  PIN/3V3*
G04 Layer:  ETCH/3V3*
G04 Layer:  BOARD GEOMETRY/OUTLINE*
G04 *
G04 Offset:    (0.00 0.00)*
G04 Mirror:    No*
G04 Mode:      Positive*
G04 Rotation:  0*
G04 FullContactRelief:  No*
G04 UndefLineWidth:     6.00*
G04 ================== end FILE IDENTIFICATION RECORD ====================*
%FSLAX25Y25*MOIN*%
%IR0*IPPOS*OFA0.00000B0.00000*MIA0B0*SFA1.00000B1.00000*%
%ADD10C,.01969*%
%ADD12O,.09055X.03937*%
%ADD11O,.07874X.03937*%
%ADD13C,.004*%
%ADD14C,.006*%
%ADD16C,.03572*%
%ADD15O,.11058X.0594*%
G75*
%LPD*%
G75*
G36*
G01X3000Y1001D02*
G02X1001Y3000I0J1999D01*
G01Y97000D01*
G02X3000Y98999I1999J0D01*
G01X99629D01*
G02X99869Y98280I-1J-400D01*
G03X102019I1075J-1427D01*
G02X102259Y98999I241J319D01*
G01X107000D01*
G02X108999Y97000I0J-1999D01*
G01Y19149D01*
G02X108304Y18880I-400J1D01*
G03Y16472I-1320J-1204D01*
G02X108999Y16203I295J-270D01*
G01Y13337D01*
G02X108355Y13020I-400J0D01*
G03Y10190I-1090J-1415D01*
G02X108999Y9873I244J-317D01*
G01Y6970D01*
G02X108338Y6667I-400J0D01*
G03Y3961I-1166J-1353D01*
G02X108999Y3658I261J-303D01*
G01Y3000D01*
G02X107000Y1001I-1999J0D01*
G01X57610D01*
G02X57264Y1602I0J400D01*
G03X57484Y2227I-1545J895D01*
G02X58131Y2477I395J-61D01*
G03X60177Y2339I1121J1390D01*
G02X60698Y2245I207J-342D01*
G03X61174Y4881I1400J1108D01*
G02X60653Y4975I-207J342D01*
G03X57488Y4137I-1400J-1108D01*
G02X56841Y3887I-395J61D01*
G03X54960Y4114I-1122J-1390D01*
G02X54700Y4198I-85J181D01*
G03X51525Y4110I-1565J-860D01*
G02X51269Y4012I-180J87D01*
G03X49833Y3971I-671J-1655D01*
G02X49571Y4057I-86J181D01*
G03X46412Y4036I-1574J-844D01*
G02X46141Y3951I-178J92D01*
G03X44504Y3970I-837J-1578D01*
G02X43991Y4106I-180J357D01*
G03X41399Y1716I-1489J-985D01*
G02X41152Y1001I-247J-315D01*
G01X3000D01*
G37*
%LPC*%
G75*
G36*
G01X14203Y73713D02*
G03X13645Y73724I-285J-281D01*
G02X13697Y76281I-1221J1304D01*
G03X14255Y76270I285J281D01*
G02X16710Y76257I1221J-1304D01*
G03X17280Y76274I277J289D01*
G02X19745Y76421I1309J-1215D01*
G03X20303Y76460I259J305D01*
G02X22975Y76465I1338J-1183D01*
G03X23561Y76454I298J266D01*
G02X23514Y74027I1287J-1239D01*
G03X22928Y74038I-298J-266D01*
G02X20485Y73915I-1287J1239D01*
G03X19927Y73876I-259J-305D01*
G02X17355Y73768I-1338J1183D01*
G03X16785Y73751I-277J-289D01*
G02X14203Y73713I-1309J1215D01*
G37*
G36*
G01X87291Y70409D02*
G03X87853Y70355I308J255D01*
G02X87611Y67833I1132J-1381D01*
G03X87049Y67887I-308J-255D01*
G02X87291Y70409I-1132J1381D01*
G37*
G36*
G01X101646Y64925D02*
G02Y58985I0J-2970D01*
G01X96528D01*
G02X94683Y64282I0J2970D01*
G03X94732Y64863I-249J314D01*
G02X97743Y65459I1328J1194D01*
G03X98120Y64925I377J-134D01*
G01X101646D01*
G37*
G36*
G01X86040Y61305D02*
G03X86438Y60818I390J-87D01*
G02X84012Y58579I48J-2486D01*
G03X83558Y59014I-398J39D01*
G02X83142Y58985I-414J2941D01*
G01X79206D01*
G02Y64925I0J2970D01*
G01X83142D01*
G02X86040Y61305I0J-2970D01*
G37*
G36*
G01X75384Y52570D02*
G03X75444Y51999I307J-256D01*
G02X72974Y51738I-1100J-1407D01*
G03X72914Y52309I-307J256D01*
G02X75384Y52570I1100J1407D01*
G37*
G36*
G01X52226Y45450D02*
Y62984D01*
X30696Y84514D01*
Y88347D01*
G03X30301Y88747I-400J0D01*
G02X32098Y90291I27J1786D01*
G01X32084Y90193D01*
X32698Y89579D01*
Y85344D01*
X45558Y72485D01*
G03X46170Y72540I283J283D01*
G02X47119Y73234I1470J-1014D01*
G01X47260Y73277D01*
Y75422D01*
X35866Y86817D01*
Y88805D01*
G02X37868I1001J1479D01*
G01Y87647D01*
X49264Y76252D01*
Y73948D01*
X56860Y66351D01*
Y45250D01*
X57022Y45218D01*
G02X55114Y42608I-341J-1753D01*
G03X54482Y42700I-351J-192D01*
G02X52226Y45450I-1255J1271D01*
G37*
G36*
G01X43674Y35468D02*
G03X43041Y35404I-292J-273D01*
G02X42822Y37560I-1522J935D01*
G03X43455Y37624I292J273D01*
G02X43674Y35468I1522J-935D01*
G37*
G36*
G01X86041Y28588D02*
G02X83142Y24969I-2898J-649D01*
G01X79206D01*
G02Y30909I0J2970D01*
G01X83142D01*
G02X83558Y30880I2J-2970D01*
G03X84012Y31315I56J396D01*
G02X86439Y29075I2474J246D01*
G03X86041Y28588I-8J-400D01*
G37*
G36*
G01X75641Y69285D02*
G02X73856Y70278I-1605J-784D01*
G03X74175Y70852I-40J398D01*
G02X75960Y69859I1605J784D01*
G03X75641Y69285I40J-398D01*
G37*
G36*
G01X48045Y46104D02*
G02X46091Y46375I-1182J-1339D01*
G03X46182Y47036I-173J361D01*
G02X48136Y46765I1182J1339D01*
G03X48045Y46104I173J-361D01*
G37*
G36*
G01X10446Y43136D02*
G02X8771Y43163I-863J-1564D01*
G03X8782Y43869I-182J356D01*
G02X10457Y43842I863J1564D01*
G03X10446Y43136I182J-356D01*
G37*
G36*
G01X11294Y16163D02*
G02X9576Y16219I-910J-1537D01*
G03X9599Y16919I-181J356D01*
G02X11317Y16863I910J1537D01*
G03X11294Y16163I181J-356D01*
G37*
G36*
G01X33917Y9920D02*
X33931Y9822D01*
G02X31825Y11334I-1770J-242D01*
G01X31988Y11365D01*
Y38909D01*
X33058Y39980D01*
X33134D01*
X33194Y40058D01*
G02X34432Y37202I1422J-1080D01*
G03X33990Y36804I-42J-398D01*
G01Y22100D01*
G03X34694Y21839I400J0D01*
G02Y19513I1355J-1163D01*
G03X33990Y19252I-304J-261D01*
G01Y9993D01*
X33917Y9920D01*
G37*
G54D16*
X5233Y51021D03*
X8408Y75557D03*
X9445Y23730D03*
X9529Y50959D03*
X22669Y96511D03*
X17392Y93322D03*
X31511Y78686D03*
X28274Y86392D03*
X54040Y20236D03*
X47045Y52591D03*
X56932Y81339D03*
X70587Y7058D03*
X77250Y18330D03*
X63581Y43458D03*
X72268Y32682D03*
X74867Y46467D03*
X77265Y75668D03*
X67723Y70919D03*
X93658Y18672D03*
X95900Y33368D03*
X88463Y46225D03*
X88462Y42247D03*
X80021Y96729D03*
X101006Y33368D03*
X104400Y56627D03*
X98142Y56658D03*
X105027Y79965D03*
X106050Y86205D03*
X105863Y93054D03*
G54D15*
X99087Y27939D03*
%LPD*%
G75*
G54D10*
X5233Y51021D03*
X8408Y75557D03*
X8116Y85445D03*
X10509Y18456D03*
X9445Y23730D03*
X10384Y14626D03*
X20362Y23008D03*
X9583Y41572D03*
X9645Y45433D03*
X19400Y37292D03*
X9529Y50959D03*
X20011Y51780D03*
X24848Y75215D03*
X15476Y74966D03*
X12424Y75028D03*
X18589Y75059D03*
X21641Y75277D03*
X22669Y96511D03*
X16846Y86704D03*
X17392Y93322D03*
X28599Y8055D03*
X42502Y3120D03*
X32161Y9580D03*
X36049Y20676D03*
X38064Y39083D03*
X41519Y36338D03*
X34616Y38978D03*
X43751Y51573D03*
X31226Y75383D03*
X31511Y78686D03*
X41121Y87400D03*
X36867Y90284D03*
X30328Y90533D03*
X28274Y86392D03*
X55719Y2497D03*
X53135Y3338D03*
X45304Y2373D03*
X47997Y3213D03*
X50597Y2357D03*
X59253Y3867D03*
X54040Y20236D03*
X59760Y43157D03*
X46863Y44765D03*
X56681Y43465D03*
X44977Y36690D03*
X53227Y43971D03*
X47364Y48375D03*
X47925Y58139D03*
X47045Y52591D03*
X47639Y71525D03*
X52123Y77924D03*
X44890Y75535D03*
X53072Y73649D03*
X56932Y81339D03*
X71748Y11187D03*
X70587Y7058D03*
X62098Y3353D03*
X77250Y18330D03*
X73343Y18483D03*
X63581Y43458D03*
X71219Y40358D03*
X68170Y44996D03*
X72268Y32682D03*
X74867Y46467D03*
X73163Y56657D03*
X73187Y60758D03*
X74014Y53716D03*
X74344Y50592D03*
X64555Y70412D03*
X71231Y70897D03*
X66257Y80335D03*
X77265Y75668D03*
X74036Y68501D03*
X75780Y71636D03*
X67723Y70919D03*
X82418Y2917D03*
X82356Y6405D03*
X93658Y18672D03*
X82834Y18279D03*
X86486Y31561D03*
X95900Y33368D03*
X88463Y46225D03*
X88462Y42247D03*
X86486Y58332D03*
X92516Y65989D03*
X85917Y69268D03*
X96060Y66057D03*
X88985Y68974D03*
X80021Y96729D03*
X107172Y5314D03*
X107265Y11605D03*
X106984Y17676D03*
X101006Y33368D03*
X104400Y56627D03*
X98142Y56658D03*
X106582Y68888D03*
X105027Y79965D03*
X106050Y86205D03*
X105863Y93054D03*
X100944Y96853D03*
G54D11*
X81174Y27939D03*
Y61955D03*
G54D12*
X99087Y27939D03*
Y61955D03*
G54D13*
G01X32161Y9580D02*
X32989Y10408D01*
Y38494D01*
X33473Y38978D01*
X34616D01*
G01X36867Y90284D02*
Y87232D01*
X48262Y75837D01*
Y73533D01*
X55859Y65936D01*
Y44287D01*
X56681Y43465D01*
G01X30328Y90533D02*
X31697Y89164D01*
Y84929D01*
X53227Y63399D01*
Y43971D01*
G54D14*
G01X3000Y0D02*
X107000D01*
G03X110000Y3000I0J3000D01*
G01Y97000D01*
G03X107000Y100000I-3000J0D01*
G01X3000D01*
G03X0Y97000I0J-3000D01*
G01Y3000D01*
G03X3000Y0I3000J0D01*
M02*
