G04 ================== begin FILE IDENTIFICATION RECORD ==================*
G04 Layout Name:  Templet_16xB.brd*
G04 Film Name:    TOP*
G04 File Format:  Gerber RS274X*
G04 File Origin:  Cadence Allegro 16.6-P004*
G04 Origin Date:  Wed Feb 23 17:51:21 2022*
G04 *
G04 Layer:  BOARD GEOMETRY/OUTLINE*
G04 Layer:  ETCH/TOP*
G04 Layer:  PIN/TOP*
G04 Layer:  VIA CLASS/TOP*
G04 *
G04 Offset:    (0.00 0.00)*
G04 Mirror:    No*
G04 Mode:      Positive*
G04 Rotation:  0*
G04 FullContactRelief:  No*
G04 UndefLineWidth:     6.00*
G04 ================== end FILE IDENTIFICATION RECORD ====================*
%FSLAX25Y25*MOIN*%
%IR0*IPPOS*OFA0.00000B0.00000*MIA0B0*SFA1.00000B1.00000*%
%ADD23R,.00591X.0315*%
%ADD24R,.0315X.00591*%
%ADD16C,.03937*%
%ADD12C,.01969*%
%ADD10R,.01969X.01969*%
%ADD14R,.12598X.09842*%
%ADD21O,.01102X.0315*%
%ADD20O,.0315X.01102*%
%ADD31O,.03543X.01102*%
%ADD18O,.01102X.03543*%
%ADD17O,.03543X.01102*%
%ADD28R,.0374X.01181*%
%ADD22R,.1063X.1063*%
%ADD13R,.02756X.0315*%
%ADD15R,.07087X.01181*%
%ADD19R,.21654X.21654*%
%ADD32R,.1378X.1378*%
%ADD29R,.02756X.05118*%
%ADD30O,.09055X.03937*%
%ADD25R,.14567X.14567*%
%ADD26O,.03937X.05906*%
%ADD27O,.07874X.03937*%
%ADD11R,.08929X.06732*%
%ADD33C,.01*%
%ADD34C,.012*%
%ADD35C,.004*%
%ADD36C,.006*%
%ADD37C,.008*%
%ADD38C,.03572*%
G75*
%LPD*%
G75*
G36*
G01X3000Y1001D02*
G02X1001Y3000I0J1999D01*
G01Y97000D01*
G02X3000Y98999I1999J0D01*
G01X68816D01*
G02X69074Y98293I0J-400D01*
G03X68099Y96380I1788J-2116D01*
G01X68086Y96194D01*
X61417D01*
X59468Y94245D01*
Y93384D01*
X58682D01*
Y89056D01*
X57892D01*
X55823Y91125D01*
G02X55850Y91715I283J283D01*
G03X56847Y93844I-1773J2128D01*
G01Y95812D01*
G03X51307I-2770J1D01*
G01Y93844D01*
G03X53076Y91261I2770J0D01*
G01Y91039D01*
X57062Y87052D01*
X58682D01*
Y86144D01*
X55146D01*
Y85360D01*
X54587D01*
X53565Y86382D01*
X53113D01*
X53100Y86567D01*
G03X47567Y86364I-2763J-202D01*
G01Y84396D01*
G03X52921Y83398I2770J0D01*
G02X53577Y83537I373J-144D01*
G01X53757Y83356D01*
X55146D01*
Y82572D01*
X55236D01*
G02X55406Y82268I-1J-200D01*
G03X58583Y82019I1525J-929D01*
G02X58953Y82572I370J153D01*
G01X62262D01*
Y83356D01*
X64734D01*
G03X65437Y82562I2387J1405D01*
G02X65388Y81895I-244J-317D01*
G03X65522Y78707I869J-1560D01*
G01Y75467D01*
X61866D01*
Y75408D01*
X58159D01*
Y75435D01*
X54587D01*
Y74950D01*
X54297D01*
X54241Y74999D01*
G03Y72299I-1169J-1350D01*
G01X54297Y72348D01*
X54587D01*
Y71863D01*
X58256D01*
Y71836D01*
X59169D01*
G02X59452Y71153I0J-400D01*
G01X57895Y69596D01*
X50536D01*
Y64676D01*
X48371D01*
Y60324D01*
G02X47963Y59925I-400J1D01*
G03Y56353I-38J-1786D01*
G02X48371Y55954I8J-400D01*
G01Y54571D01*
G02X47802Y54209I-400J0D01*
G03X45375Y53224I-757J-1618D01*
G02X44772Y53038I-374J142D01*
G03X42185Y52432I-1021J-1465D01*
G02X41552Y52342I-350J193D01*
G01X41348Y52545D01*
X41407Y52672D01*
G03X41532Y53241I-1227J568D01*
G01Y55289D01*
G03X39323Y56335I-1352J0D01*
G02X39069I-127J155D01*
G03X37354I-857J-1046D01*
G02X37101I-127J154D01*
G03X35386I-857J-1046D01*
G02X35132I-127J155D01*
G03X33417I-857J-1046D01*
G02X33164I-127J154D01*
G03X31449I-857J-1046D01*
G02X31195I-127J155D01*
G03X28986Y55289I-857J-1046D01*
G01Y53767D01*
G02X28303Y53485I-400J1D01*
G01X23732Y58055D01*
Y62118D01*
X22746Y63104D01*
X21796D01*
Y63889D01*
X18224D01*
Y60317D01*
X18238D01*
Y53076D01*
G02X18402Y52554I-197J-349D01*
G03X21620I1609J-774D01*
G02X21810Y53089I361J173D01*
G01Y54616D01*
G02X22493Y54898I400J-1D01*
G01X27977Y49414D01*
X29979D01*
X31108Y48286D01*
Y40365D01*
X32869Y38604D01*
X32882Y38550D01*
G03X36058Y37924I1734J428D01*
G02X36689Y37943I323J-236D01*
G03X39682Y38327I1375J1140D01*
G02X40327Y38441I362J-169D01*
G01X40438Y38329D01*
G02X40405Y37734I-283J-283D01*
G03X41469Y34553I1114J-1396D01*
G02X41858Y34153I-11J-400D01*
G01Y32418D01*
X39240D01*
G03X38331Y32068I-1J-1352D01*
G01X34509D01*
X34154Y31712D01*
X32928D01*
Y34072D01*
X28742D01*
X28731Y34073D01*
G03X28583Y34080I-140J-1394D01*
G01X22238D01*
X18960Y30803D01*
Y24115D01*
G03X21764I1402J-1107D01*
G01Y29641D01*
X23400Y31278D01*
X24238D01*
Y21444D01*
X32928D01*
Y21836D01*
X34226D01*
X34312Y21922D01*
X34560Y21674D01*
X34487Y21542D01*
G03X35499Y18977I1562J-866D01*
G02X35658Y18314I-124J-380D01*
G01X31160Y13815D01*
Y11059D01*
G03X30380Y9717I1001J-1479D01*
G02X29729Y9438I-399J31D01*
G03X26988Y7285I-1130J-1383D01*
G02X26813Y6758I-361J-173D01*
G01Y3636D01*
X22954D01*
Y7394D01*
X18594D01*
Y2640D01*
X19472D01*
Y2597D01*
X20386Y1684D01*
G02X20103Y1001I-283J-283D01*
G01X3000D01*
G37*
G36*
G01X62891Y4953D02*
G03X62439Y5106I-793J-1600D01*
G02X62278Y5320I38J196D01*
G03X62282Y5436I-1348J105D01*
G01Y7876D01*
G03X60072Y8922I-1352J0D01*
G02X59818I-127J154D01*
G03X58102I-858J-1046D01*
G02X57848I-127J154D01*
G03X56132I-858J-1046D01*
G02X55878I-127J154D01*
G03X54166Y8925I-858J-1046D01*
G02X53914I-126J156D01*
G03X52202Y8922I-854J-1049D01*
G02X51948I-127J154D01*
G03X50232I-858J-1046D01*
G02X49978I-127J154D01*
G03X48262I-858J-1046D01*
G02X48008I-127J154D01*
G03X46292I-858J-1046D01*
G02X46038I-127J154D01*
G03X44322I-858J-1046D01*
G02X44068I-127J154D01*
G03X43230Y9229I-858J-1045D01*
G02X43033Y9426I3J200D01*
G03X41680Y10758I-1352J-20D01*
G01X39240D01*
G03X38896Y10714I-2J-1352D01*
G01X38871Y10708D01*
X35856D01*
X34623Y9474D01*
G02X33941Y9725I-283J283D01*
G03X33162Y11059I-1780J-145D01*
G01Y12985D01*
X37270Y17093D01*
G02X37938Y16919I283J-283D01*
G03X38194Y16428I1302J367D01*
G02Y16174I-154J-127D01*
G03Y14458I1045J-858D01*
G02Y14204I-154J-127D01*
G03X39240Y11994I1046J-858D01*
G01X41680D01*
G03X42726Y14204I0J1352D01*
G02Y14458I154J127D01*
G03Y16174I-1045J858D01*
G02Y16428I154J127D01*
G03Y18144I-1045J858D01*
G02Y18398I154J127D01*
G03X42729Y20110I-1046J858D01*
G02Y20362I156J126D01*
G03X42726Y22074I-1049J854D01*
G02Y22328I154J127D01*
G03Y24044I-1045J858D01*
G02Y24298I154J127D01*
G03Y26014I-1045J858D01*
G02Y26268I154J127D01*
G03Y27984I-1045J858D01*
G02Y28238I154J127D01*
G03Y29954I-1045J858D01*
G02Y30208I154J127D01*
G03X43033Y31046I-1045J858D01*
G02X43230Y31243I200J-3D01*
G03X44068Y31550I-20J1352D01*
G02X44322I127J-154D01*
G03X46038I858J1045D01*
G02X46292I127J-154D01*
G03X48008I858J1045D01*
G02X48262I127J-154D01*
G03X50472Y32596I858J1046D01*
G01Y35036D01*
G03X50341Y35618I-1352J1D01*
G01X50322Y35659D01*
Y36788D01*
G02X51004Y37071I400J0D01*
G01X51758Y36317D01*
Y35405D01*
X51752Y35380D01*
G03X51708Y35036I1308J-342D01*
G01Y32596D01*
G03X53914Y31547I1352J0D01*
G02X54166I126J-156D01*
G03X55878Y31550I854J1049D01*
G02X56132I127J-154D01*
G03X57848I858J1045D01*
G02X58102I127J-154D01*
G03X59818I858J1045D01*
G02X60072I127J-154D01*
G03X61788I858J1045D01*
G02X62042I127J-154D01*
G03X63758I858J1045D01*
G02X64012I127J-154D01*
G03X64850Y31243I858J1045D01*
G02X65047Y31046I-3J-200D01*
G03X66400Y29714I1352J20D01*
G01X67252D01*
X67276Y29707D01*
G03X67620Y29664I345J1359D01*
G01X69159D01*
X70120Y28704D01*
Y28242D01*
G02X69781Y28098I-200J0D01*
G03X68840Y28478I-940J-972D01*
G01X66400D01*
G03X65354Y26268I0J-1352D01*
G02Y26014I-154J-127D01*
G03Y24298I1045J-858D01*
G02Y24044I-154J-127D01*
G03Y22328I1045J-858D01*
G02Y22074I-154J-127D01*
G03X65351Y20362I1046J-858D01*
G02Y20110I-156J-126D01*
G03X65354Y18398I1049J-854D01*
G02Y18144I-154J-127D01*
G03Y16428I1045J-858D01*
G02Y16174I-154J-127D01*
G03Y14458I1045J-858D01*
G02Y14204I-154J-127D01*
G03Y12488I1045J-858D01*
G02Y12234I-154J-127D01*
G03Y10518I1045J-858D01*
G02Y10264I-154J-127D01*
G03X65047Y9426I1045J-858D01*
G02X64850Y9229I-200J3D01*
G03X63518Y7876I20J-1352D01*
G01Y7024D01*
X63511Y7000D01*
G03X63468Y6656I1359J-345D01*
G01Y5312D01*
G02X62891Y4953I-400J0D01*
G37*
G36*
G01X49161Y39610D02*
X48764Y40008D01*
X42647D01*
Y42547D01*
X39075D01*
Y42062D01*
X38326D01*
X37158Y40895D01*
G02X36476Y41178I-282J283D01*
G01Y41686D01*
X39214Y44424D01*
Y50882D01*
G02X39896Y51164I400J-1D01*
G01X40256Y50805D01*
Y45392D01*
X41752Y43895D01*
Y42958D01*
X45330D01*
G02X45934Y43240I396J-60D01*
G03Y46290I929J1525D01*
G02X45326Y46632I-208J342D01*
G01Y50076D01*
X45055D01*
Y50350D01*
X45103Y50406D01*
G03X45421Y50940I-1352J1167D01*
G02X46024Y51126I374J-142D01*
G03X47049Y50805I1022J1465D01*
G01X47132D01*
X47962Y49974D01*
X50536D01*
Y45157D01*
X51187D01*
G02X51560Y44613I0J-400D01*
G03X51670Y43096I1667J-642D01*
G02X51321Y42500I-349J-196D01*
G01X49844D01*
Y39893D01*
G02X49161Y39610I-400J0D01*
G37*
G36*
G01X73838Y34529D02*
G02X73224Y34191I-400J0D01*
G03X72731Y34407I-955J-1509D01*
G02X72591Y34654I52J193D01*
G03X70359Y38144I-2666J754D01*
G02X70022Y38551I63J395D01*
G03X70019Y38617I-400J15D01*
G02X70318Y38816I198J26D01*
G03X70112Y41760I901J1542D01*
G01X67786D01*
Y42144D01*
X64214D01*
Y38406D01*
X63468Y37661D01*
Y36781D01*
G02X63030Y36383I-400J0D01*
G03X62042Y36082I-130J-1346D01*
G02X61788I-127J154D01*
G03X60072I-858J-1045D01*
G02X59818I-127J154D01*
G03X58102I-858J-1045D01*
G02X57848I-127J154D01*
G03X56132I-858J-1045D01*
G02X55878I-127J154D01*
G03X54820Y36374I-858J-1046D01*
G02X54362Y36770I-58J396D01*
G01Y37395D01*
X53790Y37967D01*
G02X54073Y38650I283J283D01*
G01X60584D01*
Y41573D01*
G03X60977Y44464I-824J1584D01*
G02X61249Y45157I272J293D01*
G01X66380D01*
X66384Y44961D01*
G03X69956I1786J35D01*
G01X69960Y45157D01*
X70646D01*
Y50078D01*
X72628D01*
X72677Y49950D01*
G03X75404Y49154I1667J642D01*
G02X76041Y48832I237J-322D01*
G01Y48511D01*
G02X75499Y48137I-400J0D01*
G03X74286Y44778I-632J-1670D01*
G02X74439Y44117I-130J-378D01*
G01X73838Y43516D01*
Y34529D01*
G37*
G36*
G01X76637Y9336D02*
Y12973D01*
X76603D01*
Y16607D01*
X74955D01*
G02X74660Y17277I0J400D01*
G03X74903Y19352I-1317J1206D01*
G02X75078Y19649I175J97D01*
G01X75129D01*
Y23221D01*
X74744D01*
Y24320D01*
X72922Y26142D01*
Y29866D01*
X72511Y30277D01*
G02X72697Y30948I283J283D01*
G03X73224Y31173I-429J1734D01*
G02X73838Y30835I214J-338D01*
G01Y26926D01*
X79358Y21405D01*
Y9336D01*
X76637D01*
G37*
G36*
G01X75840Y29541D02*
Y35188D01*
X81159D01*
Y34204D01*
X84671D01*
G02X84922Y33494I-1J-400D01*
G03X84012Y31315I1564J-1933D01*
G02X83558Y30880I-398J-39D01*
G03X83142Y30909I-414J-2941D01*
G01X79206D01*
G03X76592Y29351I-1J-2970D01*
G02X75840Y29541I-352J190D01*
G37*
G36*
G01X100596Y17672D02*
Y18724D01*
X95666Y23654D01*
X91419D01*
Y24039D01*
X91330D01*
X91228Y24286D01*
X93384Y26442D01*
G02X94006Y26370I282J-283D01*
G03X96528Y24969I2522J1569D01*
G01X101646D01*
G03Y30909I0J2970D01*
G01X96528D01*
G03X94283Y29883I0J-2969D01*
G02X93580Y30145I-303J262D01*
G01Y48485D01*
X91288Y50778D01*
X86503D01*
Y54706D01*
X81385D01*
Y55690D01*
X76041D01*
Y55176D01*
G02X75343Y54909I-400J0D01*
G03X74891Y55272I-1330J-1193D01*
G02X74735Y55810I196J349D01*
G03X73025Y58438I-1572J847D01*
G02X72810Y58637I-15J199D01*
G01Y58780D01*
G02X73028Y58979I200J0D01*
G03X73206Y62544I158J1779D01*
G02X72810Y62944I4J400D01*
G01Y64676D01*
X70646D01*
Y66728D01*
X70660Y66765D01*
G03X70750Y67219I-1112J456D01*
G01Y68716D01*
X71144Y69111D01*
X71227D01*
G03X71754Y69189I5J1786D01*
G02X72268Y68751I118J-382D01*
G03X75641Y69285I1768J-250D01*
G02X75960Y69859I359J176D01*
G03X76450Y73291I-180J1777D01*
G01X76413Y73307D01*
X75984Y73735D01*
Y74002D01*
G02X76293Y74169I200J-1D01*
G03X79035Y75910I972J1499D01*
G01X79021Y76008D01*
X79673Y76660D01*
X79768Y76650D01*
G03X79910Y76642I147J1345D01*
G01X82352D01*
G03X83397Y78853I0J1353D01*
G02Y79107I154J127D01*
G03Y80823I-1046J858D01*
G02Y81077I154J127D01*
G03Y82793I-1046J858D01*
G02Y83047I154J127D01*
G03Y84763I-1046J858D01*
G02Y85017I154J127D01*
G03Y86733I-1046J858D01*
G02Y86987I154J127D01*
G03Y88703I-1046J858D01*
G02Y88957I154J127D01*
G03X82352Y91168I-1045J858D01*
G01X79910D01*
G03X79406Y91070I1J-1353D01*
G02X78856Y91441I-150J371D01*
G01Y94328D01*
X76990Y96194D01*
X73638D01*
X73625Y96380D01*
G03X72650Y98293I-2763J-203D01*
G02X72908Y98999I258J306D01*
G01X107000D01*
G02X108999Y97000I0J-1999D01*
G01Y19149D01*
G02X108304Y18880I-400J1D01*
G03X107986Y19155I-1319J-1204D01*
G01Y20891D01*
G03X105771Y19549I-2376J1423D01*
G02X105982Y19349I11J-200D01*
G01Y19158D01*
X105904Y19098D01*
G03X105207Y17852I1080J-1422D01*
G01X105189Y17672D01*
X100596D01*
G37*
G36*
G01X108330Y3739D02*
G02X105759Y3637I-1346J1482D01*
G03X105514Y3721I-245J-316D01*
G02X105114Y4121I0J400D01*
G01Y8616D01*
X100756D01*
Y6656D01*
X97634D01*
Y8616D01*
X93276D01*
Y6656D01*
X91212D01*
Y6996D01*
X84046D01*
X83994Y7116D01*
G03X81870Y8124I-1638J-711D01*
G02X81362Y8509I-108J385D01*
G01Y11694D01*
X85416D01*
Y16446D01*
X84538D01*
Y17745D01*
X84547Y17773D01*
G03X81958Y19835I-1713J506D01*
G02X81362Y20184I-196J349D01*
G01Y22235D01*
X78826Y24770D01*
X79028Y24973D01*
X79115Y24970D01*
G03X79206Y24969I78J2969D01*
G01X83142D01*
G03X86041Y28588I1J2970D01*
G02X86439Y29075I390J87D01*
G03X86503Y34047I47J2486D01*
G01Y38132D01*
X90778D01*
Y27800D01*
X88232Y25254D01*
Y24039D01*
X87847D01*
Y20316D01*
X87796D01*
Y18726D01*
X87742Y18672D01*
Y16446D01*
X86964D01*
Y11694D01*
X91322D01*
Y16744D01*
X91368D01*
Y20467D01*
X91419D01*
Y20852D01*
X94504D01*
X97343Y18013D01*
G02X97201Y17672I-142J-141D01*
G01X97015D01*
Y10950D01*
X105115D01*
Y12637D01*
G02X105515Y13037I400J0D01*
G03X105791Y13147I1J400D01*
G02X108361Y13307I1380J-1450D01*
G03X108599Y13228I239J321D01*
G02X108999Y12828I0J-400D01*
G01Y4243D01*
G02X108599Y3843I-400J0D01*
G03X108330Y3739I0J-400D01*
G37*
%LPC*%
G75*
G36*
G01X49367Y93844D02*
G02X43827I-2770J-1D01*
G01Y95812D01*
G02X49367I2770J1D01*
G01Y93844D01*
G37*
G36*
G01X13673Y92022D02*
Y89156D01*
X3141D01*
Y97490D01*
X13673D01*
Y94624D01*
X16170D01*
G02X16168Y92022I1222J-1302D01*
G01X13673D01*
G37*
G36*
G01X31807Y91534D02*
G02X28748Y91365I-1479J-1001D01*
G02X31807Y91534I1402J2389D01*
G37*
G36*
G01X38499Y91412D02*
G03X38431Y91147I107J-169D01*
G02X35387Y91283I-1564J-863D01*
G03X35342Y91554I-166J112D01*
G02X38499Y91412I1681J2202D01*
G37*
G36*
G01X16718Y88485D02*
X16792Y88491D01*
X18157Y89856D01*
X18638D01*
G02X19005Y86722I2445J-1302D01*
G01X19001Y86727D01*
X18855Y86873D01*
X18633Y86650D01*
X18627Y86576D01*
G02X16718Y88485I-1781J128D01*
G37*
G36*
G01X43300Y86010D02*
Y81256D01*
X38942D01*
Y86010D01*
X39172D01*
G03X39529Y86591I0J400D01*
G02X42713I1592J809D01*
G03X43070Y86010I357J-181D01*
G01X43300D01*
G37*
G36*
G01X26374Y85908D02*
X26518Y86052D01*
X26504Y86150D01*
G02X29757Y85397I1770J242D01*
G03X30090Y84774I332J-223D01*
G01X33036D01*
Y86010D01*
X37394D01*
Y81256D01*
X32706D01*
Y81202D01*
X25588D01*
Y84774D01*
X26374D01*
Y85908D01*
G37*
G36*
G01X17048Y7394D02*
Y2640D01*
X12688D01*
Y3228D01*
X5264D01*
Y6802D01*
X12688D01*
Y7394D01*
X17048D01*
G37*
G36*
G01X28410Y57834D02*
X26362D01*
G02X25316Y60045I0J1353D01*
G03Y60298I-154J126D01*
G02Y62013I1046J857D01*
G03Y62267I-155J127D01*
G02Y63982I1046J858D01*
G03Y64235I-154J126D01*
G02X25195Y65776I1046J857D01*
G01X25273Y65910D01*
X23860Y67323D01*
Y71273D01*
X25343Y72757D01*
G03X25021Y73437I-283J282D01*
G02X23514Y74027I-173J1778D01*
G03X22928Y74038I-298J-266D01*
G02X20485Y73915I-1287J1239D01*
G03X19927Y73876I-259J-305D01*
G02X17355Y73768I-1338J1183D01*
G03X16785Y73751I-277J-289D01*
G02X14203Y73713I-1309J1215D01*
G03X13645Y73724I-285J-281D01*
G02X13697Y76281I-1221J1304D01*
G03X14255Y76270I285J281D01*
G02X16710Y76257I1221J-1304D01*
G03X17280Y76274I277J289D01*
G02X19745Y76421I1309J-1215D01*
G03X20303Y76460I259J305D01*
G02X22975Y76465I1338J-1183D01*
G03X23561Y76454I298J266D01*
G02X25933Y76634I1287J-1239D01*
G03X26576Y76951I243J317D01*
G01Y77169D01*
X29632D01*
G03X29976Y77773I0J400D01*
G02X33108Y77886I1535J913D01*
G03X33465Y77307I358J-179D01*
G01X36477D01*
Y77434D01*
X40049D01*
Y77321D01*
X43691D01*
Y77251D01*
G03X43992Y77079I200J1D01*
G02Y73991I898J-1544D01*
G03X43691Y73819I-101J-173D01*
G01Y73749D01*
X43290D01*
X41643Y72102D01*
X41469D01*
G03X41303Y71791I0J-200D01*
G02X41532Y71037I-1123J-753D01*
G01Y68989D01*
G02X41525Y68846I-1352J-5D01*
G03X41965Y68406I398J-42D01*
G02X42110Y68414I147J-1345D01*
G01X44158D01*
G02X45204Y66204I0J-1353D01*
G03Y65950I155J-127D01*
G02Y64235I-1046J-857D01*
G03Y63982I154J-127D01*
G02Y62267I-1046J-857D01*
G03Y62013I155J-127D01*
G02Y60298I-1046J-857D01*
G03Y60045I154J-127D01*
G02X44158Y57834I-1046J-858D01*
G01X42110D01*
G02X41064Y60045I0J1353D01*
G03Y60298I-154J126D01*
G02Y62013I1046J857D01*
G03Y62267I-155J127D01*
G02Y63982I1046J858D01*
G03Y64235I-154J126D01*
G02Y65950I1046J857D01*
G03Y66204I-155J127D01*
G02X40765Y67204I1046J857D01*
G03X40325Y67644I-398J42D01*
G02X39323Y67943I-144J1345D01*
G03X39069I-127J-155D01*
G02X37354I-857J1046D01*
G03X37101I-127J-154D01*
G02X35386I-857J1046D01*
G03X35132I-127J-155D01*
G02X32922Y68989I-857J1046D01*
G01Y71037D01*
G02X33274Y71946I1353J-1D01*
G01Y73080D01*
X33600Y73406D01*
Y73735D01*
X32769D01*
G03X32197Y73884I-354J-186D01*
G02X30436Y73781I-971J1499D01*
G03X30148Y73602I-88J-179D01*
G01Y73597D01*
X29664D01*
Y73396D01*
X26462Y70195D01*
Y68414D01*
X28410D01*
G02X28553Y68406I-4J-1353D01*
G03X28993Y68846I42J398D01*
G02X28986Y68989I1345J138D01*
G01Y71037D01*
G02X31690I1352J0D01*
G01Y68989D01*
G02X30195Y67644I-1353J0D01*
G03X29755Y67204I-42J-398D01*
G02X29456Y66204I-1345J-143D01*
G03Y65950I155J-127D01*
G02Y64235I-1046J-857D01*
G03Y63982I154J-127D01*
G02Y62267I-1046J-857D01*
G03Y62013I155J-127D01*
G02Y60298I-1046J-857D01*
G03Y60045I154J-127D01*
G02X28410Y57834I-1046J-858D01*
G37*
G36*
G01X86416Y72842D02*
G02X83710I-1353J1D01*
G01Y75284D01*
G02X86416I1353J-1D01*
G01Y72842D01*
G37*
G36*
G01X86175Y91482D02*
G03X85921I-127J-154D01*
G02X83710Y92528I-858J1045D01*
G01Y94968D01*
G02X85921Y96014I1353J1D01*
G03X86175I127J154D01*
G02X87891I858J-1045D01*
G03X88145I127J154D01*
G02X89861I858J-1045D01*
G03X90115I127J154D01*
G02X91831I858J-1045D01*
G03X92085I127J154D01*
G02X93801I858J-1045D01*
G03X94055I127J154D01*
G02X95771I858J-1045D01*
G03X96025I127J154D01*
G02X98236Y94968I858J-1045D01*
G01Y92528D01*
G02X96025Y91482I-1353J-1D01*
G03X95771I-127J-154D01*
G02X94055I-858J1045D01*
G03X93801I-127J-154D01*
G02X92085I-858J1045D01*
G03X91831I-127J-154D01*
G02X90115I-858J1045D01*
G03X89861I-127J-154D01*
G02X88145I-858J1045D01*
G03X87891I-127J-154D01*
G02X86175I-858J1045D01*
G37*
G36*
G01X105688Y67342D02*
G03X105102Y67102I-200J-346D01*
G01X101516D01*
Y70674D01*
X102000D01*
Y76456D01*
X101814Y76642D01*
X99596D01*
G02X98550Y78853I-1J1353D01*
G03Y79107I-154J127D01*
G02Y80823I1045J858D01*
G03Y81077I-154J127D01*
G02Y82793I1045J858D01*
G03Y83047I-154J127D01*
G02Y84763I1045J858D01*
G03Y85017I-154J127D01*
G02Y86733I1045J858D01*
G03Y86987I-154J127D01*
G02Y88703I1045J858D01*
G03Y88957I-154J127D01*
G02X99596Y91168I1045J858D01*
G01X102036D01*
G02X103082Y88957I1J-1353D01*
G03Y88703I154J-127D01*
G02Y86987I-1045J-858D01*
G03Y86733I154J-127D01*
G02Y85017I-1045J-858D01*
G03Y84763I154J-127D01*
G02Y83047I-1045J-858D01*
G03Y82793I154J-127D01*
G02X103212Y81265I-1045J-858D01*
G03X103385Y80966I174J-99D01*
G01X103545D01*
X103605Y81045D01*
G02X104941Y78181I1422J-1080D01*
G03X104604Y77539I-19J-399D01*
G01Y70674D01*
X105102D01*
G03X105688Y70434I386J106D01*
G02Y67342I894J-1546D01*
G37*
G36*
G01X86159Y71038D02*
X86257Y71024D01*
X87699Y72467D01*
X87678Y72572D01*
G02X87650Y72842I1325J274D01*
G01Y75284D01*
G02X89861Y76329I1353J0D01*
G03X90115I127J154D01*
G02X91831I858J-1045D01*
G03X92085I127J154D01*
G02X93801I858J-1045D01*
G03X94055I127J154D01*
G02X95771I858J-1045D01*
G03X96025I127J154D01*
G02X98236Y75284I858J-1045D01*
G01Y72842D01*
G02X96466Y71556I-1353J1D01*
G01X96349Y71594D01*
X95906Y71150D01*
G03X96189Y70468I283J-282D01*
G01X97846D01*
Y66894D01*
X97741D01*
Y66662D01*
X97751Y66630D01*
G02X97743Y65459I-1691J-574D01*
G03X98120Y64925I377J-134D01*
G01X101646D01*
G02Y58985I0J-2970D01*
G01X96528D01*
G02X94683Y64282I0J2970D01*
G03X94732Y64863I-249J314D01*
G02X94632Y64984I1325J1197D01*
G03X93984Y64972I-320J-240D01*
G02X90846Y66623I-1468J1017D01*
G01X90860Y66658D01*
Y66894D01*
X90730D01*
Y67250D01*
G03X90084Y67566I-400J0D01*
G02X87611Y67833I-1099J1408D01*
G03X87049Y67887I-308J-255D01*
G02X86159Y71038I-1132J1381D01*
G37*
G36*
G01X86040Y61305D02*
G03X86438Y60818I390J-87D01*
G02X84012Y58579I48J-2486D01*
G03X83558Y59014I-398J39D01*
G02X83142Y58985I-414J2941D01*
G01X79206D01*
G02Y64925I0J2970D01*
G01X83142D01*
G02X86040Y61305I0J-2970D01*
G37*
G54D38*
X8116Y85445D03*
X19400Y37292D03*
X52123Y77924D03*
%LPD*%
G75*
G54D10*
X7051Y5015D03*
X10595D03*
X25055Y4926D03*
X20024Y58458D03*
Y54914D03*
X20010Y62103D03*
X16466D03*
X28599Y4926D03*
X43539Y44745D03*
X40861Y40761D03*
X43539Y48289D03*
X38263Y79192D03*
Y75648D03*
X34601Y79065D03*
Y75521D03*
X28362Y78927D03*
Y75383D03*
X41905Y79079D03*
Y75535D03*
X27375Y82988D03*
X30919D03*
X55254Y40436D03*
X58798D03*
X44405Y40761D03*
X48086Y40714D03*
X51630D03*
X60042Y77166D03*
Y73622D03*
X56373Y77193D03*
Y73649D03*
X60469Y88054D03*
Y91598D03*
X60476Y84358D03*
X56932D03*
X74856Y7550D03*
X78400D03*
X78395Y11187D03*
X74851D03*
X78361Y14821D03*
X74817D03*
X76887Y21435D03*
X73343D03*
X62456Y40358D03*
X66000D03*
X67309Y73682D03*
Y77226D03*
X63652Y77225D03*
Y73681D03*
X89426Y8754D03*
Y5210D03*
X85727Y8754D03*
Y5210D03*
X86038Y18530D03*
X89582D03*
X86089Y22253D03*
X89633D03*
X96060Y68681D03*
X92516D03*
X103302Y68888D03*
X99758D03*
G54D11*
X8407Y56866D03*
Y93323D03*
G54D20*
X43134Y57219D03*
X27386Y63124D03*
Y61156D03*
Y59187D03*
Y57250D03*
X43134Y59187D03*
Y61156D03*
Y63124D03*
X27386Y67061D03*
Y65093D03*
X43134D03*
Y67061D03*
G54D30*
X99087Y27939D03*
Y61955D03*
G54D21*
X30338Y54265D03*
X32306D03*
X34275D03*
X36243D03*
X38212D03*
X40180D03*
X34275Y70013D03*
X32306D03*
X30338D03*
X40180D03*
X38212D03*
X36243D03*
G54D12*
X5233Y51021D03*
X8408Y75557D03*
X8116Y85445D03*
X10509Y18456D03*
X9445Y23730D03*
X10384Y14626D03*
X20362Y23008D03*
X9583Y41572D03*
X9645Y45433D03*
X19400Y37292D03*
X9529Y50959D03*
X20011Y51780D03*
X24848Y75215D03*
X15476Y74966D03*
X12424Y75028D03*
X18589Y75059D03*
X21641Y75277D03*
X22669Y96511D03*
X16846Y86704D03*
X17392Y93322D03*
X28599Y8055D03*
X42502Y3120D03*
X32161Y9580D03*
X36049Y20676D03*
X38064Y39083D03*
X41519Y36338D03*
X34616Y38978D03*
X43751Y51573D03*
X31226Y75383D03*
X31511Y78686D03*
X41121Y87400D03*
X36867Y90284D03*
X30328Y90533D03*
X28274Y86392D03*
X55719Y2497D03*
X53135Y3338D03*
X45304Y2373D03*
X47997Y3213D03*
X50597Y2357D03*
X59253Y3867D03*
X54040Y20236D03*
X59760Y43157D03*
X46863Y44765D03*
X56681Y43465D03*
X44977Y36690D03*
X53227Y43971D03*
X47364Y48375D03*
X47925Y58139D03*
X47045Y52591D03*
X47639Y71525D03*
X52123Y77924D03*
X44890Y75535D03*
X53072Y73649D03*
X56932Y81339D03*
X71748Y11187D03*
X70587Y7058D03*
X62098Y3353D03*
X77250Y18330D03*
X73343Y18483D03*
X63581Y43458D03*
X71219Y40358D03*
X68170Y44996D03*
X72268Y32682D03*
X74867Y46467D03*
X73163Y56657D03*
X73187Y60758D03*
X74014Y53716D03*
X74344Y50592D03*
X64555Y70412D03*
X71231Y70897D03*
X66257Y80335D03*
X77265Y75668D03*
X74036Y68501D03*
X75780Y71636D03*
X67723Y70919D03*
X82418Y2917D03*
X82356Y6405D03*
X93658Y18672D03*
X82834Y18279D03*
X86486Y31561D03*
X95900Y33368D03*
X88463Y46225D03*
X88462Y42247D03*
X86486Y58332D03*
X92516Y65989D03*
X85917Y69268D03*
X96060Y66057D03*
X88985Y68974D03*
X80021Y96729D03*
X107172Y5314D03*
X107265Y11605D03*
X106984Y17676D03*
X101006Y33368D03*
X104400Y56627D03*
X98142Y56658D03*
X106582Y68888D03*
X105027Y79965D03*
X106050Y86205D03*
X105863Y93054D03*
X100944Y96853D03*
G54D13*
X14868Y5017D03*
X20774D03*
X35215Y83633D03*
X41121D03*
X89143Y14070D03*
X83237D03*
G54D22*
X35260Y62188D03*
G54D31*
X81131Y81935D03*
Y79965D03*
Y77995D03*
Y89815D03*
Y87845D03*
Y85875D03*
Y83905D03*
X100816Y81935D03*
Y77995D03*
Y79965D03*
Y83905D03*
Y85875D03*
Y87845D03*
Y89815D03*
G54D32*
X90973Y83905D03*
G54D14*
X21102Y15159D03*
Y44293D03*
G54D23*
X51634Y47534D03*
X53012D03*
X54390D03*
X55768D03*
X57146D03*
X58524D03*
X59902D03*
X57146Y67219D03*
X55768D03*
X54390D03*
X53012D03*
X51634D03*
X59902D03*
X58524D03*
X61280Y47534D03*
X62658D03*
X64036D03*
X65414D03*
X66792D03*
X68170D03*
X69548D03*
Y67219D03*
X68170D03*
X66792D03*
X65414D03*
X64036D03*
X62658D03*
X61280D03*
G54D33*
G01X20774Y5017D02*
Y3136D01*
X21575Y2335D01*
X27612D01*
X28599Y3322D01*
Y4926D01*
G01X20024Y54914D02*
Y51793D01*
X20011Y51780D01*
G01X28362Y75383D02*
Y73935D01*
X25161Y70734D01*
Y67862D01*
X25962Y67061D01*
X27386D01*
G01X21083Y88554D02*
X18696D01*
X16846Y86704D01*
G01X17392Y93322D02*
X17265D01*
X17264Y93323D01*
X8407D01*
G01X28599Y4926D02*
X31915D01*
X36395Y9406D01*
X40460D01*
G01X28599Y4926D02*
Y8055D01*
G01X38064Y39083D02*
Y39960D01*
X38865Y40761D01*
X40861D01*
G01X38212Y70013D02*
Y71940D01*
X39676Y73404D01*
X41104D01*
X41905Y74205D01*
Y75535D01*
G01D02*
X44890D01*
G01X41121Y83633D02*
Y87400D01*
G01X53060Y33816D02*
Y36856D01*
X51908Y38008D01*
Y40436D01*
G01X60042Y73622D02*
X56400D01*
X56373Y73649D01*
G01D02*
X53072D01*
G01X67309Y77226D02*
Y79283D01*
X66257Y80335D01*
G01X83819Y5210D02*
X82418Y3809D01*
Y2917D01*
G01X83237Y14070D02*
Y17876D01*
X82834Y18279D01*
G01X92516Y68681D02*
Y65989D01*
G01X92943Y70028D02*
Y74063D01*
G01Y70028D02*
Y69108D01*
X92516Y68681D01*
G01X94913Y74063D02*
Y71998D01*
X92943Y70028D01*
G01X103302Y68888D02*
X106582D01*
G01X103302D02*
Y76995D01*
X102302Y77995D01*
X100816D01*
G54D15*
X28583Y22837D03*
Y24805D03*
Y26774D03*
Y28742D03*
Y30711D03*
Y32679D03*
Y34648D03*
Y36616D03*
G54D24*
X50748Y63578D03*
Y62200D03*
Y60822D03*
Y59444D03*
Y58066D03*
Y56688D03*
Y55310D03*
Y53932D03*
Y52554D03*
Y51176D03*
X70433D03*
Y52554D03*
Y53932D03*
Y55310D03*
Y56688D03*
Y58066D03*
Y59444D03*
Y60822D03*
Y62200D03*
Y63578D03*
G54D34*
G01X20362Y23008D02*
Y30222D01*
X22819Y32679D01*
X28583D01*
G01X58798Y40436D02*
Y42195D01*
X59760Y43157D01*
G01X55254Y40436D02*
X51908D01*
G01X74851Y11187D02*
Y7555D01*
X74856Y7550D01*
G01X74851Y11187D02*
X71748D01*
G01X74856Y7550D02*
Y4893D01*
X73656Y3693D01*
X66290D01*
X64870Y5113D01*
Y6656D01*
G01X73343Y21435D02*
Y23739D01*
X71521Y25561D01*
Y29285D01*
X69740Y31066D01*
X67620D01*
G01X73343Y21435D02*
Y18483D01*
G01X66000Y40358D02*
X71219D01*
G01X66000D02*
Y38210D01*
X64870Y37080D01*
Y33816D01*
G01X85727Y5210D02*
X83819D01*
G01X85727D02*
X89426D01*
G01X95455Y5255D02*
X89471D01*
X89426Y5210D01*
G01X102935Y5255D02*
X95455D01*
G01X83819Y5210D02*
X83551D01*
X82356Y6405D01*
G01X89633Y22253D02*
X95085D01*
X99195Y18143D01*
Y14311D01*
G01X89633Y22253D02*
Y24673D01*
X92179Y27219D01*
Y39534D01*
G01X89143Y14070D02*
Y18091D01*
X89582Y18530D01*
G01X78713Y40518D02*
X80803D01*
X81787Y39534D01*
X83831D01*
G01D02*
X92179D01*
G01D02*
Y47904D01*
X90707Y49376D01*
X83831D01*
G01X78713Y50360D02*
X80895D01*
X81879Y49376D01*
X83831D01*
G01X102935Y14311D02*
X99195D01*
G01X105924Y31581D02*
Y33061D01*
G54D25*
X60591Y57377D03*
G54D16*
X21150Y82183D03*
X21083Y88554D03*
X37023Y93756D03*
X30150Y93754D03*
X69925Y35408D03*
X105609Y22314D03*
G54D35*
G01X8223Y57853D02*
X8427Y57649D01*
X15229D01*
G01X20010Y62103D02*
X22331D01*
X22731Y61703D01*
Y57640D01*
X28767Y51604D01*
X31906D01*
X32306Y52004D01*
Y54265D01*
G01X20024Y58458D02*
X20351D01*
X20751Y58058D01*
Y58057D01*
X28392Y50416D01*
X30394D01*
X32109Y48701D01*
Y40780D01*
X33911Y38978D01*
X34616D01*
G01X42502Y3120D02*
X43234D01*
X45180Y5066D01*
Y6656D01*
G01X32161Y9580D02*
Y13400D01*
X38017Y19256D01*
X40460D01*
G01X36049Y20676D02*
X36230D01*
X36770Y21216D01*
X40460D01*
G01X28583Y28742D02*
X34555D01*
X34909Y29096D01*
X40460D01*
G01X28583Y24805D02*
X34203D01*
X34554Y25156D01*
X40460D01*
G01X28583Y26774D02*
X34119D01*
X34471Y27126D01*
X40460D01*
G01X28583Y22837D02*
X33811D01*
X34160Y23186D01*
X40460D01*
G01X43539Y44745D02*
X42319D01*
X41257Y45807D01*
Y51220D01*
X40180Y52297D01*
Y54265D01*
G01X28583Y30711D02*
X34569D01*
X34924Y31066D01*
X40460D01*
G01X38212Y54265D02*
Y44839D01*
X35474Y42101D01*
Y39836D01*
X34616Y38978D01*
G01X34601Y75521D02*
Y72991D01*
X34275Y72665D01*
Y70013D01*
G01X36243D02*
Y73628D01*
X38263Y75648D01*
G01X36867Y90284D02*
Y93600D01*
X37023Y93756D01*
G01X35215Y83633D02*
X31564D01*
X30919Y82988D01*
G01X30328Y90533D02*
Y93576D01*
X30150Y93754D01*
G01X28274Y86392D02*
X27375Y85493D01*
Y82988D01*
G01X55020Y6656D02*
Y4552D01*
X55719Y3853D01*
Y2497D01*
G01X53060Y6656D02*
Y3413D01*
X53135Y3338D01*
G01X45304Y2373D02*
Y3229D01*
X47150Y5075D01*
Y6656D01*
G01X47997Y3213D02*
X49120Y4336D01*
Y6656D01*
G01X50597Y2357D02*
Y3757D01*
X51090Y4250D01*
Y6656D01*
G01X78400Y7550D02*
Y4646D01*
X75394Y1640D01*
X58930D01*
X56990Y3580D01*
Y6656D01*
G01X59253Y3867D02*
Y3868D01*
X58960Y4161D01*
Y6656D01*
G01X46863Y44765D02*
X46843Y44745D01*
X43539D01*
G01X56681Y43465D02*
Y44333D01*
X57146Y44798D01*
Y47534D01*
G01X53227Y43971D02*
X53469Y44213D01*
X54509D01*
X55768Y45472D01*
Y47534D01*
G01X63652Y73681D02*
Y72318D01*
X62852Y71518D01*
X61233D01*
X58524Y68809D01*
Y67219D01*
G01X60469Y91598D02*
Y93830D01*
X61832Y95193D01*
X70862D01*
G01X50337Y85380D02*
X53150D01*
X54172Y84358D01*
X56932D01*
G01D02*
Y81339D01*
G01X60476Y84358D02*
X65735D01*
X67122Y85745D01*
G01X54077Y94828D02*
Y91454D01*
X57477Y88054D01*
X60469D01*
G01X70587Y7058D02*
Y7961D01*
X69142Y9406D01*
X67620D01*
G01X62098Y3353D02*
X60930Y4521D01*
Y6656D01*
G01X78400Y7550D02*
X79960D01*
X80360Y7950D01*
Y21820D01*
X74839Y27341D01*
Y43101D01*
X76193Y44455D01*
X78713D01*
G01X74817Y14821D02*
X72481D01*
X70956Y16346D01*
Y22240D01*
X70010Y23186D01*
X67620D01*
G01X72268Y32682D02*
Y33065D01*
X69925Y35408D01*
G01X74014Y53716D02*
X73904D01*
X73688Y53932D01*
X70433D01*
G01X74344Y50592D02*
X74300Y50636D01*
Y50807D01*
X72553Y52554D01*
X70433D01*
G01X74867Y46467D02*
X78669D01*
X78713Y46423D01*
G01X63652Y73681D02*
X67308D01*
X67309Y73682D01*
G01D02*
X67507D01*
X69863Y76038D01*
Y77214D01*
X74602Y81953D01*
Y85745D01*
G01X77265Y75668D02*
X79592Y77995D01*
X81131D01*
G01X74036Y68501D02*
Y79897D01*
X78044Y83905D01*
X81131D01*
G01X75780Y71636D02*
Y72523D01*
X74983Y73320D01*
Y77698D01*
X79220Y81935D01*
X81131D01*
G01Y85875D02*
X78915D01*
X77855Y86935D01*
Y93913D01*
X76575Y95193D01*
X70862D01*
G01X78713Y44455D02*
X80681D01*
X81665Y45439D01*
X83831D01*
G01X88463Y46225D02*
X87677Y45439D01*
X83831D01*
G01X88462Y42247D02*
X87235Y43474D01*
X83834D01*
X83831Y43471D01*
G01X89003Y74063D02*
Y72354D01*
X85917Y69268D01*
G01X90973Y74063D02*
Y70962D01*
X88985Y68974D01*
G01X106984Y17676D02*
Y20939D01*
X105609Y22314D01*
G01X96060Y68681D02*
Y66057D01*
G01X100816Y79965D02*
X105027D01*
G54D26*
X50337Y85380D03*
X46597Y94828D03*
X54077D03*
X70862Y95193D03*
X74602Y85745D03*
X67122D03*
G54D17*
X40460Y11376D03*
Y9406D03*
Y29096D03*
Y27126D03*
Y25156D03*
Y23186D03*
Y21216D03*
Y19256D03*
Y17286D03*
Y15316D03*
Y13346D03*
Y31066D03*
X67620Y9406D03*
Y11376D03*
Y13346D03*
Y15316D03*
Y17286D03*
Y19256D03*
Y21216D03*
Y23186D03*
Y25156D03*
Y27126D03*
Y29096D03*
Y31066D03*
G54D36*
G01X3000Y0D02*
X107000D01*
G03X110000Y3000I0J3000D01*
G01Y97000D01*
G03X107000Y100000I-3000J0D01*
G01X3000D01*
G03X0Y97000I0J-3000D01*
G01Y3000D01*
G03X3000Y0I3000J0D01*
G54D27*
X81174Y27939D03*
Y61955D03*
G54D18*
X43210Y6656D03*
Y33816D03*
X45180Y6656D03*
X47150D03*
X49120D03*
X51090D03*
X53060D03*
X55020D03*
X56990D03*
X58960D03*
X60930D03*
X47150Y33816D03*
X45180D03*
X60930D03*
X58960D03*
X56990D03*
X55020D03*
X53060D03*
X51090D03*
X49120D03*
X62900Y6656D03*
X64870D03*
Y33816D03*
X62900D03*
X85063Y74063D03*
X87033D03*
X89003D03*
X90973D03*
X92943D03*
X94913D03*
Y93748D03*
X92943D03*
X90973D03*
X89003D03*
X87033D03*
X85063D03*
X96883Y74063D03*
Y93748D03*
G54D37*
G01X14868Y5017D02*
X10597D01*
X10595Y5015D01*
G01X12174Y15159D02*
X21102D01*
G01X40861Y40761D02*
Y39606D01*
X41661Y38806D01*
X48266D01*
X49120Y37952D01*
Y33816D01*
G01X41519Y36338D02*
X42410D01*
X43210Y35538D01*
Y33816D01*
G01X28362Y75383D02*
X31226D01*
G01X44977Y36690D02*
X45180Y36487D01*
Y33816D01*
G01X51908Y40436D02*
X51630Y40714D01*
G01X43539Y48289D02*
Y51361D01*
X43751Y51573D01*
G01X50748Y58066D02*
X47998D01*
X47925Y58139D01*
G01X50748Y51176D02*
X48460D01*
X47045Y52591D01*
G01X77250Y18330D02*
X77156D01*
X76887Y18599D01*
G01X68170Y47534D02*
Y44996D01*
G01X76035Y61955D02*
X81174D01*
G01X70433Y60822D02*
X73123D01*
X73187Y60758D01*
G01X70433Y56688D02*
X73132D01*
X73163Y56657D01*
G01X65414Y69553D02*
Y67219D01*
G01Y69553D02*
X64555Y70412D01*
G01X66792Y67219D02*
Y68175D01*
X65414Y69553D01*
G01X71231Y70897D02*
X69548Y69214D01*
Y67219D01*
G01X68170D02*
Y70472D01*
X67723Y70919D01*
G01X81174Y24768D02*
Y27939D01*
G01D02*
Y31110D01*
G01Y27939D02*
X86313D01*
G01X93357Y61955D02*
X99087D01*
G01X81174Y58784D02*
Y61955D01*
G01D02*
Y65126D01*
G01Y61955D02*
X86313D01*
G01X99087Y24768D02*
Y27939D01*
G01D02*
Y31110D01*
G01Y27939D02*
X104817D01*
G01X99087Y58784D02*
Y61955D01*
G01D02*
Y65126D01*
G01Y61955D02*
X104817D01*
G54D19*
X54040Y20236D03*
G54D28*
X78713Y34612D03*
Y36581D03*
Y38549D03*
Y40518D03*
Y42486D03*
Y44455D03*
Y46423D03*
Y52329D03*
Y54297D03*
Y56266D03*
Y48392D03*
Y50360D03*
X83831Y37565D03*
Y35597D03*
Y33628D03*
Y45439D03*
Y43471D03*
Y41502D03*
Y39534D03*
Y55282D03*
Y53313D03*
Y51345D03*
Y49376D03*
Y47408D03*
G54D29*
X95455Y5255D03*
Y14311D03*
X102935Y5255D03*
X99195Y14311D03*
X102935D03*
M02*
